<svg class="BSCIcon" viewBox="0 0 200 200" xmlns="http://www.w3.org/2000/svg" xmlns:xlink="http://www.w3.org/1999/xlink">
  <defs>
    <style>
      .BSCPath {
        fill: #f3ba2f;
      }
    </style>
  </defs>
  <path class="BSCPath" d="M99.97,0h.17C120.46,20.59,141,40.99,161.49,61.42c-7.44,7.67-15.17,15.03-22.55,22.74-12.91-13.08-26.07-25.92-38.91-39.07C87.18,58.22,74.07,71.1,61.11,84.12c-7.38-7.69-15.08-15.07-22.53-22.69Q69.315,30.755,99.97,0Zm.05,123.12c7.56-7.84,15.32-15.49,23.07-23.13-7.81-7.54-15.47-15.25-23.05-23.03C92.42,84.71,84.76,92.44,76.95,100,84.71,107.63,92.47,115.28,100.02,123.12ZM0,100.11c7.67,7.39,15.06,15.06,22.66,22.51,7.54-7.56,15-15.2,22.7-22.6-7.7-7.4-15.17-15.03-22.69-22.61C15.05,84.86,7.69,92.55,0,99.92Zm177.4,22.53c7.58-7.43,14.95-15.09,22.6-22.44v-.34c-7.67-7.33-15.02-15-22.6-22.42-7.56,7.55-15.02,15.2-22.72,22.61C162.4,107.44,169.83,115.11,177.4,122.64ZM99.88,200h.28c20.34-20.58,40.87-40.96,61.34-61.41-7.47-7.62-15.17-15.01-22.56-22.71-12.89,13.11-26.08,25.92-38.91,39.08-12.86-13.12-25.97-26.01-38.93-39.04-7.38,7.69-15.09,15.05-22.55,22.66C59,159.04,79.55,179.42,99.88,200Z"/>
</svg>