<svg class="BlockExplorer_Icon" viewBox="0 0 442.09381 441.54808" xmlns="http://www.w3.org/2000/svg" xmlns:xlink="http://www.w3.org/1999/xlink">
  <defs>
    <style>
      .BlockExplorerPath {
        fill: var(--svgColor2);
      }
    </style>
  </defs>
  <path class="BlockExplorerPath" d="M98.91,94.93c42.25-41.5,101.92-64.45,161.08-62.29A221.55267,221.55267,0,0,1,404.32,92.61a219.29147,219.29147,0,0,1,52.58,76.3c2.43,6.55,5.74,12.95,6.27,20.03a31.73378,31.73378,0,0,1-3.8,17.48c-2.1,3.75-4.94,7.01-7.61,10.35-20.54,25.17-45.36,46.47-71.5,65.6-.1-42.12-.01-84.24-.04-126.36-.02-4.62.38-9.42-1.32-13.83a18.59544,18.59544,0,0,0-16.87-12c-9.32-.12-18.65.01-27.98-.05-3.34,0-6.78-.11-9.98,1.01a18.92552,18.92552,0,0,0-12.54,17.85q.015,81.06.01,162.1a15.4575,15.4575,0,0,1-9.31,14.05q-7.905,3.315-15.8,6.63c-.15-45.57.08-91.14-.11-136.71-.17-9.63-8.67-18.05-18.31-18.05-10.71.02-21.41-.04-32.12.01-9.48.08-17.96,8.43-18.1,17.92q0,73.02-.01,146.04c.4,6.99-4.07,14.02-10.87,16.06-4.76,1.31-9.59,2.38-14.38,3.62q.045-59.385,0-118.77c-.14-9.62-8.86-17.98-18.43-18.02-10.02.1-20.04-.16-30.06-.21a19.697,19.697,0,0,0-15.64,6.76c-3.35,3.66-4.54,8.74-4.59,13.59q.045,57.975.03,115.98c.31,7.35-5.86,14.19-13.09,15.1q-11.37,1.35-22.78,2.41a28.09563,28.09563,0,0,1-26.7-13.77A219.10312,219.10312,0,0,1,32.02,249.06C32.68,191.53,57.53,134.83,98.91,94.93ZM264.68,394.84A651.735,651.735,0,0,1,122.91,431.7a219.6474,219.6474,0,0,0,71.73,34.6c23.81,6.67,48.78,8.79,73.43,7.29a220.44162,220.44162,0,0,0,183.4-123.01,218.58877,218.58877,0,0,0,21.91-113.1c-23.64,35.81-54.42,66.6-88.76,92.19C347.96,356.91,307.2,378.35,264.68,394.84Z" transform="translate(-31.9397 -32.50012)"/>
</svg>