<svg class="Fantom_Icon" viewBox="0 0 266.69426 318.21964" xmlns="http://www.w3.org/2000/svg">
  <defs>
    <style>
      .FantomIconPath {
        fill: #1a69ff;
      }
    </style>
  </defs>
  <path class="FantomIconPath" d="M231.85425,13.65818c2.47-.62,5.32-.67,7.56.73,7.62,4.3,15.43,8.98,20.65,16.21,5.27,7.8,6.44,17.43,6.63,26.62a9.8557,9.8557,0,0,1-7.41,9.49c-5.24,1.19-10.92-3.14-11.03-8.55-.29-5.85.17-12.34-3.43-17.36-4.3-5.57-11.3-7.89-16.57-12.29C223.48424,24.05818,225.91425,15.70818,231.85425,13.65818Zm-226.18,234.89c5.27-2.36,12.44,1.56,12.48,7.53.7,6.55-.3,14.42,5.03,19.36,4.56,5.05,11.73,6.78,16.14,11.94,4.1,5.4-.43,13.63-6.83,14.21-3.69.43-6.69-2.12-9.66-3.87-6.25-3.77-12.58-7.94-16.66-14.15-5.11-8.1-6.51-17.96-6.11-27.38C.12425,252.76819,2.71425,249.93817,5.67425,248.54819Zm120.18-247.76c7.82-1.41,16.33-1.16,23.48,2.67,25.41,13.56,50.97,26.85,76.36,40.45a17.53931,17.53931,0,0,1,9.77,15.29q.045,98.025.02,196.04c-.06,3.5.38,7.25-1.36,10.44-.92,2.13-3.06,3.22-4.93,4.37q-40.47,22.515-80.9,45.09a34.40163,34.40163,0,0,1-28.68-.1c-27.24-14.73-54.43-29.54-81.7-44.22a8.645,8.645,0,0,1-4.78-5.65c-.75-5.28-.52-10.62-.55-15.93q-.015-94.53-.01-189.06c-.15-6.38,3.06-13,8.97-15.84,22.82-12.2,45.75-24.2,68.61-36.33C115.33425,5.48818,120.15426,2.05818,125.85425.78818Zm1.18,19.04q-33.99,17.94-67.98,35.89c-1.09.62-2.12,1.33-3.16,2.04,24.16,12.33,47.99,25.3,72.02,37.87a16.17387,16.17387,0,0,0,14.11-.94c23.29-12.55,46.91-24.51,70.08-37.27q-35.205-18.735-70.53-37.28A14.7542,14.7542,0,0,0,127.03425,19.82818Zm-76.11,55.8c-.04,21.03.04,42.07-.04,63.1,19.77-10.76,39.85-20.98,59.64-31.7C90.56425,96.73818,70.78425,86.10818,50.92425,75.62818Zm106.64,31.38c19.84,10.72,39.9,21.06,59.78,31.7-.1-21-.25-42.01.08-63.01C197.31425,85.80818,177.65426,96.84818,157.56425,107.00818Zm-14.3,13.15q.015,36.57,0,73.16c18.72-10.05,37.57-19.86,56.32-29.85,4.2-2.24,8.62-4.15,12.49-6.95q-34.485-18.015-68.81-36.36Zm-54.54,19.19c-11.03,5.57-21.73,11.81-32.88,17.11,5.38,3.59,11.32,6.23,17,9.32,17.28,9.26,34.76,18.16,51.94,27.61-.05-24.43-.23-48.86.08-73.28C112.92425,126.72818,100.71425,132.83818,88.72425,139.34817Zm58.36,72.54c-9.67,3.78-21.32,3.39-30.24-2.18-22.04-11.45-43.85-23.32-65.93-34.68.06,27.36-.1,54.71.07,82.07,25.5,13.68,50.88,27.58,76.37,41.28,4.8,2.63,10.68,1.84,15.21-.99,24.92-14.05,50.07-27.69,74.86-41.96-.35-26.87-.14-53.76-.11-80.64Q182.25925,193.44818,147.08425,211.88818Z" transform="translate(0.00001 0)"/>
</svg>
