<svg class="MoonIcon" x="0px" y="0px" viewBox="0 0 25 25.1" xml:space="preserve" xmlns="http://www.w3.org/2000/svg" xmlns:xlink="http://www.w3.org/1999/xlink">
<defs>
  <style>
    #moon{fill:#4d546d;}
  </style>
</defs>
<g id="moon">
  <path d="M13,0.4c0.2,0,0.4,0,0.6,0c1.4,0.1,2.8,0.5,4.1,1.1c0.8,0.4,1.5,0.8,2.2,1.4c0.4,0.3,0.7,0.6,1.1,0.9 c0.7,0.7,1.3,1.5,1.9,2.3c0.4,0.6,0.8,1.3,1.1,2c0.6,1.4,0.9,3,0.9,4.6c0,0.6-0.1,1.3-0.2,1.9c-0.1,0.5-0.2,0.9-0.3,1.4 c-0.2,0.8-0.5,1.6-0.9,2.3c-0.7,1.3-1.6,2.5-2.8,3.5c-1.9,1.6-4.2,2.7-6.6,3c-0.4,0-0.8,0.1-1.1,0.1c-1.3,0-2.5,0-3.8-0.4 c-1.2-0.3-2.3-0.8-3.4-1.4c-0.3-0.2-0.7-0.4-1-0.6c-1.8-1.3-3.3-3.1-4.2-5.2c-0.1-0.3-0.3-0.5-0.3-0.8c0-0.4,0.3-0.7,0.7-0.8 c0.3-0.1,0.6,0,0.8,0.2c1,0.5,2,0.8,3.1,1c1.9,0.3,3.9,0,5.7-0.8c0.7-0.3,1.3-0.7,1.9-1.2c1.2-0.9,2.1-2.2,2.7-3.6 c0.4-0.9,0.5-1.9,0.5-2.8c0-0.5-0.1-0.9-0.1-1.4c-0.1-0.7-0.3-1.4-0.6-2c-0.5-1.1-1.2-2-2.1-2.8c-0.3-0.2-0.6-0.5-0.6-0.8 C12.2,0.9,12.5,0.4,13,0.4z M15.6,2.6c0.4,0.6,0.7,1.2,1,1.8c0.4,1,0.7,2.1,0.8,3.2c0.1,1.5-0.1,3-0.7,4.4 c-0.5,1.2-1.2,2.3-2.1,3.3c-0.5,0.5-1.1,1-1.7,1.4C11,18,8.6,18.7,6.3,18.7c-0.7,0-1.4-0.1-2.1-0.2c-0.4-0.1-0.8-0.2-1.1-0.3 c0.9,1.4,2.2,2.5,3.6,3.4c1.4,0.8,3.1,1.3,4.7,1.4c1.6,0.1,3.2-0.1,4.7-0.7c1.5-0.6,3-1.5,4.1-2.7c0.3-0.4,0.7-0.7,1-1.2 c0.8-1.2,1.4-2.5,1.7-4c0.1-0.8,0.2-1.6,0.2-2.5c0-0.6-0.1-1.1-0.2-1.7c-0.4-1.8-1.3-3.5-2.6-4.9c-1.1-1.2-2.4-2.1-3.9-2.7 C16.1,2.8,15.8,2.7,15.6,2.6z"></path>
</g>
</svg>