<svg id="Layer_1" data-name="Layer 1" xmlns="http://www.w3.org/2000/svg" xmlns:xlink="http://www.w3.org/1999/xlink" viewBox="0 0 479 479"><defs><style>.cls-1{fill:url(#linear-gradient);}.cls-2{fill:url(#radial-gradient);}.cls-3{fill:url(#radial-gradient-2);}.cls-4{fill:url(#radial-gradient-3);}</style><linearGradient id="linear-gradient" x1="475.83" y1="47.87" x2="44.31" y2="397.77" gradientUnits="userSpaceOnUse"><stop offset="0.16" stop-color="#fba84c"/><stop offset="0.49" stop-color="#f46c33"/><stop offset="0.7" stop-color="#d85137"/><stop offset="1" stop-color="#a7233f"/></linearGradient><radialGradient id="radial-gradient" cx="117.49" cy="170.95" r="18.08" gradientUnits="userSpaceOnUse"><stop offset="0" stop-color="#1d3152"/><stop offset="0.47" stop-color="#1d3051"/><stop offset="1" stop-color="#171d35"/></radialGradient><radialGradient id="radial-gradient-2" cx="101.29" cy="206.32" r="17.84" xlink:href="#radial-gradient"/><radialGradient id="radial-gradient-3" cx="250.01" cy="250" r="170.67" xlink:href="#radial-gradient"/></defs><circle class="cls-1" cx="239.5" cy="239.5" r="239.5"/><path class="cls-2" d="M126.48,182.37a144.44,144.44,0,0,1,9.29-14.53l-19.36,4.83-6.93-19.59A169.8,169.8,0,0,0,99.21,170l8.43,18.85Z" transform="translate(-10.5 -10.5)"/><path class="cls-3" d="M95.79,225.23l17.2-9a142.82,142.82,0,0,1,5-15.64l-18.13,6.16-8.68-19.3A169.9,169.9,0,0,0,84.59,208Z" transform="translate(-10.5 -10.5)"/><path class="cls-4" d="M370.68,129.32a170.68,170.68,0,0,0-241.37,0q-4.91,4.91-9.31,10.09l5.65,16.08,26.73-6.74A144,144,0,0,1,380,318.92L226.11,217.42l100.44-12v-9.65l-126-15.09-22.62-2.71,2.71,22.62,15.08,126h9.65l12-100.44L318.9,380A144,144,0,0,1,109.82,232.12l-18.34,9.6-10.4-16a170.66,170.66,0,1,0,289.6-96.44Z" transform="translate(-10.5 -10.5)"/></svg>