<svg class="Polygon_Icon" viewBox="0 0 200 175.57312" xmlns="http://www.w3.org/2000/svg">
  <defs>
    <style>
      .PolygonIconPath {
        fill: #8247e5;
      }
    </style>
  </defs>
  <path class="PolygonIconPath" d="M48.27,2.21a13.19473,13.19473,0,0,1,13.72-.17q17.895,10.605,35.86,21.1c3.46,2.1,7.46,3.83,9.66,7.41,1.68,2.49,1.97,5.57,1.96,8.5-.01,5.27-.06,10.55-.01,15.83-6.6,3.93-13.34,7.62-19.89,11.63.03-5.88.17-11.75.02-17.63a12.62722,12.62722,0,0,0-6.57-10.86c-7.08-4.24-14.1-8.56-21.18-12.79a13.25173,13.25173,0,0,0-13.8-.24Q37.285,31.185,26.57,37.47A13.1463,13.1463,0,0,0,19.81,49c-.06,8.35-.03,16.7-.01,25.05a13.0876,13.0876,0,0,0,6.41,11.67c7.05,4.32,14.15,8.56,21.23,12.84a13.15123,13.15123,0,0,0,13.6.58c12.86-7.5,25.38-15.58,38.5-22.6,12.91-6.96,25.37-14.7,38.05-22.06,4.02-2.48,9.36-3.07,13.51-.55q20.94,12.015,41.77,24.23c4.38,2.38,6.69,7.17,7.13,12v51.2l-.01-1.58c-1.19,3.72-2.83,7.67-6.41,9.71-13.87,8.23-27.92,16.17-41.81,24.37-3.35,2.29-7.86,2.3-11.61,1.2-14.24-8.11-28.35-16.47-42.57-24.63-4.21-2.16-7.44-6.48-7.39-11.33,0-5.71-.15-11.43.02-17.14,6.13-4.55,13.26-7.76,19.76-11.84,0,5.66-.19,11.33,0,16.99a12.51865,12.51865,0,0,0,6.22,10.62c6.92,4.09,13.9,8.08,20.83,12.16,4.08,2.52,9.45,3.49,13.77.97,7.2-4.1,14.27-8.43,21.39-12.65a13.05335,13.05335,0,0,0,6.99-11.18c.09-8.67.04-17.35.03-26.02a12.71419,12.71419,0,0,0-6.22-11.14c-7.32-4.36-14.71-8.6-22.08-12.85a13.1793,13.1793,0,0,0-13.6.21C112.25,91.87,87.09,106.36,62.03,121c-4.05,2.48-9.38,3.06-13.55.55-13.77-7.89-27.46-15.92-41.19-23.86A13.93165,13.93165,0,0,1,0,87.29V35.61c.81-3.51,2.68-6.92,5.99-8.63Q27.125,14.59,48.27,2.21Z" transform="translate(0 -0.19949)"/>
</svg>