<svg viewBox="0 0 500 931" xmlns="http://www.w3.org/2000/svg">
  <defs>
    <style>
      path {
        fill: #20469c;
      }
    </style>
  </defs>
  <path d="M112.51.5H358.4c6.33.98,12.77,1.09,19.04,2.52A150.63545,150.63545,0,0,1,497.99,123.5c.78,4.52,1.27,9.07,2.01,13.6V648.89c-2.06,10.19-3.66,20.53-7.25,30.33a150.08993,150.08993,0,0,1-49.86,70.17c-26.76,20.98-60.84,32.68-94.89,31.79q-115.5,0-231,0c-4.65-.01-9.31-.18-13.94.25,7.45,8.2,15.64,15.71,23.36,23.66q37.245,37.23,74.5,74.48a31.03247,31.03247,0,0,1,8.68,15.29,30.19147,30.19147,0,0,1-10.9,30.35c-3.89,3.01-8.59,4.68-13.19,6.29H175.5c-6.09-1.73-12.16-4.23-16.58-8.92Q83.395,847.1,7.9,771.6c-4.2-4.24-6.45-9.91-7.9-15.59V745.98c1.42-4.67,3.09-9.42,6.24-13.23,2.99-3.67,6.57-6.77,9.86-10.15q71.505-71.49,143.01-142.97c9.25-9.46,24.95-11.39,36.27-4.56,12.26,6.77,18.23,22.88,13.17,35.99-2.68,8.46-10.1,13.84-15.95,20.03q-41.505,41.505-83,83.01c-2.26,2.25-4.81,4.27-6.56,6.98,83.33.2,166.68,0,250.02.1,28.05-.62,55.22-15.43,71.2-38.44a90.45078,90.45078,0,0,0,16.4-49.17q-.015-238.53.01-477.07a103.68418,103.68418,0,0,0-2.99-27.62A90.30958,90.30958,0,0,0,405.17,79.3C389.52,67.25,369.8,60.31,350,60.71q-111-.06-222-.01c-8.29,0-17.13.61-24.64-3.57-13.32-6.7-20.04-24.3-13.74-37.99C93.39,9.42,102.59,2.9,112.51.5Z" transform="translate(0 -0.5)"/>
</svg>
