<svg class="UnlockedIcon" x="0px" y="0px" viewBox="0 0 50.8 50.7" xml:space="preserve" xmlns="http://www.w3.org/2000/svg" xmlns:xlink="http://www.w3.org/1999/xlink">
<defs>
  <style>
    .UnLockedIconPath{fill:#c85546;}
  </style>
</defs>
<path class="UnLockedIconPath" d="M22.2,1.4
	c4.8-0.6,9.9,0.3,14.2,2.5c6.3,3.3,11.2,9.4,12.6,16.4c0.9,3.4,0.9,7,0,10.4c-1.3,6.5-5.6,12.3-11.2,15.7c-4.3,2.6-9.5,3.8-14.5,3.4
	c-4.9-0.4-9.8-2.3-13.6-5.5c-3-2.5-5.4-5.8-7-9.4c-0.4-1.3-1-2.5-1.2-3.8c-0.9-3.6-1-7.4,0-11.1c0.2-1.5,0.9-2.9,1.4-4.4
	c0.5-1,1-2,1.6-3C8.3,6.5,15,2.2,22.2,1.4z M19.1,16.1c-0.8,2-0.4,4.2-0.5,6.2c-0.8,0-1.7,0-2.5,0.1c0,0.4-0.1,0.9-0.1,1.3
	c0,3.6,0,7.2,0,10.8c-0.1,1.7,1.5,3.2,3.1,3.1c4.1,0,8.2,0,12.4,0c0.9,0,1.7-0.3,2.4-1c0.7-0.6,0.8-1.5,0.8-2.4c0-3.3,0-6.6,0-10
	c0-0.6,0-1.3-0.1-1.9c-4.4-0.1-8.7,0-13.1-0.1c0-1.4-0.1-2.8,0-4.2c0.2-1,0.7-1.9,1.5-2.5c1.2-1,3-1.1,4.3-0.3c1.3,0.7,2,2.2,2,3.6
	c0,0.7,0.6,1.1,1.2,1.2c0.9,0.2,1.8-0.7,1.7-1.6c0-3-2.3-5.9-5.3-6.5C23.8,11.3,20.2,13.1,19.1,16.1z M23.8,28.3
	c0,0.8,0.9,1.2,0.8,2c0,0.8-0.1,1.5,0.1,2.3c0.3,0.5,1.1,0.5,1.5,0.1c0.1-1,0-1.9,0.1-2.9c0.2-0.5,0.7-0.7,0.8-1.3
	c0.2-1.1-1.1-2.3-2.2-1.8C24.2,27,23.8,27.7,23.8,28.3z"/>
</svg>