<svg xmlns="http://www.w3.org/2000/svg" xmlns:svg="http://www.w3.org/2000/svg" xmlns:rdf="http://www.w3.org/1999/02/22-rdf-syntax-ns#" xmlns:cc="http://creativecommons.org/ns#" xmlns:dc="http://purl.org/dc/elements/1.1/" id="Layer_1" data-name="Layer 1" viewBox="0 0 477.89997 477.9" width="477.89999" height="477.89999"><defs id="defs879"><style id="style872">.cls-1{font-size:353.73px;font-family:Montserrat-Bold, Montserrat;font-weight:700;}.cls-2{letter-spacing:-0.02em;}.cls-3{letter-spacing:0.04em;}.cls-4{fill:url(#linear-gradient);}.cls-5{fill:#fff;}</style><linearGradient id="linear-gradient" x1="7.6399999" y1="11.92" x2="707.15997" y2="698.48999" gradientUnits="userSpaceOnUse"><stop offset="0" stop-color="#3b916f" id="stop874"></stop><stop offset="1" stop-color="#096aa5" id="stop876"></stop></linearGradient></defs><title id="title881">Coinsult </title><path class="cls-4" d="M 155.66,0 H 477.9 V 322.24 A 155.66,155.66 0 0 1 322.24,477.9 H 0 V 155.66 A 155.66,155.66 0 0 1 155.66,0 Z" id="path893" style="fill:url(#linear-gradient)"></path><path class="cls-5" d="m 377.57,188.06 v 0 l -31.95,14.64 -22.43,10.28 -1,0.45 -30.84,13.93 c 0,-0.12 -0.05,-0.24 -0.09,-0.36 a 51.82,51.82 0 0 0 -10.27,-20.71 l -2.85,-6.23 30.77,-14.1 22.76,-10.43 32.23,-14.77 q 2.68,4.18 5,8.55 l 8.42,18.37 z" id="path895"></path><path class="cls-5" d="m 382.78,272.47 a 145.64,145.64 0 0 1 -10.25,29.22 l -99.93,-17.06 0.94,-5.51 a 51.53,51.53 0 0 0 16,-22.56 z" id="path897"></path><path class="cls-5" d="m 202.66,288.36 -40.37,28.59 -28.86,20.44 a 146.14,146.14 0 0 1 -18.15,-24.55 l 28.71,-20.34 20.17,-14.29 20.86,-14.77 z" id="path899"></path><path class="cls-5" d="m 206.51,162.79 -12.48,27.86 -18.28,-8.19 -23.15,-10.37 -32.59,-14.61 a 145.39,145.39 0 0 1 20.54,-24.25 l 35.56,15.93 27.19,12.2 z" id="path901"></path><path class="cls-5" d="m 348.19,266.56 a 110.78,110.78 0 0 1 -185.9,50.42 111.25,111.25 0 0 1 -18.3,-24.44 l -28.71,20.34 a 145.7,145.7 0 0 0 267.5,-40.41 z" id="path903"></path><path class="cls-5" d="m 176.11,149.16 a 110.84,110.84 0 0 1 169.51,53.55 l 31.95,-14.64 c -0.06,-0.15 -0.11,-0.3 -0.17,-0.44 l -8.42,-18.37 q -2.37,-4.36 -5,-8.55 a 145.85,145.85 0 0 0 -243.91,-3.23 l 32.59,14.61 a 110.75,110.75 0 0 1 23.45,-22.93 z" id="path905"></path><path class="cls-5" d="m 132.2,217.78 a 111.7,111.7 0 0 1 5.26,-18.43 l -32,-14.34 a 146.23,146.23 0 0 0 -3.1,99.32 l 30.36,-21.5 a 110.52,110.52 0 0 1 -0.52,-45.05 z" id="path907"></path><polyline class="cls-5" points="344.02 198.43 321.99 209.5 321.03 209.99 290.81 225.16" id="polyline909"></polyline><path class="cls-5" d="m 183.56,264.22 -19.51,13.82 a 85.61,85.61 0 0 1 -9,-31 l 10.88,-7.7 z" id="path911"></path><path class="cls-5" d="m 198.23,193.12 -12.48,27.86 -25.86,-11.62 a 85.49,85.49 0 0 1 15.48,-26.52 z" id="path913"></path><path class="cls-5" d="m 323.91,262.42 a 86.23,86.23 0 0 1 -159.74,15.84 0.84,0.84 0 0 1 -0.11,-0.21 86.26,86.26 0 0 1 11.33,-95.16 l 0.37,-0.42 A 86.28,86.28 0 0 1 323.19,213 v 0 l -1,0.44 -30.84,13.92 c 0,-0.12 -0.05,-0.24 -0.09,-0.36 a 51.77,51.77 0 1 0 -1.69,29.6 z" id="path915"></path><metadata></metadata></svg>