<svg width="509" height="218" viewBox="0 0 509 218" fill="none" xmlns="http://www.w3.org/2000/svg">
<path d="M98.0455 174V115.818H117.705C122.269 115.818 126 116.642 128.898 118.29C131.814 119.919 133.973 122.125 135.375 124.909C136.777 127.693 137.477 130.799 137.477 134.227C137.477 137.655 136.777 140.771 135.375 143.574C133.992 146.377 131.852 148.612 128.955 150.278C126.057 151.926 122.345 152.75 117.818 152.75H103.727V146.5H117.591C120.716 146.5 123.225 145.96 125.119 144.881C127.013 143.801 128.386 142.343 129.239 140.506C130.11 138.65 130.545 136.557 130.545 134.227C130.545 131.898 130.11 129.814 129.239 127.977C128.386 126.14 127.004 124.701 125.091 123.659C123.178 122.598 120.64 122.068 117.477 122.068H105.091V174H98.0455ZM147.918 174V130.364H154.395V136.955H154.849C155.645 134.795 157.084 133.044 159.168 131.699C161.251 130.354 163.599 129.682 166.213 129.682C166.705 129.682 167.321 129.691 168.06 129.71C168.798 129.729 169.357 129.758 169.736 129.795V136.614C169.509 136.557 168.988 136.472 168.173 136.358C167.378 136.225 166.535 136.159 165.645 136.159C163.524 136.159 161.63 136.604 159.963 137.494C158.315 138.366 157.009 139.578 156.043 141.131C155.096 142.665 154.622 144.417 154.622 146.386V174H147.918ZM194.082 174.909C190.143 174.909 186.687 173.972 183.713 172.097C180.759 170.222 178.448 167.598 176.781 164.227C175.134 160.856 174.31 156.917 174.31 152.409C174.31 147.864 175.134 143.896 176.781 140.506C178.448 137.116 180.759 134.483 183.713 132.608C186.687 130.733 190.143 129.795 194.082 129.795C198.022 129.795 201.469 130.733 204.423 132.608C207.397 134.483 209.707 137.116 211.355 140.506C213.022 143.896 213.855 147.864 213.855 152.409C213.855 156.917 213.022 160.856 211.355 164.227C209.707 167.598 207.397 170.222 204.423 172.097C201.469 173.972 198.022 174.909 194.082 174.909ZM194.082 168.886C197.075 168.886 199.537 168.119 201.469 166.585C203.401 165.051 204.83 163.034 205.759 160.534C206.687 158.034 207.151 155.326 207.151 152.409C207.151 149.492 206.687 146.775 205.759 144.256C204.83 141.737 203.401 139.701 201.469 138.148C199.537 136.595 197.075 135.818 194.082 135.818C191.09 135.818 188.628 136.595 186.696 138.148C184.764 139.701 183.334 141.737 182.406 144.256C181.478 146.775 181.014 149.492 181.014 152.409C181.014 155.326 181.478 158.034 182.406 160.534C183.334 163.034 184.764 165.051 186.696 166.585C188.628 168.119 191.09 168.886 194.082 168.886ZM243.067 130.364V136.045H220.453V130.364H243.067ZM227.044 119.909H233.749V161.5C233.749 163.394 234.023 164.814 234.572 165.761C235.141 166.689 235.86 167.314 236.732 167.636C237.622 167.939 238.559 168.091 239.544 168.091C240.283 168.091 240.889 168.053 241.362 167.977C241.836 167.883 242.214 167.807 242.499 167.75L243.862 173.773C243.408 173.943 242.773 174.114 241.959 174.284C241.144 174.473 240.112 174.568 238.862 174.568C236.968 174.568 235.112 174.161 233.294 173.347C231.495 172.532 229.999 171.292 228.805 169.625C227.631 167.958 227.044 165.856 227.044 163.318V119.909ZM270.411 174.909C266.471 174.909 263.015 173.972 260.041 172.097C257.087 170.222 254.776 167.598 253.109 164.227C251.462 160.856 250.638 156.917 250.638 152.409C250.638 147.864 251.462 143.896 253.109 140.506C254.776 137.116 257.087 134.483 260.041 132.608C263.015 130.733 266.471 129.795 270.411 129.795C274.35 129.795 277.797 130.733 280.751 132.608C283.725 134.483 286.036 137.116 287.683 140.506C289.35 143.896 290.183 147.864 290.183 152.409C290.183 156.917 289.35 160.856 287.683 164.227C286.036 167.598 283.725 170.222 280.751 172.097C277.797 173.972 274.35 174.909 270.411 174.909ZM270.411 168.886C273.403 168.886 275.865 168.119 277.797 166.585C279.729 165.051 281.159 163.034 282.087 160.534C283.015 158.034 283.479 155.326 283.479 152.409C283.479 149.492 283.015 146.775 282.087 144.256C281.159 141.737 279.729 139.701 277.797 138.148C275.865 136.595 273.403 135.818 270.411 135.818C267.418 135.818 264.956 136.595 263.024 138.148C261.092 139.701 259.662 141.737 258.734 144.256C257.806 146.775 257.342 149.492 257.342 152.409C257.342 155.326 257.806 158.034 258.734 160.534C259.662 163.034 261.092 165.051 263.024 166.585C264.956 168.119 267.418 168.886 270.411 168.886ZM318.145 174.909C314.054 174.909 310.531 173.943 307.577 172.011C304.622 170.08 302.349 167.419 300.759 164.028C299.168 160.638 298.372 156.765 298.372 152.409C298.372 147.977 299.187 144.066 300.815 140.676C302.463 137.267 304.755 134.606 307.69 132.693C310.645 130.761 314.092 129.795 318.031 129.795C321.099 129.795 323.865 130.364 326.327 131.5C328.789 132.636 330.806 134.227 332.378 136.273C333.95 138.318 334.925 140.705 335.304 143.432H328.599C328.088 141.443 326.952 139.682 325.19 138.148C323.448 136.595 321.099 135.818 318.145 135.818C315.531 135.818 313.24 136.5 311.27 137.864C309.319 139.208 307.795 141.112 306.696 143.574C305.616 146.017 305.077 148.886 305.077 152.182C305.077 155.553 305.607 158.489 306.668 160.989C307.747 163.489 309.262 165.43 311.213 166.812C313.183 168.195 315.493 168.886 318.145 168.886C319.887 168.886 321.469 168.583 322.889 167.977C324.31 167.371 325.512 166.5 326.497 165.364C327.482 164.227 328.183 162.864 328.599 161.273H335.304C334.925 163.848 333.988 166.169 332.491 168.233C331.014 170.278 329.054 171.907 326.611 173.119C324.187 174.312 321.365 174.909 318.145 174.909ZM362.832 174.909C358.893 174.909 355.437 173.972 352.463 172.097C349.509 170.222 347.198 167.598 345.531 164.227C343.884 160.856 343.06 156.917 343.06 152.409C343.06 147.864 343.884 143.896 345.531 140.506C347.198 137.116 349.509 134.483 352.463 132.608C355.437 130.733 358.893 129.795 362.832 129.795C366.772 129.795 370.219 130.733 373.173 132.608C376.147 134.483 378.457 137.116 380.105 140.506C381.772 143.896 382.605 147.864 382.605 152.409C382.605 156.917 381.772 160.856 380.105 164.227C378.457 167.598 376.147 170.222 373.173 172.097C370.219 173.972 366.772 174.909 362.832 174.909ZM362.832 168.886C365.825 168.886 368.287 168.119 370.219 166.585C372.151 165.051 373.58 163.034 374.509 160.534C375.437 158.034 375.901 155.326 375.901 152.409C375.901 149.492 375.437 146.775 374.509 144.256C373.58 141.737 372.151 139.701 370.219 138.148C368.287 136.595 365.825 135.818 362.832 135.818C359.84 135.818 357.378 136.595 355.446 138.148C353.514 139.701 352.084 141.737 351.156 144.256C350.228 146.775 349.764 149.492 349.764 152.409C349.764 155.326 350.228 158.034 351.156 160.534C352.084 163.034 353.514 165.051 355.446 166.585C357.378 168.119 359.84 168.886 362.832 168.886ZM399.544 115.818V174H392.839V115.818H399.544Z" fill="white"/>
<path d="M34.5043 97V24.2727H52.0824V55.0256H53.0412L77.0824 24.2727H97.7855L72.0043 56.7301L98.2472 97H77.2244L59.1136 68.4134L52.0824 77.2912V97H34.5043ZM108.137 97V42.4545H125.502V97H108.137ZM116.837 36.098C114.399 36.098 112.304 35.2931 110.552 33.6832C108.8 32.0497 107.924 30.0848 107.924 27.7884C107.924 25.5156 108.8 23.5743 110.552 21.9645C112.304 20.331 114.399 19.5142 116.837 19.5142C119.299 19.5142 121.395 20.331 123.123 21.9645C124.875 23.5743 125.751 25.5156 125.751 27.7884C125.751 30.0848 124.875 32.0497 123.123 33.6832C121.395 35.2931 119.299 36.098 116.837 36.098ZM136.555 97V42.4545H153.068V52.4688H153.672C154.808 49.1544 156.725 46.5384 159.424 44.6207C162.123 42.7031 165.343 41.7443 169.083 41.7443C172.871 41.7443 176.115 42.715 178.814 44.6562C181.512 46.5975 183.229 49.2017 183.963 52.4688H184.531C185.549 49.2254 187.538 46.633 190.497 44.6918C193.456 42.7268 196.948 41.7443 200.973 41.7443C206.134 41.7443 210.324 43.4015 213.544 46.7159C216.763 50.0066 218.373 54.5284 218.373 60.2812V97H201.008V64.2585C201.008 61.536 200.31 59.4645 198.913 58.044C197.516 56.5999 195.705 55.8778 193.48 55.8778C191.089 55.8778 189.207 56.6591 187.833 58.2216C186.484 59.7604 185.809 61.8319 185.809 64.4361V97H169.119V64.081C169.119 61.5478 168.432 59.5473 167.059 58.0795C165.686 56.6117 163.875 55.8778 161.626 55.8778C160.111 55.8778 158.773 56.2448 157.613 56.9787C156.453 57.6889 155.542 58.7069 154.879 60.0327C154.24 61.3584 153.92 62.9209 153.92 64.7202V97H136.555ZM244.51 97.9233C241.029 97.9233 237.94 97.3433 235.241 96.1832C232.566 94.9995 230.447 93.224 228.885 90.8565C227.346 88.4654 226.576 85.4706 226.576 81.8722C226.576 78.8419 227.109 76.285 228.174 74.2017C229.24 72.1184 230.708 70.4257 232.578 69.1236C234.448 67.8215 236.602 66.839 239.041 66.1761C241.479 65.4896 244.083 65.0279 246.853 64.7912C249.955 64.5071 252.452 64.2112 254.346 63.9034C256.24 63.572 257.613 63.1103 258.466 62.5185C259.342 61.9029 259.779 61.0388 259.779 59.9261V59.7486C259.779 57.9257 259.152 56.517 257.897 55.5227C256.643 54.5284 254.95 54.0312 252.819 54.0312C250.523 54.0312 248.676 54.5284 247.279 55.5227C245.883 56.517 244.995 57.8902 244.616 59.642L228.6 59.0739C229.074 55.7595 230.293 52.8002 232.258 50.196C234.247 47.5682 236.969 45.5085 240.426 44.017C243.906 42.5019 248.084 41.7443 252.961 41.7443C256.441 41.7443 259.649 42.1586 262.585 42.9872C265.52 43.7921 268.077 44.9759 270.255 46.5384C272.433 48.0772 274.114 49.9711 275.298 52.2202C276.505 54.4692 277.109 57.0379 277.109 59.9261V97H260.774V89.4006H260.348C259.377 91.2472 258.134 92.8097 256.619 94.0881C255.127 95.3665 253.364 96.3253 251.328 96.9645C249.315 97.6037 247.043 97.9233 244.51 97.9233ZM249.872 86.5597C251.742 86.5597 253.423 86.1809 254.914 85.4233C256.43 84.6657 257.637 83.6241 258.537 82.2983C259.436 80.9489 259.886 79.3864 259.886 77.6108V72.4261C259.389 72.6866 258.785 72.9233 258.075 73.1364C257.388 73.3494 256.631 73.5507 255.802 73.7401C254.974 73.9295 254.121 74.0952 253.245 74.2372C252.369 74.3793 251.529 74.5095 250.724 74.6278C249.091 74.8883 247.694 75.2907 246.534 75.8352C245.397 76.3797 244.521 77.09 243.906 77.9659C243.314 78.8182 243.018 79.8362 243.018 81.0199C243.018 82.8191 243.657 84.1922 244.936 85.1392C246.238 86.0862 247.883 86.5597 249.872 86.5597ZM305.092 65.892V97H287.727V42.4545H304.24V52.4688H304.843C306.051 49.1307 308.11 46.5147 311.022 44.6207C313.934 42.7031 317.403 41.7443 321.427 41.7443C325.262 41.7443 328.589 42.6084 331.406 44.3366C334.247 46.0412 336.449 48.4323 338.011 51.5099C339.597 54.5639 340.378 58.1387 340.355 62.2344V97H322.99V65.6435C323.013 62.6132 322.244 60.2457 320.681 58.5412C319.143 56.8366 317 55.9844 314.254 55.9844C312.431 55.9844 310.821 56.3868 309.424 57.1918C308.051 57.973 306.986 59.0975 306.228 60.5653C305.494 62.0331 305.116 63.8087 305.092 65.892ZM376.567 98.0298C370.838 98.0298 365.914 96.858 361.795 94.5142C357.699 92.1468 354.539 88.8561 352.313 84.642C350.112 80.4044 349.011 75.492 349.011 69.9048C349.011 64.294 350.112 59.3816 352.313 55.1676C354.539 50.9299 357.699 47.6392 361.795 45.2955C365.914 42.928 370.838 41.7443 376.567 41.7443C382.297 41.7443 387.209 42.928 391.305 45.2955C395.424 47.6392 398.585 50.9299 400.786 55.1676C403.012 59.3816 404.124 64.294 404.124 69.9048C404.124 75.492 403.012 80.4044 400.786 84.642C398.585 88.8561 395.424 92.1468 391.305 94.5142C387.209 96.858 382.297 98.0298 376.567 98.0298ZM376.674 84.9261C378.757 84.9261 380.521 84.2869 381.965 83.0085C383.409 81.7301 384.51 79.9545 385.268 77.6818C386.049 75.4091 386.44 72.7812 386.44 69.7983C386.44 66.768 386.049 64.1165 385.268 61.8438C384.51 59.571 383.409 57.7955 381.965 56.517C380.521 55.2386 378.757 54.5994 376.674 54.5994C374.52 54.5994 372.697 55.2386 371.205 56.517C369.737 57.7955 368.613 59.571 367.832 61.8438C367.074 64.1165 366.695 66.768 366.695 69.7983C366.695 72.7812 367.074 75.4091 367.832 77.6818C368.613 79.9545 369.737 81.7301 371.205 83.0085C372.697 84.2869 374.52 84.9261 376.674 84.9261Z" fill="#52FF97"/>
</svg>
