<svg class="Avalanche_Icon" viewBox="0 0 465.25011 400.37813" xmlns="http://www.w3.org/2000/svg">
  <defs>
    <style>
      .AvalancheIconPath {
        fill: #e84142;
      }
    </style>
  </defs>
  <path class="AvalancheIconPath" d="M220,.4c7.4-1.4,15.9.5,21.1,6.3,4.5,5.1,7.9,11,11.3,16.8q19.65,34.2,39.2,68.6c5.1,9.2,10.5,18.3,13.4,28.5,4.3,16.4,2.9,34.5-4.9,49.6-7.1,14.3-15.5,28-23.3,41.9Q243.95,269.7,211,327.3c-8,13.7-15.4,27.7-24.1,41-9.5,14.7-24.9,25.1-41.8,29.5-8.6,2.1-17.6,2.1-26.4,2.3-28.7.1-57.3.1-86,0-6.7-.3-13.8-.1-20-3C4.2,392.7-1.2,382.7.2,373.2c1.6-7.6,5.8-14.4,9.5-21.1Q100.15,193.55,190.6,34.9c5-8.5,9.6-17.4,15.5-25.4A22.33922,22.33922,0,0,1,220,.4ZM366.3,234.7a23.77962,23.77962,0,0,1,18.9,3c5.2,3.9,8.6,9.7,12,15.1,19.5,32.9,38.6,66,57.9,99,3.4,6,7,12.1,9.2,18.7,4.1,12.8-5.9,27.9-19.4,28.9-14.7,1.5-29.5.7-44.2.9h-75c-9.4-.2-18.8.4-28.1-1.3-13.5-2.3-22.1-18.8-16.2-31.2,6.4-14.3,15.2-27.4,22.8-41,14.4-24.6,28.6-49.4,43.2-74C352.1,245.4,357,236.7,366.3,234.7Z" transform="translate(0.02039 0.03989)"/>
</svg>
