<svg class="EthereumIcon" viewBox="0 0 200 324.99" xmlns="http://www.w3.org/2000/svg" xmlns:xlink="http://www.w3.org/1999/xlink">
  <defs>
    <style>
      .LightTonePath {
        fill: #6e94f1;
      }
      .MidTonePath {
        fill: #466bc9;
      }
      .DarkTonePath {
        fill: #294eac;
      }
    </style>
  </defs>
  <path class="LightTonePath" d="M37.97,103.38C58.36,69.44,79,35.65,99.25,1.62a12.03546,12.03546,0,0,1,.59,3.81c-.12,38.3.08,76.6-.1,114.89-1.96,1.51-4.39,2.22-6.59,3.28Q51.21,142.605,9.31,161.65C6.4,162.93,3.59,164.49.5,165.3,13.13,144.75,25.45,124,37.97,103.38ZM99.69,325.11c.3-27.07-.02-54.15.16-81.22C66.81,223.97,33.35,204.7.24,184.88,33.21,231.69,66.69,278.27,99.69,325.11Z" transform="translate(0 -0.51)"/>
  <path class="MidTonePath" d="M99.25,1.62c.18-.28.54-.83.72-1.11C133,55.6,166.4,110.49,199.46,165.57c-29.98-13.48-59.88-27.15-89.82-40.72-3.25-1.36-6.33-3.41-9.87-3.86.19,34.67-.23,69.35.21,104.02C66.75,205.08,33.13,185.78,0,165.71v-.12l.5-.29c3.09-.81,5.9-2.37,8.81-3.65q41.91-19.035,83.84-38.05c2.2-1.06,4.63-1.77,6.59-3.28.18-38.29-.02-76.59.1-114.89A12.03546,12.03546,0,0,0,99.25,1.62Zm.44,323.49.26.39h.89l-.77-.24q49.815-70.23,99.78-140.38-49.95,29.595-100,59.01C99.67,270.96,99.99,298.04,99.69,325.11Z" transform="translate(0 -0.51)"/>
  <path class="DarkTonePath" d="M99.77,120.99c3.54.45,6.62,2.5,9.87,3.86,29.94,13.57,59.84,27.24,89.82,40.72l.54-.73v.81c-33.11,20.14-66.79,39.41-100.02,59.36C99.54,190.34,99.96,155.66,99.77,120.99Z" transform="translate(0 -0.51)"/>
</svg>