<?xml version="1.0" encoding="iso-8859-1"?>
<svg version="1.1" id="Layer_1" xmlns="http://www.w3.org/2000/svg" xmlns:xlink="http://www.w3.org/1999/xlink" x="0px" y="0px"
	 viewBox="0 0 512.001 512.001" style="enable-background:new 0 0 512.001 512.001;" xml:space="preserve">
	 <defs>
<style>
 path{
 fill:white
 }
</style>
</defs>
	<g>
		<path d="M503.578,408.064L313.866,218.353c9.902-26.733,12.558-55.505,7.656-83.897c-5.702-33.026-21.283-63.05-45.057-86.824
			c-63.143-63.144-165.887-63.144-229.031,0C16.846,78.22,0,118.89,0,162.148s16.846,83.927,47.435,114.515
			c25.115,25.117,56.941,40.977,92.033,45.869c28.01,3.906,56.901,0.298,83.022-10.169l18.352,40.593l53.227,24.066l24.065,53.226
			l53.233,24.069l25.959,57.411l114.675-1.118L503.578,408.064z M418.754,478.165l-22.18-49.052l-53.23-24.069l-24.065-53.226
			l-53.228-24.066l-27.475-60.771l-15.735,8.465c-23.831,12.819-51.804,17.812-78.767,14.053
			c-27.848-3.881-53.11-16.475-73.054-36.419c-24.289-24.289-37.665-56.583-37.665-90.933c0-34.35,13.376-66.642,37.664-90.931
			c50.141-50.137,131.724-50.139,181.862,0c18.879,18.879,31.25,42.71,35.774,68.915c4.428,25.649,1.103,51.675-9.616,75.258
			l-4.783,10.522l197.083,197.081l4.485,54.616L418.754,478.165z"/>
	</g>
	<g>
		<path d="M185.753,101.917c-23.168-23.166-60.864-23.166-84.034,0c-23.168,23.169-23.168,60.866,0,84.035
			c11.584,11.584,26.801,17.376,42.017,17.376c15.216,0,30.433-5.792,42.017-17.376
			C208.921,162.783,208.921,125.086,185.753,101.917z M162.17,162.369c-10.164,10.163-26.702,10.163-36.865,0
			c-10.164-10.164-10.164-26.703,0-36.866c5.082-5.082,11.757-7.621,18.434-7.621c6.674,0,13.352,2.54,18.432,7.621
			C172.333,135.666,172.333,152.205,162.17,162.369z"/>
	</g>
</svg>
