<svg xmlns="http://www.w3.org/2000/svg" viewBox="0 0 308 303" version="1.1">
<path d="M 185 13.500 C 185 14.735, 186.809 15.002, 195.250 15.009 C 200.887 15.013, 207.863 15.301, 210.750 15.648 C 215.035 16.163, 216 16.002, 216 14.775 C 216 12.822, 210.033 12, 195.860 12 C 186.873 12, 185 12.259, 185 13.500 M 187.812 35.750 C 187.495 49.660, 187.946 53.383, 189.733 51.603 C 190.155 51.183, 190.645 44.125, 190.822 35.919 C 191.097 23.189, 190.924 21, 189.646 21 C 188.398 21, 188.091 23.463, 187.812 35.750 M 101.239 29.220 C 101.549 30.155, 105.242 30.575, 114.925 30.780 C 125.348 30.999, 128.095 30.785, 127.761 29.780 C 127.451 28.845, 123.758 28.425, 114.075 28.220 C 103.652 28.001, 100.905 28.215, 101.239 29.220 M 121.610 40.199 C 120.496 45.770, 120.880 50, 122.500 50 C 123.486 50, 124 49.014, 124 47.125 C 124 45.544, 124.268 42.909, 124.596 41.269 C 125.021 39.145, 124.765 38.124, 123.706 37.718 C 122.654 37.314, 122.042 38.038, 121.610 40.199 M 139.713 61.021 C 107.356 66.146, 79.578 88.299, 67.992 118.216 C 63.924 128.719, 62 139.407, 62 151.500 C 62 175.831, 70.397 197.018, 86.878 214.267 C 114.346 243.018, 156.387 250.941, 191.759 234.031 C 202.404 228.943, 207.903 225.150, 216.362 217.061 C 234.918 199.316, 244 177.699, 244 151.274 C 244 127.217, 235.307 105.593, 218.637 88.181 C 207.255 76.294, 191.441 67.052, 175.500 62.973 C 166.305 60.620, 148.405 59.644, 139.713 61.021 M 155 66.228 C 155 68.618, 155.356 68.776, 162.250 69.433 C 177.358 70.873, 188.679 75.198, 200.228 83.940 C 203.896 86.717, 208.322 90.763, 210.064 92.931 C 212.808 96.344, 213.484 96.715, 215.116 95.696 C 216.152 95.048, 217 94.012, 217 93.392 C 217 91.008, 201.345 77.408, 194.500 73.846 C 184.817 68.806, 171.959 64.928, 162.750 64.269 L 155 63.714 155 66.228 M 124.428 68.500 C 113.445 71.462, 102.992 77.271, 94 85.409 C 88.369 90.505, 81.048 98.852, 78.758 102.787 C 77.046 105.729, 77.058 105.808, 79.430 107.362 C 81.794 108.911, 81.896 108.853, 84.477 104.449 C 93.114 89.712, 111.298 76.919, 129.250 72.952 C 134.251 71.847, 135 71.377, 135 69.341 C 135 66.553, 132.410 66.347, 124.428 68.500 M 156.476 80.075 C 156.114 81.217, 155.971 82.287, 156.159 82.454 C 156.346 82.621, 160.325 83.497, 165 84.401 C 181.346 87.561, 199.524 99.048, 208.362 111.801 C 210.392 114.731, 211.632 115.647, 213.060 115.274 C 215.706 114.582, 215.500 112.990, 212.172 108.400 C 207.235 101.590, 195.542 91.644, 187.385 87.316 C 179.645 83.209, 164.029 78, 159.456 78 C 157.985 78, 156.893 78.760, 156.476 80.075 M 125.631 83.488 C 109.397 90.086, 95.115 104.164, 86.574 121.986 C 83.917 127.529, 83.335 129.594, 84.261 130.183 C 87.086 131.977, 88.569 130.848, 90.744 125.250 C 96.389 110.721, 108.954 97.258, 123.718 89.919 C 128.548 87.518, 132.622 85.495, 132.771 85.422 C 132.921 85.350, 132.695 84.349, 132.269 83.198 L 131.495 81.105 125.631 83.488 M 277.667 88.667 C 277.300 89.033, 277 94.883, 277 101.667 C 277 111.963, 277.248 114, 278.500 114 C 279.756 114, 280 111.889, 280 101 C 280 89.114, 279.558 86.776, 277.667 88.667 M 191.021 108.125 C 180.484 109.345, 173.290 111.621, 171.578 114.276 C 170.790 115.499, 168.301 121.149, 166.048 126.832 C 158.111 146.848, 153.886 153.303, 145.626 158.041 C 142.101 160.063, 139.095 160.994, 136 161.022 C 131.825 161.061, 131.640 161.170, 133.441 162.532 C 134.509 163.339, 137.111 164, 139.223 164 C 149.574 164, 157.316 156.541, 164.908 139.254 C 167.866 132.519, 170.784 126.613, 171.393 126.130 C 172.002 125.647, 174.528 124.959, 177.007 124.601 C 179.486 124.243, 183.835 122.875, 186.671 121.561 C 191.923 119.128, 202 110.334, 202 108.184 C 202 106.881, 201.780 106.880, 191.021 108.125 M 10 123.500 C 10 136.611, 10.231 139, 11.500 139 C 12.769 139, 13 136.611, 13 123.500 C 13 110.389, 12.769 108, 11.500 108 C 10.231 108, 10 110.389, 10 123.500 M 251.638 110.500 C 252.093 111.686, 254.180 112, 261.607 112 C 269.290 112, 271 111.727, 271 110.500 C 271 109.267, 269.226 109, 261.031 109 C 252.581 109, 251.150 109.228, 251.638 110.500 M 227.635 112.278 C 226.003 113.471, 226.122 114.051, 229.417 121.028 C 234.532 131.857, 236.338 139.834, 236.315 151.500 C 236.301 158.603, 235.673 163.748, 234.148 169.261 C 231.560 178.611, 231.576 177.703, 233.977 178.988 C 235.702 179.911, 236.147 179.585, 237.466 176.427 C 242.418 164.575, 243.054 147.318, 239.107 131.907 C 236.982 123.610, 231.642 111, 230.254 111 C 229.774 111, 228.596 111.575, 227.635 112.278 M 134.500 117.113 C 125.935 119.525, 124.260 121.244, 127.037 124.775 C 128.117 126.147, 128.999 128.447, 128.998 129.885 C 128.996 131.323, 126.294 144.875, 122.993 160 C 118.790 179.259, 116.392 188.249, 114.990 190 C 107.743 199.054, 108.153 200, 119.332 200 C 132.388 200, 144 197.335, 144 194.338 C 144 193.558, 143.033 191.612, 141.852 190.014 C 139.646 187.029, 139.602 183.569, 141.621 171.750 C 142.228 168.195, 142.123 168, 139.599 168 C 133.664 168, 125.991 162.420, 126.006 158.115 C 126.037 148.907, 134.053 140.350, 146.095 136.669 C 146.972 136.401, 148.282 134.064, 149.007 131.475 C 149.732 128.887, 152.052 124.470, 154.162 121.661 C 156.273 118.852, 158 116.204, 158 115.777 C 158 114.209, 141.478 115.148, 134.500 117.113 M 66.823 132.250 C 63.807 142.036, 63.846 157.979, 66.914 169.500 C 69.207 178.113, 75.738 193, 77.223 193 C 77.723 193, 78.981 192.545, 80.019 191.990 C 81.801 191.036, 81.686 190.571, 77.954 183.652 C 70.211 169.297, 67.795 149.398, 71.890 133.695 C 73.585 127.192, 73.586 126.849, 71.898 125.945 C 70.926 125.425, 69.890 125, 69.595 125 C 69.299 125, 68.052 128.262, 66.823 132.250 M 219.552 132.916 C 219.240 133.420, 219.492 136.197, 220.112 139.086 C 220.765 142.131, 221.036 148.998, 220.756 155.420 C 220.353 164.682, 219.745 167.933, 217.050 175.230 C 215.276 180.032, 212.108 186.617, 210.010 189.863 C 206.555 195.209, 206.342 195.913, 207.753 197.325 C 209.164 198.736, 209.593 198.534, 212.290 195.191 C 216.230 190.309, 221.524 179.074, 223.690 171 C 225.545 164.089, 226.233 140.120, 224.731 134.750 C 223.971 132.032, 220.794 130.907, 219.552 132.916 M 19 134.527 C 19 135.839, 21.061 136.015, 33.668 135.777 C 44.310 135.576, 48.450 135.157, 48.751 134.250 C 49.071 133.287, 45.705 133, 34.083 133 C 21.225 133, 19 133.225, 19 134.527 M 144 142.800 C 144 143.240, 144.450 144.140, 145 144.800 C 145.727 145.673, 145.673 145.727, 144.800 145 C 143.024 143.520, 141 143.787, 141 145.500 C 141 146.325, 141.450 147, 142 147 C 142.550 147, 143 147.675, 143 148.500 C 143 150.382, 139.400 150.484, 138.685 148.622 C 138.394 147.864, 138.684 146.659, 139.328 145.945 C 139.973 145.231, 139.078 145.739, 137.340 147.074 C 135.603 148.408, 133.678 150.400, 133.064 151.500 C 131.998 153.411, 131.967 153.399, 132.380 151.250 C 132.923 148.425, 132.402 148.381, 130.932 151.127 C 130.068 152.742, 130.084 153.434, 131 154 C 131.934 154.577, 131.939 155.246, 131.022 156.958 C 129.482 159.837, 130.366 160.610, 133.543 159.162 C 134.946 158.523, 137.581 158, 139.399 158 C 143.189 158, 148.364 154.816, 151.408 150.610 C 152.915 148.528, 153.150 147.596, 152.250 147.277 C 151.563 147.033, 151 146.394, 151 145.858 C 151 145.321, 151.563 145.220, 152.250 145.633 C 153.247 146.232, 153.249 146.074, 152.259 144.850 C 151.576 144.006, 151.313 143.020, 151.675 142.658 C 152.037 142.296, 150.458 142, 148.167 142 C 145.875 142, 144 142.360, 144 142.800 M 82 153.770 C 82 171.210, 90.085 190.835, 102.904 204.513 C 107.514 209.431, 108.167 209.708, 109.984 207.519 C 111.003 206.292, 110.189 204.922, 105.219 199.497 C 94.616 187.926, 88.347 172.745, 87.150 155.743 C 86.546 147.149, 86.342 146.478, 84.250 146.180 C 82.079 145.872, 82 146.140, 82 153.770 M 145.078 150.727 C 144.124 152.822, 143.401 153.149, 140.473 152.807 C 138.158 152.537, 137 152.815, 137 153.642 C 137 155.983, 138.888 156.041, 143.898 153.853 C 149.324 151.484, 150.940 149.479, 148.036 148.720 C 146.792 148.394, 145.850 149.034, 145.078 150.727 M 158.500 157.289 C 157.204 159.369, 154.109 161.700, 149.708 163.910 L 142.916 167.320 155.708 180.400 C 162.743 187.595, 169.175 193.791, 170 194.170 C 173.873 195.950, 188.910 194.490, 191.297 192.103 C 192.035 191.365, 189.515 188.119, 182.894 181.275 C 177.692 175.899, 170.586 167.563, 167.102 162.750 C 163.618 157.938, 160.707 154.017, 160.633 154.039 C 160.560 154.060, 159.600 155.522, 158.500 157.289 M 295 186.893 C 295 199.209, 295.260 201.886, 296.500 202.362 C 297.793 202.858, 298 200.808, 298 187.469 C 298 174.385, 297.769 172, 296.500 172 C 295.234 172, 295 174.321, 295 186.893 M 257 176.500 C 257 177.771, 259.444 178, 273 178 C 286.556 178, 289 177.771, 289 176.500 C 289 175.229, 286.556 175, 273 175 C 259.444 175, 257 175.229, 257 176.500 M 222.311 198.865 C 215.877 210.001, 204.980 219.756, 192.500 225.555 C 186.132 228.514, 182.885 229.587, 174.750 231.419 C 172.655 231.891, 172 232.629, 172 234.519 C 172 237.512, 172.561 237.542, 182.234 235.068 C 194.499 231.931, 205.241 225.719, 215.842 215.631 C 220.376 211.316, 229 199.947, 229 198.284 C 229 197.754, 227.968 196.851, 226.706 196.276 C 224.661 195.344, 224.184 195.625, 222.311 198.865 M 28.540 196.936 C 28.222 197.450, 28.262 203.486, 28.628 210.348 C 29.157 220.231, 29.576 222.716, 30.648 222.305 C 32.155 221.726, 32.426 214.163, 31.348 202.750 C 30.752 196.440, 29.916 194.709, 28.540 196.936 M 38 200.500 C 38 201.742, 39.885 202, 48.969 202 C 58.308 202, 59.852 201.777, 59.362 200.500 C 58.901 199.300, 56.709 199, 48.393 199 C 39.821 199, 38 199.263, 38 200.500 M 91.461 208.405 C 89.643 209.734, 89.925 210.187, 96.721 216.863 C 102.461 222.501, 105.969 224.917, 114.201 228.901 C 126.289 234.752, 133.452 236.807, 144.750 237.668 L 153 238.297 153 235.282 L 153 232.267 143.250 231.741 C 126.548 230.839, 113.730 225.238, 100.930 213.250 C 97.260 209.813, 94.060 207, 93.820 207 C 93.579 207, 92.518 207.632, 91.461 208.405 M 186.500 211.578 C 173.165 219.543, 149.672 221.706, 133.790 216.430 C 129.110 214.876, 128.803 214.886, 127.509 216.648 C 126.307 218.284, 126.424 218.646, 128.514 219.750 C 136.482 223.962, 156.559 225.370, 169.667 222.637 C 176.945 221.119, 188.751 216.822, 192.730 214.242 C 194.516 213.084, 194.758 212.417, 193.945 210.898 C 192.662 208.500, 191.470 208.609, 186.500 211.578 M 198.667 247.667 C 198.300 248.033, 198 252.308, 198 257.167 C 198 264.352, 198.280 266, 199.500 266 C 200.728 266, 201 264.278, 201 256.500 C 201 247.792, 200.486 245.847, 198.667 247.667 M 132 269.615 C 132 280.811, 132.288 284.071, 133.250 283.751 C 134.149 283.453, 134.578 279.533, 134.777 269.786 C 135.011 258.381, 134.813 256.142, 133.527 255.649 C 132.201 255.140, 132 256.974, 132 269.615 M 195 273.500 C 195 274.756, 197.111 275, 208 275 C 218.889 275, 221 274.756, 221 273.500 C 221 272.244, 218.889 272, 208 272 C 197.111 272, 195 272.244, 195 273.500 M 107 291.526 C 107 292.839, 109.116 293.014, 122.168 292.776 C 133.211 292.575, 137.449 292.160, 137.751 291.250 C 138.072 290.286, 134.605 290, 122.583 290 C 109.280 290, 107 290.223, 107 291.526" stroke="none" fill="#1c0e0d" fill-rule="evenodd"/><path d="M 221.567 4.946 C 218.210 7.160, 216.087 10.515, 216.035 13.689 C 216 15.849, 215.835 15.871, 203.250 15.405 C 196.238 15.145, 188.867 14.773, 186.871 14.577 C 183.255 14.224, 183.239 14.240, 182.621 18.751 C 182.279 21.241, 182 29.097, 182 36.207 C 182 48.047, 181.853 49.092, 180.250 48.624 C 177.734 47.891, 167.026 46.057, 163.500 45.756 C 160.744 45.521, 160.475 45.161, 160.197 41.334 C 159.948 37.915, 160.247 37.057, 161.864 36.543 C 165.606 35.356, 168.955 31.881, 169.962 28.141 C 171.913 20.895, 167.939 13.869, 160.804 11.947 C 155.734 10.582, 148.858 13.440, 146.571 17.863 C 143.572 23.662, 145.347 32.510, 150.010 35.006 C 152.744 36.469, 152.948 44.983, 150.250 45.031 C 147.357 45.082, 133.715 46.956, 131.792 47.566 C 130.165 48.082, 130 47.349, 130 39.595 L 130 31.055 115.750 30.777 C 101.896 30.508, 101.491 30.438, 101.185 28.284 C 100.816 25.689, 95.901 21.264, 92.416 20.390 C 85.727 18.711, 77.837 23.726, 76.573 30.460 C 75.660 35.328, 78.816 42.336, 82.863 44.429 C 88.630 47.411, 95.645 45.810, 99.767 40.569 C 101.610 38.226, 102.286 38.090, 112.905 37.933 C 119.062 37.841, 124.280 37.947, 124.500 38.167 C 124.720 38.387, 124.645 41.041, 124.333 44.066 L 123.765 49.565 116.133 52.275 C 94.185 60.068, 74.457 76.535, 61.728 97.688 C 56.466 106.433, 50.362 122.368, 49.214 130.357 L 48.475 135.500 33.987 135.773 L 19.500 136.045 19.500 121.717 C 19.500 107.657, 19.550 107.330, 22.165 104.219 C 27.248 98.172, 26.707 90.456, 20.857 85.533 C 15.297 80.854, 5.405 82.659, 1.636 89.040 C -2.840 96.616, 2.316 108, 10.223 108 L 13 108 13 124.500 L 13 141 29.938 141 L 46.875 141 47.188 152.002 L 47.500 163.004 41.817 163.002 C 37.057 163, 36.034 162.683, 35.514 161.044 C 34.584 158.114, 29.392 154.164, 25.514 153.437 C 21.346 152.655, 15.545 155.246, 12.678 159.171 C 8.771 164.521, 11.096 174.447, 16.967 177.483 C 22.772 180.485, 30.551 178.731, 34.325 173.570 C 36.163 171.057, 49 169.956, 49 172.311 C 49 173.635, 53.017 187.275, 54.694 191.646 C 55.077 192.644, 52.514 192.999, 43.344 193.217 L 31.500 193.500 31.864 207.635 L 32.228 221.770 28.696 222.935 C 22.524 224.972, 19.563 232.625, 22.359 239.316 C 25.907 247.810, 37.322 249.590, 43.688 242.643 C 46.357 239.731, 46.999 238.201, 46.996 234.765 C 46.992 229.759, 44.113 224.464, 40.502 222.819 C 38.047 221.700, 38 221.467, 38 210.339 L 38 199 48.433 199 C 57.900 199, 58.923 199.181, 59.485 200.951 C 60.715 204.830, 69.844 217.761, 75.988 224.328 C 79.442 228.021, 85.245 233.284, 88.884 236.025 C 101.712 245.688, 122.126 254.634, 134.278 255.918 C 134.706 255.963, 134.931 262.145, 134.778 269.656 L 134.500 283.312 120 283.102 C 107.319 282.919, 105.312 282.663, 104 281.064 C 98.109 273.879, 85.180 276.529, 82.180 285.537 C 78.695 296.002, 89.196 305.870, 99.316 301.641 C 103.004 300.100, 106.989 294.967, 106.996 291.750 C 107 290.154, 108.454 290, 123.500 290 L 140 290 140 273.369 L 140 256.738 143.750 257.358 C 145.813 257.699, 150.762 257.983, 154.750 257.989 L 162 258 162 262.433 C 162 265.844, 161.580 266.999, 160.176 267.444 C 156.760 268.528, 152.858 273.638, 152.307 277.749 C 151.497 283.790, 154.287 288.797, 159.828 291.248 C 163.601 292.917, 164.881 293.052, 168.013 292.114 C 175.096 289.992, 179.252 283.123, 177.551 276.348 C 177.183 274.882, 175.312 272.112, 173.394 270.194 C 170.219 267.019, 169.932 266.260, 170.203 261.747 L 170.500 256.788 179.500 254.489 C 184.450 253.225, 189.287 251.874, 190.250 251.488 C 191.851 250.846, 192 251.690, 192 261.393 L 192 272 206.500 272 C 218.375 272, 221 272.258, 221 273.423 C 221 275.944, 226.027 280.913, 229.564 281.890 C 242.031 285.332, 251.401 269.674, 242.313 260.586 C 236.797 255.070, 228.465 255.429, 223.214 261.409 L 220.263 264.770 209.132 265.151 L 198 265.532 198 256.783 L 198 248.034 203.250 245.387 C 217.286 238.312, 232.793 224.557, 241.972 211.042 C 247.488 202.919, 253.536 189.980, 255.734 181.600 L 257.465 175 273.232 175 L 289 175 289 189.106 C 289 202.849, 288.938 203.261, 286.572 205.122 C 281.103 209.424, 280.858 218.704, 286.077 223.923 C 296.219 234.065, 313.172 221.902, 306.602 209.198 C 304.184 204.521, 301.180 202.565, 295.664 202.074 C 295.204 202.033, 294.979 194.575, 295.164 185.499 L 295.500 168.998 277.119 168.999 L 258.738 169 259.358 165.250 C 259.699 163.188, 259.983 158.238, 259.989 154.250 L 260 147 266.500 147 C 271.580 147, 273 147.324, 273 148.484 C 273 149.301, 274.313 151.438, 275.918 153.234 C 278.605 156.242, 279.315 156.500, 284.899 156.500 C 290.369 156.500, 291.270 156.191, 294.119 153.343 C 298.501 148.960, 299.217 142.035, 295.809 137 C 292.385 131.942, 286.456 130.172, 280.522 132.438 C 278.124 133.354, 275.440 135.205, 274.558 136.552 C 273.119 138.748, 272.263 139, 266.227 138.997 L 259.500 138.993 257.763 130.247 C 256.807 125.436, 255.742 120.487, 255.396 119.250 C 254.770 117.012, 254.826 117, 266.133 117.001 L 277.500 117.001 277.155 103.054 L 276.811 89.106 280.383 87.613 C 284.442 85.917, 287.991 80.839, 287.996 76.718 C 288.002 72.589, 285.509 67.379, 282.622 65.488 C 270.848 57.774, 256.525 71.525, 264.275 83.102 C 265.526 84.971, 267.551 86.944, 268.775 87.487 C 270.893 88.427, 271 89.039, 271 100.237 L 271 112 261.750 111.973 L 252.500 111.946 248.766 104.056 C 241.948 89.647, 227.942 73.462, 214.262 64.182 C 207.226 59.409, 196.886 54.093, 191.500 52.478 C 188.872 51.691, 187.529 50.717, 187.583 49.640 C 187.629 48.738, 187.741 42.038, 187.833 34.750 L 187.999 21.500 202.249 21.833 C 216.414 22.163, 216.518 22.183, 219.527 25.063 C 227.654 32.841, 241 27.412, 241 16.328 C 241 8.350, 235.912 2.994, 228.346 3.007 C 226.231 3.010, 223.180 3.883, 221.567 4.946 M 139.028 60.073 C 102.641 66.554, 73.943 92.302, 63.876 127.500 C 61.313 136.462, 60.329 155.802, 61.917 166 C 64.689 183.793, 72.906 200.478, 85.438 213.756 C 98.139 227.214, 111.185 235.325, 128.712 240.663 C 136.554 243.051, 139.168 243.347, 153 243.408 C 166.126 243.467, 169.802 243.129, 177 241.198 C 206.276 233.348, 231.379 210.265, 241.102 182.254 C 247.726 163.171, 247.759 139.917, 241.188 120.996 C 231.317 92.570, 206.240 69.676, 176.500 61.939 C 167.254 59.534, 147.561 58.553, 139.028 60.073 M 155 66.228 C 155 68.618, 155.356 68.776, 162.250 69.433 C 177.358 70.873, 188.679 75.198, 200.228 83.940 C 203.896 86.717, 208.322 90.763, 210.064 92.931 C 212.808 96.344, 213.484 96.715, 215.116 95.696 C 216.152 95.048, 217 94.012, 217 93.392 C 217 91.008, 201.345 77.408, 194.500 73.846 C 184.817 68.806, 171.959 64.928, 162.750 64.269 L 155 63.714 155 66.228 M 124.428 68.500 C 113.445 71.462, 102.992 77.271, 94 85.409 C 88.369 90.505, 81.048 98.852, 78.758 102.787 C 77.046 105.729, 77.058 105.808, 79.430 107.362 C 81.794 108.911, 81.896 108.853, 84.477 104.449 C 93.114 89.712, 111.298 76.919, 129.250 72.952 C 134.251 71.847, 135 71.377, 135 69.341 C 135 66.553, 132.410 66.347, 124.428 68.500 M 156.476 80.075 C 156.114 81.217, 155.971 82.287, 156.159 82.454 C 156.346 82.621, 160.325 83.497, 165 84.401 C 181.346 87.561, 199.524 99.048, 208.362 111.801 C 210.392 114.731, 211.632 115.647, 213.060 115.274 C 215.706 114.582, 215.500 112.990, 212.172 108.400 C 207.235 101.590, 195.542 91.644, 187.385 87.316 C 179.645 83.209, 164.029 78, 159.456 78 C 157.985 78, 156.893 78.760, 156.476 80.075 M 125.631 83.488 C 109.397 90.086, 95.115 104.164, 86.574 121.986 C 83.917 127.529, 83.335 129.594, 84.261 130.183 C 87.086 131.977, 88.569 130.848, 90.744 125.250 C 96.389 110.721, 108.954 97.258, 123.718 89.919 C 128.548 87.518, 132.622 85.495, 132.771 85.422 C 132.921 85.350, 132.695 84.349, 132.269 83.198 L 131.495 81.105 125.631 83.488 M 191.021 108.125 C 180.484 109.345, 173.290 111.621, 171.578 114.276 C 170.790 115.499, 168.301 121.149, 166.048 126.832 C 158.111 146.848, 153.886 153.303, 145.626 158.041 C 142.101 160.063, 139.095 160.994, 136 161.022 C 131.825 161.061, 131.640 161.170, 133.441 162.532 C 134.509 163.339, 137.111 164, 139.223 164 C 149.574 164, 157.316 156.541, 164.908 139.254 C 167.866 132.519, 170.784 126.613, 171.393 126.130 C 172.002 125.647, 174.528 124.959, 177.007 124.601 C 179.486 124.243, 183.835 122.875, 186.671 121.561 C 191.923 119.128, 202 110.334, 202 108.184 C 202 106.881, 201.780 106.880, 191.021 108.125 M 227.635 112.278 C 226.003 113.471, 226.122 114.051, 229.417 121.028 C 234.532 131.857, 236.338 139.834, 236.315 151.500 C 236.301 158.603, 235.673 163.748, 234.148 169.261 C 231.560 178.611, 231.576 177.703, 233.977 178.988 C 235.702 179.911, 236.147 179.585, 237.466 176.427 C 242.418 164.575, 243.054 147.318, 239.107 131.907 C 236.982 123.610, 231.642 111, 230.254 111 C 229.774 111, 228.596 111.575, 227.635 112.278 M 134.500 117.113 C 125.935 119.525, 124.260 121.244, 127.037 124.775 C 128.117 126.147, 128.999 128.447, 128.998 129.885 C 128.996 131.323, 126.294 144.875, 122.993 160 C 118.790 179.259, 116.392 188.249, 114.990 190 C 107.743 199.054, 108.153 200, 119.332 200 C 132.388 200, 144 197.335, 144 194.338 C 144 193.558, 143.033 191.612, 141.852 190.014 C 139.646 187.029, 139.602 183.569, 141.621 171.750 C 142.228 168.195, 142.123 168, 139.599 168 C 133.664 168, 125.991 162.420, 126.006 158.115 C 126.037 148.907, 134.053 140.350, 146.095 136.669 C 146.972 136.401, 148.282 134.064, 149.007 131.475 C 149.732 128.887, 152.052 124.470, 154.162 121.661 C 156.273 118.852, 158 116.204, 158 115.777 C 158 114.209, 141.478 115.148, 134.500 117.113 M 66.823 132.250 C 63.807 142.036, 63.846 157.979, 66.914 169.500 C 69.207 178.113, 75.738 193, 77.223 193 C 77.723 193, 78.981 192.545, 80.019 191.990 C 81.801 191.036, 81.686 190.571, 77.954 183.652 C 70.211 169.297, 67.795 149.398, 71.890 133.695 C 73.585 127.192, 73.586 126.849, 71.898 125.945 C 70.926 125.425, 69.890 125, 69.595 125 C 69.299 125, 68.052 128.262, 66.823 132.250 M 219.552 132.916 C 219.240 133.420, 219.492 136.197, 220.112 139.086 C 220.765 142.131, 221.036 148.998, 220.756 155.420 C 220.353 164.682, 219.745 167.933, 217.050 175.230 C 215.276 180.032, 212.108 186.617, 210.010 189.863 C 206.555 195.209, 206.342 195.913, 207.753 197.325 C 209.164 198.736, 209.593 198.534, 212.290 195.191 C 216.230 190.309, 221.524 179.074, 223.690 171 C 225.545 164.089, 226.233 140.120, 224.731 134.750 C 223.971 132.032, 220.794 130.907, 219.552 132.916 M 144 142.800 C 144 143.240, 144.450 144.140, 145 144.800 C 145.727 145.673, 145.673 145.727, 144.800 145 C 143.024 143.520, 141 143.787, 141 145.500 C 141 146.325, 141.450 147, 142 147 C 142.550 147, 143 147.675, 143 148.500 C 143 150.382, 139.400 150.484, 138.685 148.622 C 138.394 147.864, 138.684 146.659, 139.328 145.945 C 139.973 145.231, 139.078 145.739, 137.340 147.074 C 135.603 148.408, 133.678 150.400, 133.064 151.500 C 131.998 153.411, 131.967 153.399, 132.380 151.250 C 132.923 148.425, 132.402 148.381, 130.932 151.127 C 130.068 152.742, 130.084 153.434, 131 154 C 131.934 154.577, 131.939 155.246, 131.022 156.958 C 129.482 159.837, 130.366 160.610, 133.543 159.162 C 134.946 158.523, 137.581 158, 139.399 158 C 143.189 158, 148.364 154.816, 151.408 150.610 C 152.915 148.528, 153.150 147.596, 152.250 147.277 C 151.563 147.033, 151 146.394, 151 145.858 C 151 145.321, 151.563 145.220, 152.250 145.633 C 153.247 146.232, 153.249 146.074, 152.259 144.850 C 151.576 144.006, 151.313 143.020, 151.675 142.658 C 152.037 142.296, 150.458 142, 148.167 142 C 145.875 142, 144 142.360, 144 142.800 M 82 153.770 C 82 171.210, 90.085 190.835, 102.904 204.513 C 107.514 209.431, 108.167 209.708, 109.984 207.519 C 111.003 206.292, 110.189 204.922, 105.219 199.497 C 94.616 187.926, 88.347 172.745, 87.150 155.743 C 86.546 147.149, 86.342 146.478, 84.250 146.180 C 82.079 145.872, 82 146.140, 82 153.770 M 145.078 150.727 C 144.124 152.822, 143.401 153.149, 140.473 152.807 C 138.158 152.537, 137 152.815, 137 153.642 C 137 155.983, 138.888 156.041, 143.898 153.853 C 149.324 151.484, 150.940 149.479, 148.036 148.720 C 146.792 148.394, 145.850 149.034, 145.078 150.727 M 158.500 157.289 C 157.204 159.369, 154.109 161.700, 149.708 163.910 L 142.916 167.320 155.708 180.400 C 162.743 187.595, 169.175 193.791, 170 194.170 C 173.873 195.950, 188.910 194.490, 191.297 192.103 C 192.035 191.365, 189.515 188.119, 182.894 181.275 C 177.692 175.899, 170.586 167.563, 167.102 162.750 C 163.618 157.938, 160.707 154.017, 160.633 154.039 C 160.560 154.060, 159.600 155.522, 158.500 157.289 M 222.311 198.865 C 215.877 210.001, 204.980 219.756, 192.500 225.555 C 186.132 228.514, 182.885 229.587, 174.750 231.419 C 172.655 231.891, 172 232.629, 172 234.519 C 172 237.512, 172.561 237.542, 182.234 235.068 C 194.499 231.931, 205.241 225.719, 215.842 215.631 C 220.376 211.316, 229 199.947, 229 198.284 C 229 197.754, 227.968 196.851, 226.706 196.276 C 224.661 195.344, 224.184 195.625, 222.311 198.865 M 91.461 208.405 C 89.643 209.734, 89.925 210.187, 96.721 216.863 C 102.461 222.501, 105.969 224.917, 114.201 228.901 C 126.289 234.752, 133.452 236.807, 144.750 237.668 L 153 238.297 153 235.282 L 153 232.267 143.250 231.741 C 126.548 230.839, 113.730 225.238, 100.930 213.250 C 97.260 209.813, 94.060 207, 93.820 207 C 93.579 207, 92.518 207.632, 91.461 208.405 M 186.500 211.578 C 173.165 219.543, 149.672 221.706, 133.790 216.430 C 129.110 214.876, 128.803 214.886, 127.509 216.648 C 126.307 218.284, 126.424 218.646, 128.514 219.750 C 136.482 223.962, 156.559 225.370, 169.667 222.637 C 176.945 221.119, 188.751 216.822, 192.730 214.242 C 194.516 213.084, 194.758 212.417, 193.945 210.898 C 192.662 208.500, 191.470 208.609, 186.500 211.578" stroke="none" fill="#3ce59a" fill-rule="evenodd"/>
</svg>