<svg xmlns="http://www.w3.org/2000/svg" viewBox="0 0 775 775" version="1.1">
<path d="M 375.503 76.741 C 371.105 76.935, 367.125 77.475, 366.657 77.943 C 366.190 78.410, 365.142 82.327, 364.329 86.646 C 361.823 99.957, 361.156 103.256, 359.507 110.500 C 358.631 114.350, 357.549 119.933, 357.103 122.907 C 356.619 126.136, 355.594 128.824, 354.558 129.582 C 353.603 130.279, 349.600 131.368, 345.661 132 C 336.946 133.400, 332.984 134.247, 322.039 137.047 L 313.579 139.212 311.039 136.273 C 309.643 134.656, 306.700 130.751, 304.500 127.595 C 302.300 124.439, 297.416 117.726, 293.646 112.678 C 289.877 107.630, 285.709 101.813, 284.384 99.750 C 283.059 97.688, 281.383 96, 280.660 96 C 277.444 96, 244.722 111.022, 243.448 113.083 C 243.077 113.685, 243.679 117.625, 244.787 121.839 C 245.896 126.052, 247.551 133.100, 248.466 137.500 C 249.381 141.900, 250.524 146.850, 251.006 148.500 C 252.545 153.768, 254.146 164.178, 253.626 165.532 C 253.350 166.252, 250.283 168.759, 246.812 171.103 C 239.911 175.762, 235.593 179.018, 226.722 186.250 C 220.325 191.466, 218.451 191.923, 214.885 189.137 C 210.385 185.621, 175.347 165, 173.873 165 C 171.603 165, 145 194.413, 145 196.923 C 145 197.479, 146.913 200.096, 149.250 202.740 C 151.588 205.383, 156.875 212.216, 161 217.923 C 165.125 223.631, 170.188 230.583, 172.250 233.373 C 174.313 236.163, 176 239.426, 176 240.623 C 176 241.820, 174.376 245.207, 172.391 248.150 C 170.405 251.092, 166.342 258.357, 163.361 264.293 C 160.380 270.229, 157.275 275.341, 156.461 275.653 C 155.648 275.965, 149.699 275.692, 143.241 275.046 C 136.783 274.400, 126.477 273.501, 120.337 273.048 C 114.197 272.596, 108.659 271.907, 108.030 271.518 C 107.401 271.130, 105.846 271.073, 104.574 271.392 C 102.646 271.876, 101.728 273.676, 99.045 282.236 C 97.275 287.881, 95.353 293.625, 94.774 295 C 93.537 297.937, 92.044 304.037, 91.330 309.082 L 90.822 312.664 109.161 322.941 C 119.247 328.593, 128.719 334.069, 130.210 335.109 C 131.700 336.149, 133.371 337, 133.924 337 C 136.534 337, 136.919 341.109, 135.907 358.125 C 135.338 367.677, 134.339 376.587, 133.687 377.924 C 132.807 379.727, 130.817 380.851, 126 382.268 C 122.425 383.319, 112.525 386.357, 104 389.020 C 95.475 391.683, 87.528 394.135, 86.340 394.470 C 82.486 395.554, 81.559 397.584, 82.889 402.023 C 83.541 404.201, 84.481 410.824, 84.976 416.742 C 85.472 422.659, 86.467 430.200, 87.188 433.500 L 88.500 439.500 94 440.208 C 97.025 440.597, 104.450 441.385, 110.500 441.959 C 116.550 442.532, 124.237 443.451, 127.582 444.001 C 130.927 444.550, 135.003 445, 136.641 445 C 138.278 445, 140.377 445.562, 141.305 446.250 C 143.017 447.518, 152.884 473.998, 153.695 479.500 C 154.099 482.240, 153.290 483.238, 144.382 491 C 139.016 495.675, 133.286 500.503, 131.649 501.728 C 130.011 502.954, 125.363 507.175, 121.320 511.109 L 113.969 518.263 115.887 521.381 C 116.942 523.097, 120.150 528.550, 123.017 533.500 C 130 545.555, 137.051 556, 138.208 556 C 138.726 556, 148.453 552.801, 159.825 548.892 C 171.196 544.983, 182.466 541.295, 184.868 540.697 L 189.237 539.609 193.368 544.120 C 209.103 561.300, 213 566.054, 213 568.065 C 213 569.282, 211.200 574.031, 209 578.619 C 206.800 583.206, 205 587.181, 205 587.452 C 205 587.722, 202.024 594.132, 198.388 601.696 L 191.775 615.449 195.138 618.332 C 207.065 628.561, 225.549 641, 228.821 641 C 231.584 641, 233.096 639.755, 253.294 620.848 C 262.597 612.140, 268.868 607, 270.189 607 C 271.345 607, 275.487 608.527, 279.395 610.393 C 283.303 612.260, 289.862 615.207, 293.972 616.943 C 298.081 618.679, 301.787 620.640, 302.206 621.300 C 302.626 621.960, 302.976 634.032, 302.985 648.128 C 303.001 675.401, 302.961 675.176, 308 676.279 C 309.375 676.580, 314.100 677.713, 318.500 678.798 C 332.574 682.266, 344.583 684.374, 346.367 683.690 C 347.320 683.324, 349.252 680.432, 350.660 677.262 C 356.844 663.348, 359.185 657.942, 363.546 647.500 C 369.103 634.194, 367.785 634.909, 387.335 634.589 C 401.633 634.354, 404.182 634.544, 405.442 635.935 C 406.248 636.826, 411.014 647.218, 416.034 659.028 C 421.054 670.837, 425.508 681.175, 425.932 682 C 427.424 684.899, 431.528 684.514, 454 679.369 C 467.854 676.197, 469.541 675.669, 470.795 674.110 C 471.788 672.875, 472.052 666.600, 471.928 647.153 C 471.798 626.867, 472.039 621.541, 473.133 620.478 C 473.885 619.748, 478.550 617.488, 483.500 615.457 C 488.450 613.425, 494.623 610.691, 497.217 609.381 C 502.754 606.586, 506.222 606.356, 508.128 608.659 C 510.092 611.033, 537.532 635.969, 541.799 639.258 C 544.008 640.960, 546.070 641.795, 547.188 641.440 C 552.180 639.856, 581.990 617.432, 581.996 615.256 C 582.001 613.815, 575.843 599.972, 567.107 581.787 C 563.748 574.795, 561 568.354, 561 567.474 C 561 566.593, 564.272 562.414, 568.272 558.187 C 572.272 553.959, 577.281 548.356, 579.404 545.736 C 581.527 543.116, 584.252 540.724, 585.460 540.421 C 587.582 539.888, 629.119 553.170, 631.690 555.204 C 632.344 555.721, 634.139 555.999, 635.679 555.822 C 638.110 555.543, 639.602 553.627, 646.990 541.301 C 651.670 533.492, 656.617 525.051, 657.983 522.544 L 660.466 517.987 650.983 509.154 C 640.143 499.057, 631.624 491.635, 624.687 486.242 C 619.090 481.891, 619.041 483.330, 625.387 465.647 C 627.924 458.578, 630 452.027, 630 451.088 C 630 450.150, 630.617 448.539, 631.370 447.508 C 632.867 445.461, 636.434 444.821, 656.500 442.999 C 674.518 441.364, 684.928 439.800, 685.869 438.587 C 687.260 436.792, 688.116 432.930, 688.989 424.500 C 689.445 420.100, 690.384 412.895, 691.077 408.490 C 693.077 395.775, 693.190 395.927, 678.262 391.225 C 671.243 389.014, 660.550 385.755, 654.500 383.982 C 648.450 382.208, 643.011 380.249, 642.413 379.629 C 641.448 378.626, 638.871 360.889, 637.546 346.121 C 637.104 341.188, 637.300 340.526, 639.919 338.121 C 641.489 336.680, 647.662 332.838, 653.637 329.585 C 659.612 326.332, 668.663 321.243, 673.750 318.277 C 682.720 313.046, 683 312.774, 683 309.263 C 683 307.271, 682.591 304.260, 682.092 302.571 C 681.593 300.882, 680.419 296.800, 679.483 293.500 C 675.636 279.937, 671.570 270.993, 669.263 271.021 C 668.293 271.033, 661.875 271.718, 655 272.544 C 629.665 275.586, 618.812 276.241, 617.391 274.815 C 616.671 274.092, 613.832 269.119, 611.082 263.764 C 608.332 258.409, 604.264 251.289, 602.041 247.943 C 599.819 244.597, 598 241.385, 598 240.806 C 598 239.543, 603.907 231.132, 617.444 213.119 C 622.975 205.759, 627.945 199.127, 628.488 198.380 C 629.172 197.439, 628.964 196.173, 627.810 194.261 C 625.523 190.472, 603.805 165.301, 602.222 164.604 C 601.519 164.294, 590.870 170.107, 578.557 177.521 C 566.244 184.934, 555.410 191, 554.482 191 C 553.553 191, 550.633 189.057, 547.993 186.683 C 545.352 184.309, 539.436 179.600, 534.846 176.219 C 520.560 165.696, 520.998 166.126, 521.024 162.674 C 521.037 160.928, 521.524 157.700, 522.107 155.500 C 522.690 153.300, 523.517 149.475, 523.944 147 C 524.750 142.338, 525.646 138.569, 529.466 123.772 C 531.453 116.074, 531.550 114.803, 530.286 112.997 C 527.687 109.288, 500.716 97, 495.171 97 C 492.565 97, 491.314 98.284, 484.207 108.250 C 479.795 114.438, 475.004 121.075, 473.560 123 C 472.117 124.925, 468.892 129.359, 466.394 132.853 C 461.220 140.090, 462.663 139.875, 447 135.745 C 441.775 134.368, 435.296 132.961, 432.603 132.619 C 420.290 131.057, 418.284 129.448, 416.942 120.052 C 416.506 116.998, 415.658 112.250, 415.057 109.500 C 414.456 106.750, 413.532 102.250, 413.004 99.500 C 410.841 88.229, 408.614 78.463, 408.074 77.876 C 407.315 77.051, 385.627 76.296, 375.503 76.741 M 364 208.156 C 329.693 213.729, 301.820 226.168, 276.092 247.389 C 260.114 260.568, 240.730 285.318, 231.841 303.889 C 225.923 316.255, 219.705 334.492, 217.994 344.500 C 217.524 347.250, 216.678 351.525, 216.113 354 C 215.549 356.475, 215.068 368.336, 215.044 380.357 C 215.001 401.788, 215.426 405.993, 219.099 420.500 C 219.656 422.700, 220.489 426.075, 220.950 428 C 226.015 449.168, 242.602 478.236, 260.892 497.996 C 275.700 513.995, 291.151 525.457, 311 535.167 C 336.067 547.430, 360.134 553.020, 387.807 553.007 C 418.076 552.992, 447.634 544.956, 475 529.302 C 487.360 522.232, 506.520 506.534, 515.528 496.098 C 527.799 481.881, 542.115 459.379, 546.548 447.340 C 547.529 444.678, 548.706 442.072, 549.165 441.550 C 549.624 441.028, 550.003 439.903, 550.006 439.050 C 550.010 438.197, 550.685 436.211, 551.506 434.636 C 552.328 433.060, 553.016 430.585, 553.035 429.136 C 553.055 427.686, 553.714 425.375, 554.500 424 C 555.286 422.625, 555.945 420.299, 555.965 418.831 C 555.984 417.363, 556.758 413.313, 557.685 409.831 C 560.149 400.578, 560.159 358.324, 557.700 349.169 C 556.765 345.687, 555.984 341.637, 555.965 340.169 C 555.945 338.701, 555.286 336.375, 554.500 335 C 553.714 333.625, 553.055 331.353, 553.035 329.950 C 553.016 328.548, 552.615 326.973, 552.145 326.450 C 551.674 325.928, 550.511 323.025, 549.560 320 C 546.906 311.557, 538.808 295.436, 532.481 286 C 513.843 258.202, 491.050 238.276, 461.546 223.991 C 444.461 215.717, 431.344 211.755, 408.885 208.082 C 401.141 206.815, 371.957 206.864, 364 208.156 M 370.090 239.047 C 309.684 246.634, 261.751 290.135, 247.830 350 C 245.285 360.945, 244.260 387.410, 245.926 399.165 C 254.517 459.786, 298.946 506.902, 359.500 519.609 C 372.845 522.410, 401.788 522.216, 415.214 519.237 C 463.449 508.533, 501.032 476.731, 519.051 431.372 C 530.878 401.598, 531.537 364.794, 520.793 334 C 504.060 286.042, 463.694 250.839, 414.036 240.898 C 402.848 238.658, 380.634 237.723, 370.090 239.047" stroke="none" fill="#040d3c" fill-rule="evenodd"/><path d="M 358.500 18.637 C 356.850 18.823, 350.775 19.473, 345 20.081 C 297.216 25.116, 246.376 41.809, 203.388 66.579 C 189.602 74.523, 169.520 88.246, 156.500 98.620 C 142.352 109.893, 111.893 140.352, 100.620 154.500 C 59.959 205.531, 33.645 265.369, 24.034 328.655 C 20.607 351.222, 19.698 366.950, 20.316 392.985 C 21.249 432.249, 26.054 461.236, 37.544 496.920 C 77.941 622.375, 184.630 717.713, 313.500 743.513 C 340.766 748.971, 355.882 750.415, 386 750.439 C 421.133 750.466, 446.678 747.427, 477.193 739.590 C 579.368 713.348, 665.183 644.688, 712.899 551 C 733.111 511.314, 744.659 474.036, 750.692 429 C 753.238 409.991, 753.225 357.175, 750.670 339 C 744.780 297.100, 734.097 260.868, 717.359 226.024 C 678.801 145.752, 611.770 81.628, 529.907 46.702 C 497.046 32.682, 455.371 22.286, 419 19.035 C 408.554 18.101, 365.761 17.820, 358.500 18.637 M 375.503 76.741 C 371.105 76.935, 367.125 77.475, 366.657 77.943 C 366.190 78.410, 365.142 82.327, 364.329 86.646 C 361.823 99.957, 361.156 103.256, 359.507 110.500 C 358.631 114.350, 357.549 119.933, 357.103 122.907 C 356.619 126.136, 355.594 128.824, 354.558 129.582 C 353.603 130.279, 349.600 131.368, 345.661 132 C 336.946 133.400, 332.984 134.247, 322.039 137.047 L 313.579 139.212 311.039 136.273 C 309.643 134.656, 306.700 130.751, 304.500 127.595 C 302.300 124.439, 297.416 117.726, 293.646 112.678 C 289.877 107.630, 285.709 101.813, 284.384 99.750 C 283.059 97.688, 281.383 96, 280.660 96 C 277.444 96, 244.722 111.022, 243.448 113.083 C 243.077 113.685, 243.679 117.625, 244.787 121.839 C 245.896 126.052, 247.551 133.100, 248.466 137.500 C 249.381 141.900, 250.524 146.850, 251.006 148.500 C 252.545 153.768, 254.146 164.178, 253.626 165.532 C 253.350 166.252, 250.283 168.759, 246.812 171.103 C 239.911 175.762, 235.593 179.018, 226.722 186.250 C 220.325 191.466, 218.451 191.923, 214.885 189.137 C 210.385 185.621, 175.347 165, 173.873 165 C 171.603 165, 145 194.413, 145 196.923 C 145 197.479, 146.913 200.096, 149.250 202.740 C 151.588 205.383, 156.875 212.216, 161 217.923 C 165.125 223.631, 170.188 230.583, 172.250 233.373 C 174.313 236.163, 176 239.426, 176 240.623 C 176 241.820, 174.376 245.207, 172.391 248.150 C 170.405 251.092, 166.342 258.357, 163.361 264.293 C 160.380 270.229, 157.275 275.341, 156.461 275.653 C 155.648 275.965, 149.699 275.692, 143.241 275.046 C 136.783 274.400, 126.477 273.501, 120.337 273.048 C 114.197 272.596, 108.659 271.907, 108.030 271.518 C 107.401 271.130, 105.846 271.073, 104.574 271.392 C 102.646 271.876, 101.728 273.676, 99.045 282.236 C 97.275 287.881, 95.353 293.625, 94.774 295 C 93.537 297.937, 92.044 304.037, 91.330 309.082 L 90.822 312.664 109.161 322.941 C 119.247 328.593, 128.719 334.069, 130.210 335.109 C 131.700 336.149, 133.371 337, 133.924 337 C 136.534 337, 136.919 341.109, 135.907 358.125 C 135.338 367.677, 134.339 376.587, 133.687 377.924 C 132.807 379.727, 130.817 380.851, 126 382.268 C 122.425 383.319, 112.525 386.357, 104 389.020 C 95.475 391.683, 87.528 394.135, 86.340 394.470 C 82.486 395.554, 81.559 397.584, 82.889 402.023 C 83.541 404.201, 84.481 410.824, 84.976 416.742 C 85.472 422.659, 86.467 430.200, 87.188 433.500 L 88.500 439.500 94 440.208 C 97.025 440.597, 104.450 441.385, 110.500 441.959 C 116.550 442.532, 124.237 443.451, 127.582 444.001 C 130.927 444.550, 135.003 445, 136.641 445 C 138.278 445, 140.377 445.562, 141.305 446.250 C 143.017 447.518, 152.884 473.998, 153.695 479.500 C 154.099 482.240, 153.290 483.238, 144.382 491 C 139.016 495.675, 133.286 500.503, 131.649 501.728 C 130.011 502.954, 125.363 507.175, 121.320 511.109 L 113.969 518.263 115.887 521.381 C 116.942 523.097, 120.150 528.550, 123.017 533.500 C 130 545.555, 137.051 556, 138.208 556 C 138.726 556, 148.453 552.801, 159.825 548.892 C 171.196 544.983, 182.466 541.295, 184.868 540.697 L 189.237 539.609 193.368 544.120 C 209.103 561.300, 213 566.054, 213 568.065 C 213 569.282, 211.200 574.031, 209 578.619 C 206.800 583.206, 205 587.181, 205 587.452 C 205 587.722, 202.024 594.132, 198.388 601.696 L 191.775 615.449 195.138 618.332 C 207.065 628.561, 225.549 641, 228.821 641 C 231.584 641, 233.096 639.755, 253.294 620.848 C 262.597 612.140, 268.868 607, 270.189 607 C 271.345 607, 275.487 608.527, 279.395 610.393 C 283.303 612.260, 289.862 615.207, 293.972 616.943 C 298.081 618.679, 301.787 620.640, 302.206 621.300 C 302.626 621.960, 302.976 634.032, 302.985 648.128 C 303.001 675.401, 302.961 675.176, 308 676.279 C 309.375 676.580, 314.100 677.713, 318.500 678.798 C 332.574 682.266, 344.583 684.374, 346.367 683.690 C 347.320 683.324, 349.252 680.432, 350.660 677.262 C 356.844 663.348, 359.185 657.942, 363.546 647.500 C 369.103 634.194, 367.785 634.909, 387.335 634.589 C 401.633 634.354, 404.182 634.544, 405.442 635.935 C 406.248 636.826, 411.014 647.218, 416.034 659.028 C 421.054 670.837, 425.508 681.175, 425.932 682 C 427.424 684.899, 431.528 684.514, 454 679.369 C 467.854 676.197, 469.541 675.669, 470.795 674.110 C 471.788 672.875, 472.052 666.600, 471.928 647.153 C 471.798 626.867, 472.039 621.541, 473.133 620.478 C 473.885 619.748, 478.550 617.488, 483.500 615.457 C 488.450 613.425, 494.623 610.691, 497.217 609.381 C 502.754 606.586, 506.222 606.356, 508.128 608.659 C 510.092 611.033, 537.532 635.969, 541.799 639.258 C 544.008 640.960, 546.070 641.795, 547.188 641.440 C 552.180 639.856, 581.990 617.432, 581.996 615.256 C 582.001 613.815, 575.843 599.972, 567.107 581.787 C 563.748 574.795, 561 568.354, 561 567.474 C 561 566.593, 564.272 562.414, 568.272 558.187 C 572.272 553.959, 577.281 548.356, 579.404 545.736 C 581.527 543.116, 584.252 540.724, 585.460 540.421 C 587.582 539.888, 629.119 553.170, 631.690 555.204 C 632.344 555.721, 634.139 555.999, 635.679 555.822 C 638.110 555.543, 639.602 553.627, 646.990 541.301 C 651.670 533.492, 656.617 525.051, 657.983 522.544 L 660.466 517.987 650.983 509.154 C 640.143 499.057, 631.624 491.635, 624.687 486.242 C 619.090 481.891, 619.041 483.330, 625.387 465.647 C 627.924 458.578, 630 452.027, 630 451.088 C 630 450.150, 630.617 448.539, 631.370 447.508 C 632.867 445.461, 636.434 444.821, 656.500 442.999 C 674.518 441.364, 684.928 439.800, 685.869 438.587 C 687.260 436.792, 688.116 432.930, 688.989 424.500 C 689.445 420.100, 690.384 412.895, 691.077 408.490 C 693.077 395.775, 693.190 395.927, 678.262 391.225 C 671.243 389.014, 660.550 385.755, 654.500 383.982 C 648.450 382.208, 643.011 380.249, 642.413 379.629 C 641.448 378.626, 638.871 360.889, 637.546 346.121 C 637.104 341.188, 637.300 340.526, 639.919 338.121 C 641.489 336.680, 647.662 332.838, 653.637 329.585 C 659.612 326.332, 668.663 321.243, 673.750 318.277 C 682.720 313.046, 683 312.774, 683 309.263 C 683 307.271, 682.591 304.260, 682.092 302.571 C 681.593 300.882, 680.419 296.800, 679.483 293.500 C 675.636 279.937, 671.570 270.993, 669.263 271.021 C 668.293 271.033, 661.875 271.718, 655 272.544 C 629.665 275.586, 618.812 276.241, 617.391 274.815 C 616.671 274.092, 613.832 269.119, 611.082 263.764 C 608.332 258.409, 604.264 251.289, 602.041 247.943 C 599.819 244.597, 598 241.385, 598 240.806 C 598 239.543, 603.907 231.132, 617.444 213.119 C 622.975 205.759, 627.945 199.127, 628.488 198.380 C 629.172 197.439, 628.964 196.173, 627.810 194.261 C 625.523 190.472, 603.805 165.301, 602.222 164.604 C 601.519 164.294, 590.870 170.107, 578.557 177.521 C 566.244 184.934, 555.410 191, 554.482 191 C 553.553 191, 550.633 189.057, 547.993 186.683 C 545.352 184.309, 539.436 179.600, 534.846 176.219 C 520.560 165.696, 520.998 166.126, 521.024 162.674 C 521.037 160.928, 521.524 157.700, 522.107 155.500 C 522.690 153.300, 523.517 149.475, 523.944 147 C 524.750 142.338, 525.646 138.569, 529.466 123.772 C 531.453 116.074, 531.550 114.803, 530.286 112.997 C 527.687 109.288, 500.716 97, 495.171 97 C 492.565 97, 491.314 98.284, 484.207 108.250 C 479.795 114.438, 475.004 121.075, 473.560 123 C 472.117 124.925, 468.892 129.359, 466.394 132.853 C 461.220 140.090, 462.663 139.875, 447 135.745 C 441.775 134.368, 435.296 132.961, 432.603 132.619 C 420.290 131.057, 418.284 129.448, 416.942 120.052 C 416.506 116.998, 415.658 112.250, 415.057 109.500 C 414.456 106.750, 413.532 102.250, 413.004 99.500 C 410.841 88.229, 408.614 78.463, 408.074 77.876 C 407.315 77.051, 385.627 76.296, 375.503 76.741 M 364 208.156 C 329.693 213.729, 301.820 226.168, 276.092 247.389 C 260.114 260.568, 240.730 285.318, 231.841 303.889 C 225.923 316.255, 219.705 334.492, 217.994 344.500 C 217.524 347.250, 216.678 351.525, 216.113 354 C 215.549 356.475, 215.068 368.336, 215.044 380.357 C 215.001 401.788, 215.426 405.993, 219.099 420.500 C 219.656 422.700, 220.489 426.075, 220.950 428 C 226.015 449.168, 242.602 478.236, 260.892 497.996 C 275.700 513.995, 291.151 525.457, 311 535.167 C 336.067 547.430, 360.134 553.020, 387.807 553.007 C 418.076 552.992, 447.634 544.956, 475 529.302 C 487.360 522.232, 506.520 506.534, 515.528 496.098 C 527.799 481.881, 542.115 459.379, 546.548 447.340 C 547.529 444.678, 548.706 442.072, 549.165 441.550 C 549.624 441.028, 550.003 439.903, 550.006 439.050 C 550.010 438.197, 550.685 436.211, 551.506 434.636 C 552.328 433.060, 553.016 430.585, 553.035 429.136 C 553.055 427.686, 553.714 425.375, 554.500 424 C 555.286 422.625, 555.945 420.299, 555.965 418.831 C 555.984 417.363, 556.758 413.313, 557.685 409.831 C 560.149 400.578, 560.159 358.324, 557.700 349.169 C 556.765 345.687, 555.984 341.637, 555.965 340.169 C 555.945 338.701, 555.286 336.375, 554.500 335 C 553.714 333.625, 553.055 331.353, 553.035 329.950 C 553.016 328.548, 552.615 326.973, 552.145 326.450 C 551.674 325.928, 550.511 323.025, 549.560 320 C 546.906 311.557, 538.808 295.436, 532.481 286 C 513.843 258.202, 491.050 238.276, 461.546 223.991 C 444.461 215.717, 431.344 211.755, 408.885 208.082 C 401.141 206.815, 371.957 206.864, 364 208.156 M 370.090 239.047 C 309.684 246.634, 261.751 290.135, 247.830 350 C 245.285 360.945, 244.260 387.410, 245.926 399.165 C 254.517 459.786, 298.946 506.902, 359.500 519.609 C 372.845 522.410, 401.788 522.216, 415.214 519.237 C 463.449 508.533, 501.032 476.731, 519.051 431.372 C 530.878 401.598, 531.537 364.794, 520.793 334 C 504.060 286.042, 463.694 250.839, 414.036 240.898 C 402.848 238.658, 380.634 237.723, 370.090 239.047" stroke="none" fill="#42e5a4" fill-rule="evenodd"/>
</svg>