<svg xmlns="http://www.w3.org/2000/svg" viewBox="0 0 753 753" version="1.1">
<path d="M 276.500 115.706 C 261.016 120.396, 251.089 125.931, 241.129 135.426 C 232.159 143.978, 221.795 159.674, 220.610 166.500 C 220.324 168.150, 219.646 171.750, 219.104 174.500 C 217.784 181.203, 217.786 202.510, 219.107 207.500 C 219.690 209.700, 220.490 213.574, 220.886 216.110 C 221.313 218.843, 223.416 223.659, 226.053 227.941 C 228.499 231.913, 231.523 236.884, 232.774 238.989 C 235.680 243.880, 246.492 253.918, 251.581 256.450 C 253.736 257.523, 256.175 258.937, 257 259.592 C 258.506 260.788, 268.029 264.664, 275.500 267.121 C 278.125 267.985, 284.827 268.430, 295 268.417 C 308.049 268.399, 311.553 268.058, 317.157 266.259 C 325.648 263.534, 334.110 259.257, 342.152 253.625 C 349.824 248.252, 364 233.902, 364 231.508 C 364 229.752, 342.285 207, 340.609 207 C 340.103 207, 335.371 211.176, 330.094 216.280 C 314.418 231.444, 301.333 236.402, 286.264 232.889 C 265.792 228.116, 254.073 213.171, 254.021 191.771 C 253.990 178.878, 256.683 171.488, 264.448 163.157 C 269.003 158.271, 272.277 155.841, 277.684 153.332 C 284.216 150.303, 285.715 150.001, 294.184 150.015 C 305.038 150.032, 310.071 151.496, 317.995 156.943 C 321.023 159.024, 343.530 180.701, 368.010 205.114 C 392.491 229.526, 414.541 251.136, 417.010 253.135 C 422.465 257.551, 433.969 263.416, 442.329 266.044 C 450.003 268.457, 468.045 269.576, 477.500 268.226 C 492.395 266.098, 510.175 256.776, 521.111 245.358 C 526.091 240.158, 528.369 237.018, 535.503 225.515 C 537.431 222.406, 538.542 218.303, 539.974 209 C 540.440 205.975, 541.360 202.025, 542.018 200.221 C 543.449 196.304, 542.809 185.778, 540.486 175 C 539.597 170.875, 538.607 166.150, 538.286 164.500 C 537.966 162.850, 534.871 156.987, 531.410 151.471 C 522.329 137, 509.054 125.457, 495 119.812 C 481.757 114.492, 477.493 113.764, 462.442 114.249 C 443.733 114.852, 433.525 118.223, 419.101 128.565 C 413.155 132.828, 397 148.913, 397 150.570 C 397 152.391, 417.567 172.716, 420.290 173.588 C 422.076 174.159, 428.307 169.345, 432.325 164.290 C 435.367 160.463, 446.178 153.406, 451.688 151.652 C 454.938 150.617, 460.276 150, 465.980 150 C 474.079 150, 475.819 150.344, 481.752 153.118 C 490.642 157.274, 499.830 166.438, 502.688 174 C 505.819 182.281, 507.267 191.806, 506.031 195.993 C 505.464 197.915, 505 200.671, 505 202.119 C 505 210.205, 494.052 223.968, 483.446 229.214 C 470.788 235.476, 455.979 235.210, 444.347 228.513 C 440.082 226.058, 420.221 207.111, 393.180 179.702 C 375.471 161.751, 345.400 132.100, 342.389 129.619 C 337.870 125.896, 326.214 119.589, 321 118.044 C 318.525 117.311, 314.572 116.102, 312.215 115.356 C 306.254 113.470, 283.134 113.696, 276.500 115.706 M 234.350 308.890 C 230.723 309.830, 222.980 313.998, 196 329.533 C 189.125 333.491, 181.025 338.067, 178 339.700 C 170.217 343.903, 141.798 359.782, 140 360.933 C 139.175 361.461, 136.250 363.092, 133.500 364.558 C 130.750 366.024, 127.825 367.774, 127 368.446 C 126.175 369.119, 123.475 370.684, 121 371.924 C 116.211 374.324, 111.467 378.321, 109.835 381.332 C 108.252 384.252, 112.741 389.926, 120.102 394.308 C 128.154 399.101, 144.014 408.667, 146 409.929 C 149.855 412.377, 173.891 426.635, 177 428.317 C 178.925 429.359, 181.850 430.997, 183.500 431.958 C 200.620 441.927, 206.954 445.713, 209.500 447.498 C 216.748 452.580, 224.227 455, 232.684 455 C 241.013 455, 244.172 453.806, 259.653 444.800 C 264.519 441.970, 273.450 436.880, 279.500 433.490 C 285.550 430.100, 292.525 426.181, 295 424.782 C 297.475 423.383, 303.100 420.227, 307.500 417.770 C 311.900 415.312, 320.552 410.421, 326.727 406.901 C 338.522 400.176, 338.817 400.011, 351.432 393.017 C 370.682 382.345, 370.766 377.410, 351.888 366.282 C 346.175 362.914, 339.700 359.063, 337.500 357.725 C 335.300 356.386, 327.875 351.995, 321 347.967 C 314.125 343.938, 303.533 337.685, 297.462 334.071 C 291.391 330.457, 285.228 326.825, 283.767 326 C 282.305 325.175, 277.372 322.270, 272.805 319.544 C 258.303 310.890, 253.444 308.954, 245.064 308.491 C 240.904 308.262, 236.083 308.441, 234.350 308.890 M 530.155 309.079 C 527.188 309.990, 506.382 321.144, 497 326.853 C 495.075 328.024, 492.825 329.300, 492 329.688 C 491.175 330.075, 482.625 334.847, 473 340.291 C 463.375 345.735, 451 352.690, 445.500 355.747 C 440 358.804, 434.375 362.004, 433 362.858 C 431.625 363.712, 428.067 365.662, 425.094 367.191 C 422.121 368.721, 418.971 370.600, 418.094 371.368 C 417.217 372.135, 415.507 373.066, 414.294 373.435 C 411.039 374.426, 407 379.723, 407 383 C 407 388.639, 408.627 389.844, 449.275 414.310 C 456.302 418.540, 462.258 422, 462.510 422 C 462.763 422, 465.114 423.284, 467.735 424.853 C 470.356 426.421, 477.225 430.497, 483 433.910 C 496.879 442.111, 497.094 442.241, 499.996 444.133 C 511.874 451.879, 520.447 454.973, 530 454.963 C 538.382 454.954, 537.120 455.503, 563.500 440.373 C 577.709 432.223, 593.023 423.648, 603 418.255 C 606.025 416.619, 617.050 410.329, 627.500 404.277 C 637.950 398.224, 648.753 392.133, 651.508 390.742 C 667.061 382.884, 665.518 376.327, 645.353 364.578 C 638.672 360.685, 624.497 352.284, 613.853 345.910 C 603.209 339.535, 592.475 333.115, 590 331.644 C 587.525 330.172, 584.825 328.543, 584 328.023 C 579.750 325.344, 555.962 312.197, 552.500 310.614 C 547.783 308.457, 535.032 307.581, 530.155 309.079 M 97.775 402.559 C 96.276 403.372, 94.589 404.900, 94.025 405.953 C 93.352 407.210, 93 432.520, 93 479.603 L 93 551.338 96.121 556.919 C 101.190 565.984, 105.313 570.210, 114.154 575.400 C 118.744 578.095, 124.300 581.507, 126.500 582.984 C 128.700 584.460, 131.175 585.973, 132 586.345 C 132.825 586.717, 134.850 587.886, 136.500 588.943 C 138.150 589.999, 141.300 591.840, 143.500 593.034 C 146.791 594.819, 161.376 603.359, 168.177 607.483 C 169.100 608.042, 172.925 610.269, 176.677 612.430 C 180.430 614.592, 190.365 620.555, 198.755 625.680 C 212.538 634.101, 214.483 635, 218.916 635 C 223.177 635, 224.166 634.592, 226.437 631.893 L 229.051 628.786 228.776 557.643 L 228.500 486.500 224.449 478.503 C 220.225 470.162, 214.039 464.018, 205.335 459.517 C 201.752 457.664, 190.835 451.331, 174.588 441.681 C 170.787 439.423, 166.466 436.883, 164.987 436.038 C 157.895 431.984, 142.201 422.534, 139.759 420.847 C 138.251 419.805, 135.101 417.913, 132.759 416.642 C 130.416 415.371, 124.629 412.082, 119.898 409.334 C 111.159 404.256, 103.955 400.968, 101.730 401.040 C 101.053 401.062, 99.274 401.746, 97.775 402.559 M 362 401.686 C 361.175 402.001, 356.838 404.451, 352.361 407.130 C 347.885 409.808, 343.877 412, 343.456 412 C 343.034 412, 341.214 413.125, 339.411 414.500 C 337.608 415.875, 335.923 417, 335.667 417 C 335.410 417, 329.643 420.303, 322.850 424.341 C 316.058 428.378, 305.100 434.844, 298.500 438.710 C 291.900 442.577, 281.661 448.611, 275.746 452.120 C 269.831 455.629, 264.089 458.994, 262.986 459.597 C 258.206 462.212, 248.859 470.256, 246.555 473.738 C 241.520 481.346, 241.164 487.308, 241.339 561.175 C 241.499 628.223, 241.519 628.875, 243.599 631.675 C 246.908 636.129, 252.111 635.918, 260 631.012 C 260.825 630.499, 270.050 625.037, 280.500 618.874 C 290.950 612.711, 301.300 606.572, 303.500 605.232 C 305.700 603.892, 314.025 599.008, 322 594.379 C 329.975 589.751, 337.175 585.556, 338 585.057 C 338.825 584.558, 344.135 581.395, 349.801 578.026 C 365.401 568.752, 372.847 561.061, 374.513 552.500 C 374.942 550.300, 375.460 517.314, 375.666 479.198 C 376.100 398.705, 376.375 401.626, 368.356 401.306 C 365.685 401.199, 362.825 401.370, 362 401.686 M 393.077 403.589 L 390 406.178 390.003 479.339 L 390.005 552.500 393.595 558.500 C 395.569 561.800, 398.380 565.785, 399.842 567.355 C 402.402 570.104, 413.263 578, 414.486 578 C 414.813 578, 416.300 578.829, 417.790 579.842 C 420.919 581.968, 445.960 596.755, 457 602.996 C 461.125 605.327, 466.075 608.241, 468 609.471 C 469.925 610.701, 476 614.319, 481.500 617.510 C 487 620.702, 492.175 623.868, 493 624.545 C 493.825 625.222, 496.750 626.983, 499.500 628.458 C 502.250 629.933, 505.850 631.976, 507.500 632.997 C 509.348 634.141, 512.488 634.882, 515.677 634.927 C 520.125 634.990, 521.147 634.629, 522.927 632.365 C 524.979 629.756, 525 629.035, 525 559.547 C 525 480.194, 525.294 483.467, 517.214 472.792 C 512 465.902, 509.679 464.169, 491.798 453.804 C 475.687 444.466, 471.082 441.762, 458.233 434.097 C 410.513 405.628, 402.161 401, 398.504 401 C 397.211 401, 394.769 402.165, 393.077 403.589 M 648.058 407.505 C 641.764 411.077, 636.407 414, 636.152 414 C 635.897 414, 634.214 415.125, 632.411 416.500 C 630.608 417.875, 628.857 419, 628.520 419 C 628.021 419, 606.167 431.863, 586.500 443.734 C 584.300 445.061, 579.350 447.960, 575.500 450.175 C 546.782 466.699, 544.003 469.049, 539.895 480.288 C 538.100 485.198, 538 489.308, 538 558.062 L 538 630.651 540.314 632.826 C 542.759 635.122, 547.723 635.708, 550.764 634.058 C 553.685 632.472, 581.921 615.999, 592 610 C 597.225 606.890, 606 601.731, 611.500 598.536 C 617 595.340, 622.625 592.008, 624 591.130 C 625.375 590.253, 627.400 589.047, 628.500 588.451 C 639.195 582.656, 656.517 571.819, 660.690 568.311 C 664.111 565.435, 666.808 561.998, 668.607 558.224 L 671.335 552.500 671.093 478.500 C 670.823 395.562, 671.349 400.996, 663.595 401.005 C 660.401 401.008, 656.981 402.439, 648.058 407.505" stroke="none" fill="#040f3d" fill-rule="evenodd"/><path d="M 347 12.116 C 244.228 21.215, 149.399 73.874, 86.787 156.614 C 48.067 207.780, 24.163 266.768, 15.307 333 C 13.031 350.023, 12.752 401.369, 14.842 418.500 C 25.458 505.507, 62.488 580.555, 124.668 641.083 C 182.441 697.320, 256.005 732.093, 338.500 742.158 C 355.197 744.195, 407.837 743.898, 424.500 741.673 C 506.460 730.728, 578.288 695.950, 636.331 639.107 C 695.413 581.247, 732.401 506.690, 743.541 423 C 745.746 406.433, 746.576 366.484, 745.088 348.500 C 739.888 285.649, 719.242 226.209, 684.476 174 C 658.828 135.482, 621.518 98.172, 583 72.524 C 531.388 38.156, 471.939 17.361, 410 12.011 C 396.540 10.848, 360.646 10.908, 347 12.116 M 276.500 115.706 C 261.016 120.396, 251.089 125.931, 241.129 135.426 C 232.159 143.978, 221.795 159.674, 220.610 166.500 C 220.324 168.150, 219.646 171.750, 219.104 174.500 C 217.784 181.203, 217.786 202.510, 219.107 207.500 C 219.690 209.700, 220.490 213.574, 220.886 216.110 C 221.313 218.843, 223.416 223.659, 226.053 227.941 C 228.499 231.913, 231.523 236.884, 232.774 238.989 C 235.680 243.880, 246.492 253.918, 251.581 256.450 C 253.736 257.523, 256.175 258.937, 257 259.592 C 258.506 260.788, 268.029 264.664, 275.500 267.121 C 278.125 267.985, 284.827 268.430, 295 268.417 C 308.049 268.399, 311.553 268.058, 317.157 266.259 C 325.648 263.534, 334.110 259.257, 342.152 253.625 C 349.824 248.252, 364 233.902, 364 231.508 C 364 229.752, 342.285 207, 340.609 207 C 340.103 207, 335.371 211.176, 330.094 216.280 C 314.418 231.444, 301.333 236.402, 286.264 232.889 C 265.792 228.116, 254.073 213.171, 254.021 191.771 C 253.990 178.878, 256.683 171.488, 264.448 163.157 C 269.003 158.271, 272.277 155.841, 277.684 153.332 C 284.216 150.303, 285.715 150.001, 294.184 150.015 C 305.038 150.032, 310.071 151.496, 317.995 156.943 C 321.023 159.024, 343.530 180.701, 368.010 205.114 C 392.491 229.526, 414.541 251.136, 417.010 253.135 C 422.465 257.551, 433.969 263.416, 442.329 266.044 C 450.003 268.457, 468.045 269.576, 477.500 268.226 C 492.395 266.098, 510.175 256.776, 521.111 245.358 C 526.091 240.158, 528.369 237.018, 535.503 225.515 C 537.431 222.406, 538.542 218.303, 539.974 209 C 540.440 205.975, 541.360 202.025, 542.018 200.221 C 543.449 196.304, 542.809 185.778, 540.486 175 C 539.597 170.875, 538.607 166.150, 538.286 164.500 C 537.966 162.850, 534.871 156.987, 531.410 151.471 C 522.329 137, 509.054 125.457, 495 119.812 C 481.757 114.492, 477.493 113.764, 462.442 114.249 C 443.733 114.852, 433.525 118.223, 419.101 128.565 C 413.155 132.828, 397 148.913, 397 150.570 C 397 152.391, 417.567 172.716, 420.290 173.588 C 422.076 174.159, 428.307 169.345, 432.325 164.290 C 435.367 160.463, 446.178 153.406, 451.688 151.652 C 454.938 150.617, 460.276 150, 465.980 150 C 474.079 150, 475.819 150.344, 481.752 153.118 C 490.642 157.274, 499.830 166.438, 502.688 174 C 505.819 182.281, 507.267 191.806, 506.031 195.993 C 505.464 197.915, 505 200.671, 505 202.119 C 505 210.205, 494.052 223.968, 483.446 229.214 C 470.788 235.476, 455.979 235.210, 444.347 228.513 C 440.082 226.058, 420.221 207.111, 393.180 179.702 C 375.471 161.751, 345.400 132.100, 342.389 129.619 C 337.870 125.896, 326.214 119.589, 321 118.044 C 318.525 117.311, 314.572 116.102, 312.215 115.356 C 306.254 113.470, 283.134 113.696, 276.500 115.706 M 234.350 308.890 C 230.723 309.830, 222.980 313.998, 196 329.533 C 189.125 333.491, 181.025 338.067, 178 339.700 C 170.217 343.903, 141.798 359.782, 140 360.933 C 139.175 361.461, 136.250 363.092, 133.500 364.558 C 130.750 366.024, 127.825 367.774, 127 368.446 C 126.175 369.119, 123.475 370.684, 121 371.924 C 116.211 374.324, 111.467 378.321, 109.835 381.332 C 108.252 384.252, 112.741 389.926, 120.102 394.308 C 128.154 399.101, 144.014 408.667, 146 409.929 C 149.855 412.377, 173.891 426.635, 177 428.317 C 178.925 429.359, 181.850 430.997, 183.500 431.958 C 200.620 441.927, 206.954 445.713, 209.500 447.498 C 216.748 452.580, 224.227 455, 232.684 455 C 241.013 455, 244.172 453.806, 259.653 444.800 C 264.519 441.970, 273.450 436.880, 279.500 433.490 C 285.550 430.100, 292.525 426.181, 295 424.782 C 297.475 423.383, 303.100 420.227, 307.500 417.770 C 311.900 415.312, 320.552 410.421, 326.727 406.901 C 338.522 400.176, 338.817 400.011, 351.432 393.017 C 370.682 382.345, 370.766 377.410, 351.888 366.282 C 346.175 362.914, 339.700 359.063, 337.500 357.725 C 335.300 356.386, 327.875 351.995, 321 347.967 C 314.125 343.938, 303.533 337.685, 297.462 334.071 C 291.391 330.457, 285.228 326.825, 283.767 326 C 282.305 325.175, 277.372 322.270, 272.805 319.544 C 258.303 310.890, 253.444 308.954, 245.064 308.491 C 240.904 308.262, 236.083 308.441, 234.350 308.890 M 530.155 309.079 C 527.188 309.990, 506.382 321.144, 497 326.853 C 495.075 328.024, 492.825 329.300, 492 329.688 C 491.175 330.075, 482.625 334.847, 473 340.291 C 463.375 345.735, 451 352.690, 445.500 355.747 C 440 358.804, 434.375 362.004, 433 362.858 C 431.625 363.712, 428.067 365.662, 425.094 367.191 C 422.121 368.721, 418.971 370.600, 418.094 371.368 C 417.217 372.135, 415.507 373.066, 414.294 373.435 C 411.039 374.426, 407 379.723, 407 383 C 407 388.639, 408.627 389.844, 449.275 414.310 C 456.302 418.540, 462.258 422, 462.510 422 C 462.763 422, 465.114 423.284, 467.735 424.853 C 470.356 426.421, 477.225 430.497, 483 433.910 C 496.879 442.111, 497.094 442.241, 499.996 444.133 C 511.874 451.879, 520.447 454.973, 530 454.963 C 538.382 454.954, 537.120 455.503, 563.500 440.373 C 577.709 432.223, 593.023 423.648, 603 418.255 C 606.025 416.619, 617.050 410.329, 627.500 404.277 C 637.950 398.224, 648.753 392.133, 651.508 390.742 C 667.061 382.884, 665.518 376.327, 645.353 364.578 C 638.672 360.685, 624.497 352.284, 613.853 345.910 C 603.209 339.535, 592.475 333.115, 590 331.644 C 587.525 330.172, 584.825 328.543, 584 328.023 C 579.750 325.344, 555.962 312.197, 552.500 310.614 C 547.783 308.457, 535.032 307.581, 530.155 309.079 M 97.775 402.559 C 96.276 403.372, 94.589 404.900, 94.025 405.953 C 93.352 407.210, 93 432.520, 93 479.603 L 93 551.338 96.121 556.919 C 101.190 565.984, 105.313 570.210, 114.154 575.400 C 118.744 578.095, 124.300 581.507, 126.500 582.984 C 128.700 584.460, 131.175 585.973, 132 586.345 C 132.825 586.717, 134.850 587.886, 136.500 588.943 C 138.150 589.999, 141.300 591.840, 143.500 593.034 C 146.791 594.819, 161.376 603.359, 168.177 607.483 C 169.100 608.042, 172.925 610.269, 176.677 612.430 C 180.430 614.592, 190.365 620.555, 198.755 625.680 C 212.538 634.101, 214.483 635, 218.916 635 C 223.177 635, 224.166 634.592, 226.437 631.893 L 229.051 628.786 228.776 557.643 L 228.500 486.500 224.449 478.503 C 220.225 470.162, 214.039 464.018, 205.335 459.517 C 201.752 457.664, 190.835 451.331, 174.588 441.681 C 170.787 439.423, 166.466 436.883, 164.987 436.038 C 157.895 431.984, 142.201 422.534, 139.759 420.847 C 138.251 419.805, 135.101 417.913, 132.759 416.642 C 130.416 415.371, 124.629 412.082, 119.898 409.334 C 111.159 404.256, 103.955 400.968, 101.730 401.040 C 101.053 401.062, 99.274 401.746, 97.775 402.559 M 362 401.686 C 361.175 402.001, 356.838 404.451, 352.361 407.130 C 347.885 409.808, 343.877 412, 343.456 412 C 343.034 412, 341.214 413.125, 339.411 414.500 C 337.608 415.875, 335.923 417, 335.667 417 C 335.410 417, 329.643 420.303, 322.850 424.341 C 316.058 428.378, 305.100 434.844, 298.500 438.710 C 291.900 442.577, 281.661 448.611, 275.746 452.120 C 269.831 455.629, 264.089 458.994, 262.986 459.597 C 258.206 462.212, 248.859 470.256, 246.555 473.738 C 241.520 481.346, 241.164 487.308, 241.339 561.175 C 241.499 628.223, 241.519 628.875, 243.599 631.675 C 246.908 636.129, 252.111 635.918, 260 631.012 C 260.825 630.499, 270.050 625.037, 280.500 618.874 C 290.950 612.711, 301.300 606.572, 303.500 605.232 C 305.700 603.892, 314.025 599.008, 322 594.379 C 329.975 589.751, 337.175 585.556, 338 585.057 C 338.825 584.558, 344.135 581.395, 349.801 578.026 C 365.401 568.752, 372.847 561.061, 374.513 552.500 C 374.942 550.300, 375.460 517.314, 375.666 479.198 C 376.100 398.705, 376.375 401.626, 368.356 401.306 C 365.685 401.199, 362.825 401.370, 362 401.686 M 393.077 403.589 L 390 406.178 390.003 479.339 L 390.005 552.500 393.595 558.500 C 395.569 561.800, 398.380 565.785, 399.842 567.355 C 402.402 570.104, 413.263 578, 414.486 578 C 414.813 578, 416.300 578.829, 417.790 579.842 C 420.919 581.968, 445.960 596.755, 457 602.996 C 461.125 605.327, 466.075 608.241, 468 609.471 C 469.925 610.701, 476 614.319, 481.500 617.510 C 487 620.702, 492.175 623.868, 493 624.545 C 493.825 625.222, 496.750 626.983, 499.500 628.458 C 502.250 629.933, 505.850 631.976, 507.500 632.997 C 509.348 634.141, 512.488 634.882, 515.677 634.927 C 520.125 634.990, 521.147 634.629, 522.927 632.365 C 524.979 629.756, 525 629.035, 525 559.547 C 525 480.194, 525.294 483.467, 517.214 472.792 C 512 465.902, 509.679 464.169, 491.798 453.804 C 475.687 444.466, 471.082 441.762, 458.233 434.097 C 410.513 405.628, 402.161 401, 398.504 401 C 397.211 401, 394.769 402.165, 393.077 403.589 M 648.058 407.505 C 641.764 411.077, 636.407 414, 636.152 414 C 635.897 414, 634.214 415.125, 632.411 416.500 C 630.608 417.875, 628.857 419, 628.520 419 C 628.021 419, 606.167 431.863, 586.500 443.734 C 584.300 445.061, 579.350 447.960, 575.500 450.175 C 546.782 466.699, 544.003 469.049, 539.895 480.288 C 538.100 485.198, 538 489.308, 538 558.062 L 538 630.651 540.314 632.826 C 542.759 635.122, 547.723 635.708, 550.764 634.058 C 553.685 632.472, 581.921 615.999, 592 610 C 597.225 606.890, 606 601.731, 611.500 598.536 C 617 595.340, 622.625 592.008, 624 591.130 C 625.375 590.253, 627.400 589.047, 628.500 588.451 C 639.195 582.656, 656.517 571.819, 660.690 568.311 C 664.111 565.435, 666.808 561.998, 668.607 558.224 L 671.335 552.500 671.093 478.500 C 670.823 395.562, 671.349 400.996, 663.595 401.005 C 660.401 401.008, 656.981 402.439, 648.058 407.505" stroke="none" fill="#43e7a3" fill-rule="evenodd"/>
</svg>