<svg class="PendingIcon" x="0px" y="0px" viewBox="0 0 50.8 50.7" xml:space="preserve" xmlns="http://www.w3.org/2000/svg" xmlns:xlink="http://www.w3.org/1999/xlink">
<defs>
  <style>
    .PendingIconPath{fill:#1e449f;}
  </style>
</defs>
<path class="PendingIconPath" d="M22.2,1.2c4.8-0.6,9.9,0.3,14.2,2.5C42.8,7,47.6,13.1,49,20.2c0.9,3.4,0.9,7.1,0,10.5
	c-0.5,2.6-1.6,5.1-3,7.4C42.1,44.6,35,49,27.5,49.6c-7.8,0.8-15.8-2.5-20.8-8.5c-1.6-1.8-2.9-4-3.9-6.3c-0.4-1.3-1.1-2.6-1.2-3.9
	c-1-3.7-1-7.6,0-11.2c0.2-1.4,0.8-2.6,1.2-3.9c1-2.2,2.2-4.3,3.8-6.1C10.5,5,16.2,1.9,22.2,1.2z M23.2,11.7c-3,0.5-6,2-8.1,4.3
	c-2.6,2.8-4,6.7-3.7,10.6c0.4,3.1,1.7,6.2,3.9,8.4c2.1,2.2,5,3.6,8,4.1c1.2,0.1,2.5,0.1,3.7,0c3-0.5,5.9-1.9,8-4.1
	c2.2-2.2,3.5-5.3,3.9-8.4c0.3-3.7-1-7.6-3.5-10.3c-2.2-2.5-5.3-4.1-8.6-4.5C25.7,11.6,24.4,11.6,23.2,11.7z M23.6,14.8
	c2.3-0.4,4.7,0.1,6.7,1.2c3,1.6,5.1,4.7,5.5,8c0.1,1.4,0.1,2.7-0.2,4.1c-0.8,3-3,5.6-5.8,6.9c-2.6,1.3-5.7,1.4-8.4,0.3
	c-4-1.5-7-5.8-6.7-10.1C14.5,20.1,18.6,15.5,23.6,14.8z M22.8,18.5c-0.1,3.2,0,6.5-0.1,9.8c2.8,0,5.5,0,8.3,0c0.3,0,0.7,0.1,0.9-0.3
	c0.1-0.8,0-1.6,0-2.4c-0.3-0.1-0.6-0.2-0.9-0.2c-1.8,0-3.7,0-5.5,0c0-2,0-4.1,0-6.1c0-0.3-0.1-0.6-0.1-0.9
	C24.6,18.4,23.7,18.4,22.8,18.5z"/>
</svg>