<svg xmlns="http://www.w3.org/2000/svg" viewBox="0 0 132 132" version="1.1">
<path d="M 57.338 40 C 55.604 41.837, 53.499 43, 51.908 43 C 48.367 43, 45.742 46.104, 46.275 49.662 L 46.700 52.500 46.850 49.450 C 47.036 45.671, 48.618 44, 52.013 44 C 53.611 44, 55.742 42.835, 57.500 41 C 60.755 37.603, 62.974 37.281, 66.951 39.630 C 69.150 40.929, 70.097 41.021, 71.606 40.083 C 73.353 38.996, 73.327 38.952, 71.260 39.516 C 69.938 39.878, 68.107 39.488, 66.788 38.564 C 63.435 36.216, 60.487 36.664, 57.338 40 M 77.365 41.073 C 78.814 42.212, 80 43.784, 80 44.565 C 80 45.345, 81.688 46.778, 83.750 47.747 C 86.747 49.156, 87.624 50.212, 88.118 53.005 L 88.737 56.500 88.868 53.405 C 89.009 50.102, 87.047 47.708, 83.250 46.551 C 82.013 46.174, 81 45.221, 81 44.433 C 81 42.727, 77.477 39, 75.865 39 C 75.241 39, 75.916 39.933, 77.365 41.073 M 63.750 46.706 C 64.987 46.944, 67.013 46.944, 68.250 46.706 C 69.487 46.467, 68.475 46.272, 66 46.272 C 63.525 46.272, 62.513 46.467, 63.750 46.706 M 59.333 47.667 C 59.700 48.033, 60.300 48.033, 60.667 47.667 C 61.033 47.300, 60.733 47, 60 47 C 59.267 47, 58.967 47.300, 59.333 47.667 M 71.333 47.667 C 71.700 48.033, 72.300 48.033, 72.667 47.667 C 73.033 47.300, 72.733 47, 72 47 C 71.267 47, 70.967 47.300, 71.333 47.667 M 55.872 49.750 C 54.629 51.336, 54.664 51.371, 56.250 50.128 C 57.212 49.373, 58 48.585, 58 48.378 C 58 47.555, 57.179 48.084, 55.872 49.750 M 74 48.378 C 74 48.585, 74.787 49.373, 75.750 50.128 C 77.336 51.371, 77.371 51.336, 76.128 49.750 C 74.821 48.084, 74 47.555, 74 48.378 M 51.980 53.524 C 51.284 54.362, 50.909 55.242, 51.145 55.479 C 51.382 55.715, 52.125 55.030, 52.796 53.955 C 54.248 51.630, 53.764 51.375, 51.980 53.524 M 79.100 53.705 C 79.829 54.917, 80.640 55.694, 80.903 55.431 C 81.166 55.168, 80.570 54.176, 79.579 53.226 C 77.857 51.577, 77.835 51.598, 79.100 53.705 M 43 55 C 41.900 56.100, 41.014 57.563, 41.030 58.250 C 41.047 58.938, 41.577 58.600, 42.208 57.500 C 42.839 56.400, 44.062 54.952, 44.927 54.282 C 45.792 53.612, 46.163 53.049, 45.750 53.032 C 45.337 53.014, 44.100 53.900, 43 55 M 64 55 C 64 55.733, 64.300 56.033, 64.667 55.667 C 65.033 55.300, 65.033 54.700, 64.667 54.333 C 64.300 53.967, 64 54.267, 64 55 M 67 55 C 67 55.733, 67.300 56.033, 67.667 55.667 C 68.033 55.300, 68.033 54.700, 67.667 54.333 C 67.300 53.967, 67 54.267, 67 55 M 50.079 58.583 C 50.127 59.748, 50.364 59.985, 50.683 59.188 C 50.972 58.466, 50.936 57.603, 50.604 57.271 C 50.272 56.939, 50.036 57.529, 50.079 58.583 M 60.500 58 L 57.500 58.763 60.750 58.882 C 62.538 58.947, 64 58.550, 64 58 C 64 57.450, 63.888 57.053, 63.750 57.118 C 63.612 57.183, 62.150 57.580, 60.500 58 M 68 58.173 C 68 58.628, 69.350 59, 71 59 C 72.650 59, 74 58.826, 74 58.613 C 74 58.401, 72.650 58.029, 71 57.787 C 69.350 57.545, 68 57.718, 68 58.173 M 81.079 58.583 C 81.127 59.748, 81.364 59.985, 81.683 59.188 C 81.972 58.466, 81.936 57.603, 81.604 57.271 C 81.272 56.939, 81.036 57.529, 81.079 58.583 M 88 59.277 C 88 60.225, 88.450 61, 89 61 C 89.550 61, 90.036 61.788, 90.079 62.750 C 90.124 63.752, 90.370 63.977, 90.654 63.276 C 90.926 62.602, 90.441 61.040, 89.575 59.803 C 88.288 57.966, 88 57.870, 88 59.277 M 59 62.500 C 60.292 63.875, 61.574 65, 61.849 65 C 62.124 65, 61.292 63.875, 60 62.500 C 58.708 61.125, 57.426 60, 57.151 60 C 56.876 60, 57.708 61.125, 59 62.500 M 71.924 62.750 L 69.500 65.500 72.250 63.076 C 74.820 60.810, 75.459 60, 74.674 60 C 74.495 60, 73.258 61.237, 71.924 62.750 M 41.032 61.559 C 41.049 62.076, 41.724 63.374, 42.532 64.441 C 43.339 65.509, 43.986 65.959, 43.968 65.441 C 43.951 64.924, 43.276 63.626, 42.468 62.559 C 41.661 61.491, 41.014 61.041, 41.032 61.559 M 50.079 66.583 C 50.127 67.748, 50.364 67.985, 50.683 67.188 C 50.972 66.466, 50.936 65.603, 50.604 65.271 C 50.272 64.939, 50.036 65.529, 50.079 66.583 M 81.079 66.583 C 81.127 67.748, 81.364 67.985, 81.683 67.188 C 81.972 66.466, 81.936 65.603, 81.604 65.271 C 81.272 64.939, 81.036 65.529, 81.079 66.583 M 60.268 67.417 C 60.395 68.472, 61.175 69.518, 62 69.743 C 62.965 70.006, 63.107 69.857, 62.400 69.326 C 61.795 68.872, 61.015 67.825, 60.668 67 C 60.223 65.946, 60.104 66.070, 60.268 67.417 M 71.079 67.583 C 71.127 68.748, 71.364 68.985, 71.683 68.188 C 71.972 67.466, 71.936 66.603, 71.604 66.271 C 71.272 65.939, 71.036 66.529, 71.079 67.583 M 88.086 69.382 L 85.672 72.500 88.533 69.780 C 90.106 68.284, 91.193 66.881, 90.947 66.662 C 90.701 66.443, 89.414 67.667, 88.086 69.382 M 64.632 67.786 C 64.365 68.218, 64.981 68.571, 66 68.571 C 67.019 68.571, 67.635 68.218, 67.368 67.786 C 67.100 67.354, 66.485 67, 66 67 C 65.515 67, 64.900 67.354, 64.632 67.786 M 43.370 73.671 C 43.444 77.203, 43.833 79.250, 44.279 78.458 C 44.708 77.696, 44.649 74.919, 44.149 72.286 L 43.240 67.500 43.370 73.671 M 54 73.500 C 55.292 74.875, 56.574 76, 56.849 76 C 57.124 76, 56.292 74.875, 55 73.500 C 53.708 72.125, 52.426 71, 52.151 71 C 51.876 71, 52.708 72.125, 54 73.500 M 76.924 73.750 L 74.500 76.500 77.250 74.076 C 79.820 71.810, 80.459 71, 79.674 71 C 79.495 71, 78.258 72.237, 76.924 73.750 M 85.500 74 C 85.840 74.550, 86.343 75, 86.618 75 C 86.893 75, 86.840 74.550, 86.500 74 C 86.160 73.450, 85.657 73, 85.382 73 C 85.107 73, 85.160 73.450, 85.500 74 M 46 76.557 C 46 76.828, 47.125 77.477, 48.500 78 C 49.875 78.523, 51 79.567, 51 80.320 C 51 81.074, 52.005 82.547, 53.233 83.595 C 55.316 85.373, 55.369 85.376, 54.022 83.643 C 53.228 82.622, 52.111 80.869, 51.539 79.748 C 50.621 77.946, 46 75.284, 46 76.557 M 84.405 78.155 C 83.962 78.870, 84.130 79.038, 84.845 78.595 C 85.998 77.883, 86.393 77, 85.559 77 C 85.316 77, 84.797 77.520, 84.405 78.155 M 64.750 78.662 C 65.438 78.940, 66.563 78.940, 67.250 78.662 C 67.938 78.385, 67.375 78.158, 66 78.158 C 64.625 78.158, 64.063 78.385, 64.750 78.662 M 88 79 C 88 79.733, 88.300 80.033, 88.667 79.667 C 89.033 79.300, 89.033 78.700, 88.667 78.333 C 88.300 77.967, 88 78.267, 88 79 M 41.589 81.856 C 40.484 83.644, 38.914 88.454, 39.747 87.500 C 40.851 86.235, 43.099 81, 42.538 81 C 42.307 81, 41.880 81.385, 41.589 81.856 M 77.750 81.662 C 78.438 81.940, 79.563 81.940, 80.250 81.662 C 80.938 81.385, 80.375 81.158, 79 81.158 C 77.625 81.158, 77.063 81.385, 77.750 81.662 M 90.080 83 C 91.538 86.061, 92 86.628, 92 85.358 C 92 84.821, 91.300 83.509, 90.445 82.441 C 88.978 80.611, 88.958 80.643, 90.080 83 M 62.500 84.736 C 63.600 85.014, 65.388 85.861, 66.473 86.620 C 67.557 87.379, 68.907 87.998, 69.473 87.996 C 70.038 87.994, 69.027 87.094, 67.226 85.996 C 65.425 84.898, 63.175 84.052, 62.226 84.116 C 60.858 84.208, 60.915 84.337, 62.500 84.736 M 56.750 85.662 C 57.438 85.940, 58.563 85.940, 59.250 85.662 C 59.938 85.385, 59.375 85.158, 58 85.158 C 56.625 85.158, 56.063 85.385, 56.750 85.662 M 60.624 87.539 C 59.659 90.053, 59.943 90.702, 61.122 88.675 C 61.706 87.671, 61.973 86.639, 61.715 86.382 C 61.458 86.124, 60.966 86.645, 60.624 87.539 M 71.333 86.667 C 71.700 87.033, 72.300 87.033, 72.667 86.667 C 73.033 86.300, 72.733 86, 72 86 C 71.267 86, 70.967 86.300, 71.333 86.667 M 71 89 C 71 89.733, 71.300 90.033, 71.667 89.667 C 72.033 89.300, 72.033 88.700, 71.667 88.333 C 71.300 87.967, 71 88.267, 71 89 M 37 93 C 37 94.100, 37.408 95, 37.906 95 C 38.405 95, 38.577 94.100, 38.290 93 C 38.002 91.900, 37.594 91, 37.383 91 C 37.173 91, 37 91.900, 37 93 M 94.158 93 C 94.158 94.375, 94.385 94.938, 94.662 94.250 C 94.940 93.563, 94.940 92.438, 94.662 91.750 C 94.385 91.063, 94.158 91.625, 94.158 93 M 43 94 C 40.940 94.660, 40.852 94.816, 42.500 94.885 C 43.600 94.931, 45.175 94.533, 46 94 C 47.752 92.868, 46.536 92.868, 43 94 M 73.071 93.500 C 73.071 94.050, 73.714 95.625, 74.500 97 C 75.286 98.375, 75.929 99.050, 75.929 98.500 C 75.929 97.950, 75.286 96.375, 74.500 95 C 73.714 93.625, 73.071 92.950, 73.071 93.500 M 88.813 94.683 C 89.534 94.972, 90.397 94.936, 90.729 94.604 C 91.061 94.272, 90.471 94.036, 89.417 94.079 C 88.252 94.127, 88.015 94.364, 88.813 94.683 M 56.624 96.539 C 55.659 99.053, 55.943 99.702, 57.122 97.675 C 57.706 96.671, 57.973 95.639, 57.715 95.382 C 57.458 95.124, 56.966 95.645, 56.624 96.539 M 50.195 98.929 C 50.917 101.361, 53.769 102.632, 55.222 101.168 C 56.262 100.122, 56.147 100.016, 54.605 100.603 C 53.308 101.098, 52.248 100.723, 51.241 99.412 C 50.432 98.361, 49.961 98.143, 50.195 98.929 M 80.611 99.570 C 80.203 100.634, 79.263 101.041, 77.986 100.707 C 76.892 100.421, 76.249 100.595, 76.558 101.093 C 76.866 101.592, 77.711 102, 78.437 102 C 79.946 102, 82.547 99.214, 81.766 98.433 C 81.481 98.147, 80.961 98.659, 80.611 99.570 M 91.333 105.667 C 91.700 106.033, 92.300 106.033, 92.667 105.667 C 93.033 105.300, 92.733 105, 92 105 C 91.267 105, 90.967 105.300, 91.333 105.667" stroke="none" fill="#000000" fill-rule="evenodd"/><path d="M 58.187 41.500 C 56.991 42.875, 54.971 44, 53.698 44 C 50.275 44, 48.051 46.090, 47.640 49.692 C 47.440 51.447, 46.089 54.294, 44.638 56.018 C 41.572 59.663, 41.515 59.977, 43.468 62.559 C 44.276 63.626, 44.968 66.525, 45.007 69 C 45.068 72.947, 45.471 73.747, 48.289 75.509 C 50.055 76.614, 51.950 78.542, 52.500 79.794 C 53.346 81.718, 54.194 82.044, 58 81.904 C 60.475 81.814, 63.921 82.331, 65.658 83.054 C 68.639 84.295, 69.018 84.191, 72.443 81.184 C 74.437 79.433, 77.089 78, 78.335 78 C 81.362 78, 83 76.192, 83 72.852 C 83 71.306, 84.094 68.923, 85.500 67.405 C 88.171 64.523, 88.729 61.129, 86.843 59.243 C 86.206 58.606, 85.643 56.159, 85.593 53.806 C 85.514 50.166, 85.088 49.329, 82.747 48.207 C 81.232 47.481, 79.308 45.563, 78.471 43.944 C 76.817 40.745, 76.499 40.628, 70.359 40.947 C 68.081 41.065, 65.917 40.675, 65.550 40.081 C 64.367 38.168, 60.424 38.928, 58.187 41.500 M 59.500 46.358 C 52.096 49.791, 48.566 55.750, 49.225 63.705 C 49.891 71.732, 55.027 77.556, 62.642 78.920 C 76.537 81.409, 86.647 68.837, 81.528 55.434 C 78.436 47.337, 67.293 42.746, 59.500 46.358 M 64.837 57.750 C 64.371 59.365, 63.385 60.029, 61.344 60.102 C 58.660 60.199, 58.696 60.251, 61.993 61.026 C 66.170 62.008, 66.241 61.958, 65.818 58.341 C 65.510 55.702, 65.440 55.660, 64.837 57.750 M 99.019 57.477 C 97.083 59.810, 98.324 61.404, 100.341 59.176 C 101.343 58.068, 101.712 56.940, 101.178 56.610 C 100.655 56.287, 99.683 56.677, 99.019 57.477 M 67.475 61.040 C 67.054 61.722, 67.808 61.846, 69.666 61.399 C 73.498 60.479, 73.860 60, 70.726 60 C 69.291 60, 67.829 60.468, 67.475 61.040 M 62.980 64.524 C 62.284 65.362, 61.968 66.301, 62.276 66.610 C 62.585 66.919, 63.340 66.233, 63.954 65.086 C 65.264 62.638, 64.778 62.358, 62.980 64.524 M 66 64.723 C 66 65.981, 68.858 68.475, 69.530 67.803 C 69.795 67.538, 69.110 66.504, 68.006 65.506 C 66.903 64.507, 66 64.155, 66 64.723 M 28.250 84.720 C 27.563 84.966, 27 86.129, 27 87.306 C 27 89.430, 27.011 89.429, 28.602 87.158 C 30.327 84.695, 30.228 84.014, 28.250 84.720" stroke="none" fill="#ffc924" fill-rule="evenodd"/><path d="M 72 18.893 C 72 19.384, 72.739 20.069, 73.641 20.416 C 75.014 20.943, 75.076 20.796, 74.019 19.523 C 72.579 17.788, 72 17.607, 72 18.893 M 85.224 80.013 C 84.521 81.138, 82.396 82.236, 80.249 82.584 C 78 82.949, 75.806 84.120, 74.767 85.512 C 73.102 87.740, 73.134 88.051, 75.581 93.397 C 76.983 96.457, 78.571 99.235, 79.111 99.568 C 79.650 99.902, 80.815 98.336, 81.698 96.087 C 83.400 91.754, 84.244 91.382, 88.607 93.041 C 93.759 94.999, 94.215 93.666, 90.914 86.290 C 87.207 78.008, 86.774 77.531, 85.224 80.013 M 102.733 90.124 C 103.412 90.808, 104.219 91.115, 104.526 90.807 C 104.834 90.499, 104.279 89.940, 103.293 89.564 C 101.868 89.022, 101.753 89.136, 102.733 90.124" stroke="none" fill="#ff5622" fill-rule="evenodd"/><path d="M 77.710 30 C 77.423 31.100, 77.595 32, 78.094 32 C 78.592 32, 79 31.100, 79 30 C 79 28.900, 78.827 28, 78.617 28 C 78.406 28, 77.998 28.900, 77.710 30 M 81 62 C 81 62.733, 81.300 63.033, 81.667 62.667 C 82.033 62.300, 82.033 61.700, 81.667 61.333 C 81.300 60.967, 81 61.267, 81 62 M 106.333 66.667 C 106.700 67.033, 107.300 67.033, 107.667 66.667 C 108.033 66.300, 107.733 66, 107 66 C 106.267 66, 105.967 66.300, 106.333 66.667 M 27 73 C 27.589 74.100, 28.508 75, 29.044 75 C 29.583 75, 29.460 74.108, 28.768 73 C 28.081 71.900, 27.161 71, 26.724 71 C 26.287 71, 26.411 71.900, 27 73 M 102 76 C 102 76.733, 102.300 77.033, 102.667 76.667 C 103.033 76.300, 103.033 75.700, 102.667 75.333 C 102.300 74.967, 102 75.267, 102 76 M 45.718 78.707 C 46.130 79.781, 45.949 80.086, 45.181 79.612 C 44.401 79.130, 44.238 79.456, 44.681 80.612 C 45.125 81.769, 44.962 82.095, 44.181 81.612 C 43.401 81.130, 43.238 81.456, 43.681 82.612 C 44.125 83.769, 43.962 84.095, 43.181 83.612 C 42.401 83.130, 42.238 83.456, 42.681 84.612 C 43.125 85.769, 42.962 86.095, 42.181 85.612 C 41.401 85.130, 41.238 85.456, 41.681 86.612 C 42.164 87.868, 41.985 88.109, 41.015 87.510 C 40.131 86.963, 39.930 87.077, 40.410 87.854 C 41.354 89.381, 40.125 93.195, 38.928 92.456 C 38.418 92.140, 38 92.417, 38 93.072 C 38 94.238, 41.372 93.991, 46.715 92.431 C 48.605 91.880, 49.172 92.388, 50.574 95.892 C 51.478 98.152, 52.646 100, 53.170 100 C 53.694 100, 55.397 97.194, 56.953 93.766 L 59.783 87.531 56.660 86.516 C 54.941 85.957, 52.628 84.073, 51.518 82.329 C 49.243 78.753, 44.630 75.873, 45.718 78.707" stroke="none" fill="#23a7f1" fill-rule="evenodd"/><path d="M 73.603 19.833 C 73.320 20.292, 73.723 20.667, 74.500 20.667 C 75.277 20.667, 75.680 20.292, 75.397 19.833 C 75.114 19.375, 74.710 19, 74.500 19 C 74.290 19, 73.886 19.375, 73.603 19.833 M 42.333 24.667 C 42.700 25.033, 43.300 25.033, 43.667 24.667 C 44.033 24.300, 43.733 24, 43 24 C 42.267 24, 41.967 24.300, 42.333 24.667 M 44 26 C 42.707 26.835, 42.734 26.971, 44.191 26.985 C 45.121 26.993, 46.160 26.550, 46.500 26 C 47.282 24.734, 45.958 24.734, 44 26 M 40 27 C 40 27.733, 40.300 28.033, 40.667 27.667 C 41.033 27.300, 41.033 26.700, 40.667 26.333 C 40.300 25.967, 40 26.267, 40 27 M 79.079 29.583 C 79.127 30.748, 79.364 30.985, 79.683 30.188 C 79.972 29.466, 79.936 28.603, 79.604 28.271 C 79.272 27.939, 79.036 28.529, 79.079 29.583 M 42 29.833 C 42 30.292, 42.655 30.667, 43.456 30.667 C 44.257 30.667, 44.680 30.292, 44.397 29.833 C 44.114 29.375, 43.459 29, 42.941 29 C 42.423 29, 42 29.375, 42 29.833 M 46.543 29.931 C 46.226 30.443, 46.350 31.098, 46.817 31.387 C 47.284 31.676, 47.667 31.257, 47.667 30.456 C 47.667 28.770, 47.351 28.623, 46.543 29.931 M 49 30 C 49 30.733, 49.300 31.033, 49.667 30.667 C 50.033 30.300, 50.033 29.700, 49.667 29.333 C 49.300 28.967, 49 29.267, 49 30 M 63.074 30.411 C 61.265 32.591, 63.256 32.982, 65.425 30.872 C 67.001 29.340, 67.068 29, 65.797 29 C 64.944 29, 63.718 29.635, 63.074 30.411 M 91.333 31.667 C 91.700 32.033, 92.300 32.033, 92.667 31.667 C 93.033 31.300, 92.733 31, 92 31 C 91.267 31, 90.967 31.300, 91.333 31.667 M 43 33.059 C 43 33.641, 43.450 33.840, 44 33.500 C 44.550 33.160, 45 32.684, 45 32.441 C 45 32.198, 44.550 32, 44 32 C 43.450 32, 43 32.477, 43 33.059 M 93.250 32.662 C 92.563 32.940, 92 33.595, 92 34.119 C 92 34.681, 92.817 34.633, 94 34 C 95.704 33.088, 96 33.240, 96 35.024 C 96 36.176, 96.451 36.839, 97.003 36.498 C 97.670 36.086, 97.658 35.229, 96.968 33.939 C 95.904 31.952, 95.422 31.786, 93.250 32.662 M 89 34 C 89 34.550, 89.450 35, 90 35 C 90.550 35, 91 34.550, 91 34 C 91 33.450, 90.550 33, 90 33 C 89.450 33, 89 33.450, 89 34 M 61.813 36.683 C 62.534 36.972, 63.397 36.936, 63.729 36.604 C 64.061 36.272, 63.471 36.036, 62.417 36.079 C 61.252 36.127, 61.015 36.364, 61.813 36.683 M 66.500 38 C 66.840 38.550, 67.343 39, 67.618 39 C 67.893 39, 67.840 38.550, 67.500 38 C 67.160 37.450, 66.657 37, 66.382 37 C 66.107 37, 66.160 37.450, 66.500 38 M 56.405 39.155 C 55.962 39.870, 56.130 40.038, 56.845 39.595 C 57.998 38.883, 58.393 38, 57.559 38 C 57.316 38, 56.797 38.520, 56.405 39.155 M 61.813 38.683 C 62.534 38.972, 63.397 38.936, 63.729 38.604 C 64.061 38.272, 63.471 38.036, 62.417 38.079 C 61.252 38.127, 61.015 38.364, 61.813 38.683 M 92 39 C 92 39.550, 92.450 40, 93 40 C 93.550 40, 94 39.550, 94 39 C 94 38.450, 93.550 38, 93 38 C 92.450 38, 92 38.450, 92 39 M 95.500 39 C 95.840 39.550, 96.316 40, 96.559 40 C 96.802 40, 97 39.550, 97 39 C 97 38.450, 96.523 38, 95.941 38 C 95.359 38, 95.160 38.450, 95.500 39 M 58.405 40.155 C 57.962 40.870, 58.130 41.038, 58.845 40.595 C 59.998 39.883, 60.393 39, 59.559 39 C 59.316 39, 58.797 39.520, 58.405 40.155 M 65.733 40.124 C 66.412 40.808, 67.219 41.115, 67.526 40.807 C 67.834 40.499, 67.279 39.940, 66.293 39.564 C 64.868 39.022, 64.753 39.136, 65.733 40.124 M 78 39.378 C 78 39.585, 78.787 40.373, 79.750 41.128 C 81.336 42.371, 81.371 42.336, 80.128 40.750 C 78.821 39.084, 78 38.555, 78 39.378 M 76.750 41.833 C 77.713 42.842, 78.677 43.528, 78.893 43.357 C 79.483 42.892, 76.886 40, 75.878 40 C 75.395 40, 75.787 40.825, 76.750 41.833 M 49.333 42.667 C 49.700 43.033, 50.300 43.033, 50.667 42.667 C 51.033 42.300, 50.733 42, 50 42 C 49.267 42, 48.967 42.300, 49.333 42.667 M 35 44.167 C 35 44.625, 35.423 45, 35.941 45 C 36.459 45, 37.114 44.625, 37.397 44.167 C 37.680 43.708, 37.257 43.333, 36.456 43.333 C 35.655 43.333, 35 43.708, 35 44.167 M 81.500 45 C 81.840 45.550, 82.343 46, 82.618 46 C 82.893 46, 82.840 45.550, 82.500 45 C 82.160 44.450, 81.657 44, 81.382 44 C 81.107 44, 81.160 44.450, 81.500 45 M 63.750 45.706 C 64.987 45.944, 67.013 45.944, 68.250 45.706 C 69.487 45.467, 68.475 45.272, 66 45.272 C 63.525 45.272, 62.513 45.467, 63.750 45.706 M 79 45.378 C 79 45.585, 79.787 46.373, 80.750 47.128 C 82.336 48.371, 82.371 48.336, 81.128 46.750 C 79.821 45.084, 79 44.555, 79 45.378 M 45 47 C 45 47.733, 45.300 48.033, 45.667 47.667 C 46.033 47.300, 46.033 46.700, 45.667 46.333 C 45.300 45.967, 45 46.267, 45 47 M 47 48 C 47 48.733, 47.300 49.033, 47.667 48.667 C 48.033 48.300, 48.033 47.700, 47.667 47.333 C 47.300 46.967, 47 47.267, 47 48 M 56.405 48.155 C 55.962 48.870, 56.130 49.038, 56.845 48.595 C 57.998 47.883, 58.393 47, 57.559 47 C 57.316 47, 56.797 47.520, 56.405 48.155 M 59.177 48.683 C 55.206 50.640, 50.991 56.479, 51.022 59.982 C 51.041 62.135, 51.310 61.913, 52.880 58.459 C 53.889 56.236, 56.164 53.198, 57.935 51.708 C 61.019 49.113, 62.442 48.542, 68 47.666 C 69.533 47.425, 68.954 47.229, 66.500 47.159 C 64.300 47.097, 61.005 47.782, 59.177 48.683 M 74.333 48.482 C 74.333 49.298, 75.496 50.985, 76.917 52.232 L 79.500 54.500 77 51.669 C 75.625 50.113, 74.650 48.613, 74.833 48.336 C 75.017 48.060, 74.979 47.646, 74.750 47.417 C 74.521 47.188, 74.333 47.667, 74.333 48.482 M 71.333 48.667 C 71.700 49.033, 72.300 49.033, 72.667 48.667 C 73.033 48.300, 72.733 48, 72 48 C 71.267 48, 70.967 48.300, 71.333 48.667 M 84.678 49 C 85.307 49.825, 85.772 52.188, 85.712 54.252 C 85.653 56.315, 86.030 58.424, 86.552 58.938 C 87.147 59.525, 87.573 58.261, 87.696 55.543 C 87.849 52.176, 87.408 50.800, 85.713 49.356 C 84.515 48.335, 84.049 48.175, 84.678 49 M 104.333 48.667 C 104.700 49.033, 105.300 49.033, 105.667 48.667 C 106.033 48.300, 105.733 48, 105 48 C 104.267 48, 103.967 48.300, 104.333 48.667 M 77 49.378 C 77 49.585, 77.787 50.373, 78.750 51.128 C 80.336 52.371, 80.371 52.336, 79.128 50.750 C 77.821 49.084, 77 48.555, 77 49.378 M 26 51 C 26 51.733, 26.300 52.033, 26.667 51.667 C 27.033 51.300, 27.033 50.700, 26.667 50.333 C 26.300 49.967, 26 50.267, 26 51 M 47 51 C 47 51.733, 47.300 52.033, 47.667 51.667 C 48.033 51.300, 48.033 50.700, 47.667 50.333 C 47.300 49.967, 47 50.267, 47 51 M 42.405 54.250 L 40.500 56.500 42.750 54.595 C 44.864 52.805, 45.455 52, 44.655 52 C 44.465 52, 43.453 53.013, 42.405 54.250 M 28.462 53.939 C 28.781 54.455, 28.249 55.321, 27.279 55.864 C 26.310 56.406, 25.887 57.221, 26.340 57.673 C 26.793 58.126, 27.734 57.717, 28.431 56.764 C 29.128 55.811, 30.015 55.348, 30.402 55.735 C 30.789 56.122, 30.809 55.665, 30.446 54.720 C 30.083 53.774, 29.358 53, 28.834 53 C 28.310 53, 28.143 53.422, 28.462 53.939 M 44.004 55.496 C 42.714 56.869, 41.848 58.160, 42.079 58.364 C 42.311 58.569, 43.547 57.446, 44.826 55.868 C 47.689 52.338, 47.185 52.110, 44.004 55.496 M 63.405 54.155 C 62.962 54.870, 63.130 55.038, 63.845 54.595 C 64.480 54.203, 65 53.684, 65 53.441 C 65 52.607, 64.117 53.002, 63.405 54.155 M 68.133 55.250 C 68.910 57.049, 70.043 57.973, 71.411 57.921 C 72.848 57.867, 73.032 57.673, 72 57.301 C 71.175 57.003, 69.700 55.801, 68.723 54.630 C 66.961 52.519, 66.956 52.524, 68.133 55.250 M 65.810 58.497 C 66.214 61.956, 66.183 61.987, 63.010 61.352 C 59.953 60.741, 59.864 60.809, 61.110 62.804 C 62.163 64.490, 62.701 64.664, 63.873 63.699 C 65.124 62.668, 65.157 62.819, 64.114 64.778 C 63.446 66.031, 62.472 66.792, 61.950 66.469 C 61.427 66.146, 61 66.584, 61 67.441 C 61 69.325, 61.124 69.336, 64.213 67.733 C 65.650 66.988, 66.460 65.856, 66.182 64.983 C 65.837 63.904, 66.286 64.013, 67.830 65.384 C 68.998 66.420, 69.712 67.657, 69.417 68.134 C 69.123 68.610, 69.367 69, 69.960 69 C 70.612 69, 70.789 68.007, 70.407 66.487 C 70.028 64.974, 70.318 63.316, 71.138 62.321 C 72.364 60.833, 72.217 60.739, 69.666 61.374 C 67.665 61.873, 67.039 61.747, 67.535 60.944 C 67.921 60.319, 69.510 59.995, 71.066 60.223 C 72.621 60.451, 73.667 60.270, 73.388 59.819 C 73.110 59.369, 71.814 59, 70.508 59 C 69.013 59, 67.900 58.260, 67.500 57 C 66.467 53.746, 65.369 54.718, 65.810 58.497 M 29.186 58.214 C 27.490 59.910, 27.722 60.868, 29.750 60.540 C 30.712 60.384, 32.063 60.704, 32.750 61.251 C 34.748 62.840, 34.244 60.531, 32.186 58.669 C 30.787 57.403, 30.101 57.299, 29.186 58.214 M 49.079 58.583 C 49.127 59.748, 49.364 59.985, 49.683 59.188 C 49.972 58.466, 49.936 57.603, 49.604 57.271 C 49.272 56.939, 49.036 57.529, 49.079 58.583 M 59.750 57.662 C 60.438 57.940, 61.563 57.940, 62.250 57.662 C 62.938 57.385, 62.375 57.158, 61 57.158 C 59.625 57.158, 59.063 57.385, 59.750 57.662 M 64 57.833 C 64 58.475, 62.902 59, 61.559 59 C 60.216 59, 58.890 59.369, 58.612 59.819 C 58.333 60.270, 59.437 60.443, 61.065 60.204 C 64.044 59.767, 65.713 58.380, 64.600 57.267 C 64.270 56.937, 64 57.192, 64 57.833 M 30 59 C 30 59.733, 30.300 60.033, 30.667 59.667 C 31.033 59.300, 31.033 58.700, 30.667 58.333 C 30.300 57.967, 30 58.267, 30 59 M 82 59 C 82 59.733, 82.300 60.033, 82.667 59.667 C 83.033 59.300, 83.033 58.700, 82.667 58.333 C 82.300 57.967, 82 58.267, 82 59 M 89.500 60 C 89.840 60.550, 90.343 61, 90.618 61 C 90.893 61, 90.840 60.550, 90.500 60 C 90.160 59.450, 89.657 59, 89.382 59 C 89.107 59, 89.160 59.450, 89.500 60 M 40 62 C 40 62.733, 40.300 63.033, 40.667 62.667 C 41.033 62.300, 41.033 61.700, 40.667 61.333 C 40.300 60.967, 40 61.267, 40 62 M 88.015 62.604 C 88.007 63.761, 86.875 65.922, 85.500 67.405 C 84.094 68.923, 83 71.306, 83 72.852 C 83 76.192, 81.362 78, 78.335 78 C 77.089 78, 74.437 79.433, 72.443 81.184 C 69.042 84.170, 68.619 84.290, 65.658 83.100 C 62.087 81.666, 61.807 81.625, 57.050 81.842 C 51.847 82.080, 54.788 84.274, 60.716 84.577 C 63.347 84.712, 66.851 85.122, 68.503 85.488 C 70.937 86.028, 71.965 85.666, 73.927 83.577 C 75.259 82.160, 77.395 81, 78.674 81 C 81.849 81, 85 77.600, 85 74.174 C 85 72.453, 85.977 70.431, 87.500 69 C 90.148 66.513, 90.588 64.457, 89 62 C 88.205 60.770, 88.028 60.879, 88.015 62.604 M 43.564 64.293 C 43.940 65.279, 44.499 65.834, 44.807 65.526 C 45.115 65.219, 44.808 64.412, 44.124 63.733 C 43.136 62.753, 43.022 62.868, 43.564 64.293 M 59.500 64 C 59.840 64.550, 60.343 65, 60.618 65 C 60.893 65, 60.840 64.550, 60.500 64 C 60.160 63.450, 59.657 63, 59.382 63 C 59.107 63, 59.160 63.450, 59.500 64 M 71.405 64.155 C 70.962 64.870, 71.130 65.038, 71.845 64.595 C 72.480 64.203, 73 63.684, 73 63.441 C 73 62.607, 72.117 63.002, 71.405 64.155 M 41.500 65 C 41.840 65.550, 42.343 66, 42.618 66 C 42.893 66, 42.840 65.550, 42.500 65 C 42.160 64.450, 41.657 64, 41.382 64 C 41.107 64, 41.160 64.450, 41.500 65 M 49 66 C 49 66.733, 49.300 67.033, 49.667 66.667 C 50.033 66.300, 50.033 65.700, 49.667 65.333 C 49.300 64.967, 49 65.267, 49 66 M 82 66 C 82 66.733, 82.300 67.033, 82.667 66.667 C 83.033 66.300, 83.033 65.700, 82.667 65.333 C 82.300 64.967, 82 65.267, 82 66 M 107.500 66 C 107.840 66.550, 108.343 67, 108.618 67 C 108.893 67, 108.840 66.550, 108.500 66 C 108.160 65.450, 107.657 65, 107.382 65 C 107.107 65, 107.160 65.450, 107.500 66 M 51 67 C 51 67.733, 51.300 68.033, 51.667 67.667 C 52.033 67.300, 52.033 66.700, 51.667 66.333 C 51.300 65.967, 51 66.267, 51 67 M 59.336 67.990 C 59.447 69.680, 60.142 70.545, 61.500 70.682 C 62.939 70.828, 63.027 70.744, 61.811 70.381 C 60.883 70.104, 59.909 68.892, 59.648 67.689 C 59.249 65.854, 59.199 65.903, 59.336 67.990 M 72.079 67.677 C 72.036 68.874, 71.213 70.059, 70.250 70.311 C 68.610 70.739, 68.612 70.775, 70.281 70.884 C 72.221 71.010, 73.494 68.827, 72.673 66.783 C 72.390 66.077, 72.122 66.480, 72.079 67.677 M 80 67 C 80 67.733, 80.300 68.033, 80.667 67.667 C 81.033 67.300, 81.033 66.700, 80.667 66.333 C 80.300 65.967, 80 66.267, 80 67 M 91 67 C 91 67.733, 91.300 68.033, 91.667 67.667 C 92.033 67.300, 92.033 66.700, 91.667 66.333 C 91.300 65.967, 91 66.267, 91 67 M 103.278 67.250 C 101.771 69.197, 100.882 72.191, 102.019 71.489 C 102.566 71.150, 103.284 71.577, 103.614 72.437 C 103.944 73.296, 104.953 73.986, 105.857 73.970 C 107.360 73.942, 107.357 73.856, 105.824 72.961 C 104.682 72.295, 104.268 71.030, 104.526 68.992 C 104.944 65.696, 104.721 65.385, 103.278 67.250 M 42 69 C 42 69.733, 42.300 70.033, 42.667 69.667 C 43.033 69.300, 43.033 68.700, 42.667 68.333 C 42.300 67.967, 42 68.267, 42 69 M 64.632 68.786 C 64.365 69.218, 64.981 69.571, 66 69.571 C 67.019 69.571, 67.635 69.218, 67.368 68.786 C 67.100 68.354, 66.485 68, 66 68 C 65.515 68, 64.900 68.354, 64.632 68.786 M 44.150 71.227 C 44.045 73.143, 44.753 74.447, 46.531 75.612 C 47.923 76.525, 49.332 77.002, 49.660 76.673 C 49.989 76.344, 49.099 75.547, 47.683 74.901 C 46.104 74.182, 44.950 72.715, 44.703 71.114 L 44.300 68.500 44.150 71.227 M 89.405 70.155 C 88.962 70.870, 89.130 71.038, 89.845 70.595 C 90.998 69.883, 91.393 69, 90.559 69 C 90.316 69, 89.797 69.520, 89.405 70.155 M 51.740 72.043 C 52.422 72.778, 53.701 73.486, 54.582 73.615 C 55.462 73.744, 55.880 73.546, 55.508 73.175 C 55.137 72.804, 54.533 72.493, 54.167 72.485 C 53.800 72.476, 52.825 72.073, 52 71.588 C 50.784 70.874, 50.735 70.960, 51.740 72.043 M 79.490 72.016 C 79.144 72.575, 78.474 72.793, 78 72.500 C 77.526 72.207, 76.880 72.385, 76.564 72.896 C 75.753 74.209, 78.776 73.624, 80.210 72.190 C 80.865 71.535, 81.112 71, 80.759 71 C 80.406 71, 79.835 71.457, 79.490 72.016 M 28.500 73 C 28.840 73.550, 29.343 74, 29.618 74 C 29.893 74, 29.840 73.550, 29.500 73 C 29.160 72.450, 28.657 72, 28.382 72 C 28.107 72, 28.160 72.450, 28.500 73 M 42 73 C 42 73.733, 42.300 74.033, 42.667 73.667 C 43.033 73.300, 43.033 72.700, 42.667 72.333 C 42.300 71.967, 42 72.267, 42 73 M 99.232 75 C 98.545 76.100, 98.244 77, 98.563 77 C 99.312 77, 102 74.318, 102 73.571 C 102 72.299, 100.404 73.123, 99.232 75 M 43 76 C 43 76.733, 43.300 77.033, 43.667 76.667 C 44.033 76.300, 44.033 75.700, 43.667 75.333 C 43.300 74.967, 43 75.267, 43 76 M 55.500 76 C 55.840 76.550, 56.343 77, 56.618 77 C 56.893 77, 56.840 76.550, 56.500 76 C 56.160 75.450, 55.657 75, 55.382 75 C 55.107 75, 55.160 75.450, 55.500 76 M 75.405 76.155 C 74.962 76.870, 75.130 77.038, 75.845 76.595 C 76.480 76.203, 77 75.684, 77 75.441 C 77 74.607, 76.117 75.002, 75.405 76.155 M 102 77 C 101.099 77.582, 100.975 77.975, 101.691 77.985 C 102.346 77.993, 103.160 77.550, 103.500 77 C 104.267 75.758, 103.921 75.758, 102 77 M 64.250 77.689 C 65.213 77.941, 66.787 77.941, 67.750 77.689 C 68.713 77.438, 67.925 77.232, 66 77.232 C 64.075 77.232, 63.288 77.438, 64.250 77.689 M 42.199 84.551 C 40.439 88.119, 39.016 91.592, 39.036 92.269 C 39.056 92.946, 40.635 90.167, 42.546 86.093 C 46.850 76.917, 46.572 75.682, 42.199 84.551 M 60.333 78.667 C 60.700 79.033, 61.300 79.033, 61.667 78.667 C 62.033 78.300, 61.733 78, 61 78 C 60.267 78, 59.967 78.300, 60.333 78.667 M 70.333 78.667 C 70.700 79.033, 71.300 79.033, 71.667 78.667 C 72.033 78.300, 71.733 78, 71 78 C 70.267 78, 69.967 78.300, 70.333 78.667 M 40 83 C 40 83.733, 40.300 84.033, 40.667 83.667 C 41.033 83.300, 41.033 82.700, 40.667 82.333 C 40.300 81.967, 40 82.267, 40 83 M 91 83 C 91 83.733, 91.300 84.033, 91.667 83.667 C 92.033 83.300, 92.033 82.700, 91.667 82.333 C 91.300 81.967, 91 82.267, 91 83 M 72.061 87.272 C 71.954 88.629, 77.998 101.335, 78.508 100.825 C 78.778 100.555, 77.452 97.221, 75.561 93.417 C 73.670 89.613, 72.095 86.847, 72.061 87.272 M 101.553 88.915 C 101.231 89.436, 101.394 90.125, 101.915 90.447 C 102.436 90.769, 103.125 90.606, 103.447 90.085 C 103.769 89.564, 103.606 88.875, 103.085 88.553 C 102.564 88.231, 101.875 88.394, 101.553 88.915 M 104.500 91 C 104.160 91.550, 104.359 92, 104.941 92 C 105.523 92, 106 91.550, 106 91 C 106 90.450, 105.802 90, 105.559 90 C 105.316 90, 104.840 90.450, 104.500 91 M 36.079 92.583 C 36.127 93.748, 36.364 93.985, 36.683 93.188 C 36.972 92.466, 36.936 91.603, 36.604 91.271 C 36.272 90.939, 36.036 91.529, 36.079 92.583 M 95.079 92.583 C 95.127 93.748, 95.364 93.985, 95.683 93.188 C 95.972 92.466, 95.936 91.603, 95.604 91.271 C 95.272 90.939, 95.036 91.529, 95.079 92.583 M 59 94 C 59 94.733, 59.300 95.033, 59.667 94.667 C 60.033 94.300, 60.033 93.700, 59.667 93.333 C 59.300 92.967, 59 93.267, 59 94 M 72 94 C 72 94.733, 72.300 95.033, 72.667 94.667 C 73.033 94.300, 73.033 93.700, 72.667 93.333 C 72.300 92.967, 72 93.267, 72 94 M 46.333 94.667 C 46.700 95.033, 47.300 95.033, 47.667 94.667 C 48.033 94.300, 47.733 94, 47 94 C 46.267 94, 45.967 94.300, 46.333 94.667 M 84.333 94.667 C 84.700 95.033, 85.300 95.033, 85.667 94.667 C 86.033 94.300, 85.733 94, 85 94 C 84.267 94, 83.967 94.300, 84.333 94.667 M 88.333 95.667 C 88.700 96.033, 89.300 96.033, 89.667 95.667 C 90.033 95.300, 89.733 95, 89 95 C 88.267 95, 87.967 95.300, 88.333 95.667 M 83 97 C 83 97.733, 83.300 98.033, 83.667 97.667 C 84.033 97.300, 84.033 96.700, 83.667 96.333 C 83.300 95.967, 83 96.267, 83 97 M 52.813 102.683 C 53.534 102.972, 54.397 102.936, 54.729 102.604 C 55.061 102.272, 54.471 102.036, 53.417 102.079 C 52.252 102.127, 52.015 102.364, 52.813 102.683 M 77.813 102.683 C 78.534 102.972, 79.397 102.936, 79.729 102.604 C 80.061 102.272, 79.471 102.036, 78.417 102.079 C 77.252 102.127, 77.015 102.364, 77.813 102.683 M 35.295 104.448 C 34.344 105.531, 34.396 105.938, 35.545 106.379 C 36.515 106.751, 37 106.281, 37 104.969 C 37 102.665, 36.891 102.631, 35.295 104.448 M 92.500 105 C 92.840 105.550, 93.343 106, 93.618 106 C 93.893 106, 93.840 105.550, 93.500 105 C 93.160 104.450, 92.657 104, 92.382 104 C 92.107 104, 92.160 104.450, 92.500 105 M 82.333 112.667 C 82.700 113.033, 83.300 113.033, 83.667 112.667 C 84.033 112.300, 83.733 112, 83 112 C 82.267 112, 81.967 112.300, 82.333 112.667" stroke="none" fill="#d3b253" fill-rule="evenodd"/>
</svg>