<svg id="EverStakeIcon" xmlns="http://www.w3.org/2000/svg" xmlns:xlink="http://www.w3.org/1999/xlink" viewBox="0 0 479 479">
  <defs>
    <style>
      .IconBG {
        fill: url(#IconBGGrad);
      }

      .CircleBG2 {
        fill: url(#CircleBG2Grad);
      }

      .CircleBG1 {
        fill: url(#CircleBG1Grad);
      }

      .Arrow {
        fill: #fefefe;
      }

      .Pot {
        fill: url(#PotGrad);
      }
    </style>
    <linearGradient id="IconBGGrad" x1="475.83033" y1="432.12958" x2="44.31036" y2="82.22954" gradientTransform="matrix(1, 0, 0, -1, 0, 480)" gradientUnits="userSpaceOnUse">
      <stop offset="0.16" stop-color="#fba84c"/>
      <stop offset="0.49" stop-color="#f46c33"/>
      <stop offset="0.7" stop-color="#d85137"/>
      <stop offset="1" stop-color="#a7233f"/>
    </linearGradient>
    <linearGradient id="CircleBG2Grad" x1="90.49345" y1="155.87438" x2="283.00198" y2="155.87438" gradientTransform="matrix(1, 0, 0, -1, -10.5, 469.5)" gradientUnits="userSpaceOnUse">
      <stop offset="0" stop-color="#1d3152"/>
      <stop offset="0.55" stop-color="#1d3051"/>
    </linearGradient>
    <linearGradient id="CircleBG1Grad" x1="103.95999" y1="166.57999" x2="249.28" y2="166.57999" gradientTransform="matrix(1, 0, 0, -1, 0, 480)" gradientUnits="userSpaceOnUse">
      <stop offset="0" stop-color="#1d3152"/>
      <stop offset="0" stop-color="#18223d"/>
      <stop offset="0.04" stop-color="#182039"/>
      <stop offset="0.15" stop-color="#192543"/>
      <stop offset="0.31" stop-color="#1a2a4c"/>
      <stop offset="0.55" stop-color="#1a2c4f"/>
      <stop offset="0.72" stop-color="#1a2a4c"/>
      <stop offset="0.85" stop-color="#192542"/>
      <stop offset="0.91" stop-color="#18213b"/>
      <stop offset="0.95" stop-color="#18203a"/>
      <stop offset="1" stop-color="#171d35"/>
    </linearGradient>
    <linearGradient id="PotGrad" x1="193.07691" y1="253.80451" x2="385.62093" y2="253.80451" gradientTransform="matrix(1, 0, 0, -1, -10.5, 469.5)" gradientUnits="userSpaceOnUse">
      <stop offset="0" stop-color="#0f1e38"/>
      <stop offset="0.5" stop-color="#233864"/>
      <stop offset="0.64" stop-color="#21355f"/>
      <stop offset="0.81" stop-color="#1a2d51"/>
      <stop offset="0.99" stop-color="#101f39"/>
      <stop offset="1" stop-color="#0f1e38"/>
    </linearGradient>
  </defs>
  <circle class="IconBG" cx="239.5" cy="239.5" r="239.5"/>
  <path class="CircleBG2" d="M80.01,314.5c-1-52.78,43.44-98.29,98.9-96.86,51.33,1.33,94.71,44,93.57,97.62-.55,25.9-10,48.16-28.3,66.35-19.57,19.45-43.48,28.67-71.12,28C122.5,408.5,80.1,367.06,80.01,314.5Z"/>
  <circle class="CircleBG1" cx="176.62" cy="313.42001" r="72.66"/>
  <path class="Arrow" d="M172.27,291.76c-6.43,4.95-12.85,9.86-19.23,14.83q-10.22,8-20.35,16.05c-1.85,1.48-2.55-.17-3.66-1-1.37-1-1.08-1.82-.13-3q13.6-17.08,27.1-34.27c6.36-8.06,12.76-16.08,19-24.2,1.1-1.42,1.52-1.32,2.57,0q23,29.24,46.06,58.34c1.08,1.37.86,2.14-.35,2.93-1,.68-1.37,2.81-3.5,1.13-8.3-6.58-16.75-13-25.18-19.41-4.66-3.55-9.1-7.41-13.72-11-.26-.2-.56-.35-1.24-.77,1.27,6.26,2.44,12.11,3.65,18q6.48,31.38,13,62.77a10.17023,10.17023,0,0,0,.27,2.08c1,1.76-.16,2.05-1.44,2.49a53.48973,53.48973,0,0,1-14.6,2.51A67.2307,67.2307,0,0,1,158.17,377c-1.91-.55-2.6-1.15-2.19-3.41,1.64-8.95,3.58-17.83,5.5-26.73,3.77-17.52,7.32-35.09,11-52.65A2.72,2.72,0,0,0,172.27,291.76Z"/>
  <path class="Pot" d="M271.73,134.21c-10.66-13.35-22.71-24-38.06-30.34,20.44,14.5,35.48,33,43,57.89,6.66-19.21,18.73-33.4,35.39-43.89-11.76,4.13-21.07,11.75-29.89,21.38a114.58732,114.58732,0,0,1,.41-13.92c.94-10.11,4.23-19.17,11.61-26.33,5.44-5.29,12.42-8.08,19.34-10.81,10.85-4.29,22.23-6.19,33.75-7.42,1.61-.17,3.17.22,3.93,1.65a4.93,4.93,0,0,1-.23,5,91.16325,91.16325,0,0,0-5.27,9.79c-3,6.61-3.69,13.75-4.61,20.77-1.82,14-9.24,23.35-22.26,28.38-6.74,2.61-13.83,4.38-21,4.1-6.4-.25-9.41,2.82-11.75,8a89.31939,89.31939,0,0,0-6.59,19.85c-.62,3.16-2.73,1.89-4.41,2.21-1.93.38-2.48-.63-2.85-2.29-1.46-6.48-4.29-12.43-7.25-18.32a80.00271,80.00271,0,0,0-5-9.5c-.54-.78-1-1.37-2-1.44a104.52938,104.52938,0,0,1-20.49-3.11c-8.35-2.25-16.34-5.42-23.39-10.59-10-7.31-15-17.39-16.55-29.44-1-8.08-.73-16.32-3-24.21-2.11-7.25-4.31-14.49-8.55-20.88-1.14-1.71-1.83-3.55-.63-5.44s3.12-1.8,5.12-1.51a162.71,162.71,0,0,1,47.69,13.64c11.39,5.31,21.69,12,27.79,23.53,3.51,6.65,5.13,13.84,6,21.28a98.75981,98.75981,0,0,1,.08,20.12C272.01,132.77,271.91,133.18,271.73,134.21Zm2.32,51.61q-44.37,0-88.73-.06c-2.25,0-2.79.61-2.74,2.8.14,6.46.1,12.92,0,19.39,0,1.67.42,2.29,2.17,2.41a104.56043,104.56043,0,0,1,30.89,7.14,9.7,9.7,0,0,0,3.58.77h144c1.91,0,2.33-.58,2.31-2.39-.09-9-.13-18.07,0-27.1,0-2.41-.59-3.05-3-3-29.49.09-59,.06-88.47.06Zm-9.95,71.15a2.78,2.78,0,0,0,2.72,1.15q52.2,0,104.39.05c1.93,0,2.32-.61,2.3-2.4-.09-9-.13-18.07,0-27.09,0-2.42-.59-3.05-3-3.05q-67.72.12-135.46.06h-2.29A114.65972,114.65972,0,0,1,264.1,256.97ZM261.75,377.7q52.47,0,104.94.06c1.71,0,2.05-.57,2-2.13-.07-9.3-.09-18.6,0-27.89,0-2-.46-2.52-2.48-2.52q-43.42.12-86.87,0c-1.82,0-2.61.51-3.16,2.27a101.78058,101.78058,0,0,1-13.68,27.48c-.53.78-1.36,1.39-1.5,2.62A5.45841,5.45841,0,0,0,261.75,377.7Zm65.3-39.31q22.71,0,45.41.05c2,0,2.69-.45,2.66-2.6q-.18-13.66,0-27.35c0-2.15-.63-2.61-2.66-2.59-13.81.09-27.62.05-41.43.05H283.5c-1.18,0-2.44-.43-2.25,1.76a95.88982,95.88982,0,0,1-1.93,28.22c-.46,2.17.07,2.47,2.05,2.46,15.23-.07,30.45,0,45.68,0Zm-47.12-41.71c.32,1.68,1.42,1.28,2.39,1.28q41.57,0,83.12.07c1.74,0,2.24-.47,2.23-2.21-.09-9.21-.13-18.42,0-27.62,0-2.32-.71-2.7-2.83-2.7q-46.35.12-92.69.07h-2.9A105.46988,105.46988,0,0,1,279.93,296.68Z"/>
</svg>
