<svg version="1.1" class="SunIcon" x="0px" y="0px" viewBox="0 0 31 31.3" xml:space="preserve" xmlns="http://www.w3.org/2000/svg" xmlns:xlink="http://www.w3.org/1999/xlink">
<defs>
  <style>
    #sun{fill:white;}
  </style>
</defs>
  <path id="sun" d="M15,0.4c0.7-0.3,1.6,0.2,1.6,0.9c0,0.8,0,1.7,0,2.5c0,0.4-0.3,0.9-0.7,1.1c-0.4,0.2-1,0.1-1.3-0.2 c-0.3-0.2-0.4-0.6-0.4-0.9c0-0.8,0-1.6,0-2.4C14.3,1,14.6,0.6,15,0.4z M4.3,5.5c-0.1,0.4,0.1,0.8,0.4,1c0.6,0.6,1.1,1.1,1.7,1.7 C6.6,8.5,7,8.6,7.4,8.5c0.5-0.1,0.9-0.5,0.9-1c0.1-0.4-0.1-0.8-0.4-1.1C7.3,5.9,6.8,5.4,6.3,4.8C6,4.6,5.6,4.4,5.2,4.5 C4.7,4.6,4.3,5,4.3,5.5z M24.7,4.9c-0.5,0.5-1,1-1.5,1.5C23,6.5,22.8,6.8,22.7,7c-0.2,0.5,0.1,1.1,0.6,1.4c0.4,0.2,1,0.2,1.4-0.2 c0.6-0.6,1.1-1.1,1.7-1.7c0.4-0.4,0.4-0.9,0.2-1.4c-0.2-0.5-0.8-0.7-1.4-0.6C25,4.6,24.8,4.7,24.7,4.9z M10.6,10.6 c-1.1,1-1.8,2.4-2.1,3.8c-0.3,1.6,0,3.3,0.7,4.7c0.9,1.6,2.4,2.9,4.2,3.4c1.7,0.5,3.5,0.4,5.1-0.4c1.6-0.8,2.8-2.1,3.5-3.7 c0.7-1.6,0.7-3.5,0.1-5.2c-0.6-1.6-1.8-2.9-3.3-3.8c-1.4-0.7-3-1-4.5-0.8C13,8.9,11.6,9.6,10.6,10.6z M17.5,11.5 c0.9,0.4,1.7,1.2,2.2,2.1c0.6,1.1,0.7,2.4,0.3,3.6c-0.3,0.9-0.9,1.8-1.7,2.4c-0.8,0.6-1.9,1-3,0.9c-1.1,0-2.2-0.5-3-1.2 c-0.7-0.6-1.2-1.5-1.5-2.4c-0.3-1.1-0.1-2.3,0.4-3.3c0.7-1.4,2.1-2.4,3.6-2.6C15.8,10.9,16.7,11.1,17.5,11.5z M0.1,15.9 c0.1,0.6,0.6,1.1,1.2,1.1c0.8,0,1.6,0,2.4,0c0.4,0,0.9-0.3,1.1-0.7c0.2-0.4,0.2-0.9-0.1-1.3c-0.2-0.3-0.6-0.5-1-0.5 c-0.7,0-1.4,0-2.1,0c-0.2,0-0.4,0-0.6,0C0.4,14.7,0,15.3,0.1,15.9z M26.3,16.3c0.2,0.4,0.6,0.7,1.1,0.7c0.8,0,1.6,0,2.4,0 c0.6,0,1.1-0.6,1.1-1.2c0-0.6-0.5-1.2-1.1-1.2c-0.7,0-1.4,0-2.2,0c-0.2,0-0.4,0-0.6,0C26.3,14.7,25.9,15.6,26.3,16.3z M6.2,23.4 c-0.5,0.5-1.1,1.1-1.6,1.6c-0.3,0.3-0.4,0.6-0.3,1c0.1,0.4,0.4,0.8,0.8,1c0.4,0.1,0.9,0,1.2-0.3c0.6-0.6,1.1-1.1,1.7-1.7 c0.3-0.3,0.4-0.9,0.2-1.3c-0.2-0.5-0.9-0.8-1.5-0.6C6.5,23.1,6.3,23.2,6.2,23.4z M22.9,24.8c0.5,0.5,0.9,1,1.4,1.4 c0.2,0.2,0.4,0.5,0.8,0.6c0.4,0.2,1,0.1,1.3-0.3c0.4-0.4,0.5-1.2,0-1.6c-0.6-0.6-1.1-1.1-1.7-1.7c-0.3-0.3-0.8-0.5-1.2-0.3 C22.8,23.2,22.4,24.2,22.9,24.8z M14.3,27.5c0,0.8,0,1.6,0,2.4c0,0.3,0.1,0.5,0.2,0.7c0.3,0.4,0.8,0.6,1.2,0.5 c0.5-0.1,0.9-0.6,0.9-1.1c0-0.8,0-1.7,0-2.5c0-0.7-0.9-1.3-1.6-1C14.7,26.6,14.3,27.1,14.3,27.5z"></path>
</svg>