<svg xmlns="http://www.w3.org/2000/svg" viewBox="0 0 759 759" version="1.1">
<path d="M 380.500 82.712 C 378.300 82.918, 375.082 83.742, 373.349 84.543 C 371.616 85.345, 369.591 86.007, 368.849 86.015 C 362.790 86.080, 344.015 96.581, 336.182 104.286 C 329.100 111.250, 321.636 121.332, 320.649 125.263 C 319.786 128.702, 317.375 131, 314.629 131 C 313.403 131, 311.935 131.465, 311.366 132.034 C 310.797 132.603, 308.120 133.480, 305.416 133.983 C 288.752 137.086, 273.791 143.097, 247.500 157.251 C 221.575 171.209, 207.688 181.214, 189.696 198.896 C 176.099 212.258, 159 232.326, 159 234.922 C 159 235.372, 156.737 238.836, 153.972 242.620 C 149.262 249.064, 144.418 258.087, 138.735 271 C 137.404 274.025, 135.569 278.203, 134.658 280.284 C 133.746 282.365, 133 284.734, 133 285.547 C 133 286.361, 132.610 287.809, 132.134 288.764 C 130.789 291.461, 128.882 297.145, 128.030 301 C 127.604 302.925, 126.748 305.767, 126.128 307.315 C 125.508 308.863, 125 313.633, 125 317.915 C 125 324.927, 125.286 326.087, 127.884 329.600 C 133.290 336.911, 140.488 342.819, 150.500 348.163 L 160.500 353.500 188.500 353.470 C 215.064 353.441, 216.782 353.325, 222 351.220 C 225.025 350, 228.426 349.001, 229.559 349.001 C 230.691 349, 232.491 348.339, 233.559 347.532 C 234.626 346.724, 236.872 346.049, 238.550 346.032 C 240.227 346.014, 242.027 345.608, 242.550 345.129 C 243.072 344.649, 246.200 343.472, 249.500 342.512 C 262.031 338.868, 282.880 329.514, 291.505 323.667 C 293.263 322.475, 306.131 313.808, 320.101 304.406 C 334.070 295.004, 346.149 286.529, 346.942 285.572 C 349.015 283.072, 361.480 277, 364.541 277 C 365.966 277, 368.114 276.452, 369.316 275.783 C 370.517 275.114, 376.225 274.251, 382 273.866 C 394.648 273.022, 403.880 271.520, 405.332 270.068 C 405.919 269.481, 407.609 269, 409.086 269 C 410.563 269, 413.060 268.328, 414.636 267.506 C 416.211 266.685, 418.266 266.010, 419.203 266.006 C 420.140 266.003, 421.940 265.595, 423.203 265.100 C 424.466 264.606, 427.413 263.688, 429.750 263.060 C 432.087 262.433, 434 261.333, 434 260.615 C 434 258.906, 430.752 256, 428.843 256 C 426.121 256, 418.250 250.017, 416.999 246.998 C 416.291 245.289, 416.046 242.569, 416.420 240.577 C 417.336 235.690, 421.568 233.409, 431.123 232.651 C 435.316 232.319, 439.958 231.586, 441.438 231.023 C 445.001 229.669, 489.434 229.680, 494.007 231.036 C 495.928 231.606, 500.200 232.455, 503.500 232.922 C 506.800 233.389, 510.850 234.245, 512.500 234.824 C 514.150 235.403, 517.525 236.394, 520 237.026 C 524.731 238.234, 529.492 240.115, 534.500 242.755 C 536.150 243.624, 539.054 245.159, 540.954 246.164 C 542.854 247.170, 546.116 249.660, 548.204 251.699 C 551.663 255.077, 552 255.880, 552 260.753 C 552 263.819, 551.284 267.464, 550.322 269.300 C 547.277 275.107, 546.653 281.239, 546.635 305.500 C 546.616 331.720, 547.142 335.491, 551.872 343.101 C 553.592 345.869, 555 348.359, 555 348.636 C 555 351.586, 572.233 371, 574.851 371 C 575.957 371, 576.119 369.979, 575.605 366.250 C 574.160 355.770, 573.786 339.424, 574.897 335.341 C 575.519 333.053, 578.047 328.440, 580.514 325.088 L 585 318.994 585 305.997 C 585 291.095, 585.047 291.038, 593.890 295.136 C 599.537 297.752, 601.076 298.399, 607.799 300.977 C 610.714 302.095, 614.989 303.970, 617.299 305.144 C 622.567 307.820, 636.973 321.711, 642.040 329 C 644.142 332.025, 647.356 336.061, 649.181 337.969 L 652.500 341.437 652.789 333.338 C 653.083 325.059, 651.228 311.272, 648.974 305 C 648.282 303.075, 647.074 299.700, 646.288 297.500 C 640.913 282.448, 632.712 269.738, 620.492 257.517 C 609.898 246.924, 602.729 241.868, 587.448 234.215 C 576.231 228.597, 572.687 225.275, 566.500 214.582 C 560.175 203.649, 536.591 180.522, 521.720 170.670 C 510.103 162.974, 473.816 144, 470.713 144 C 469.836 144, 468.840 143.550, 468.500 143 C 468.160 142.450, 467.065 142, 466.065 142 C 465.066 142, 461.605 140.811, 458.374 139.358 C 452.886 136.890, 451.011 136.322, 441.250 134.175 C 439.188 133.721, 436.517 132.821, 435.316 132.175 C 434.114 131.529, 431.947 131, 430.500 131 C 429.053 131, 426.886 130.454, 425.684 129.787 C 424.483 129.119, 420.800 128.236, 417.500 127.825 C 411.235 127.044, 403.005 125.834, 392 124.078 C 388.425 123.507, 383.087 123.031, 380.139 123.020 L 374.777 123 375.455 119.250 C 377.045 110.455, 386.598 93.545, 393.920 86.563 C 395.614 84.948, 397 83.260, 397 82.813 C 397 82.017, 388.455 81.965, 380.500 82.712 M 189.396 402.411 C 189.098 403.187, 190.024 405.590, 191.454 407.750 C 194.736 412.710, 195.106 414.313, 195.726 426.258 C 196.366 438.581, 195.205 443.212, 189.222 452.205 L 184.500 459.301 184.175 471.901 C 183.997 478.830, 183.451 484.910, 182.963 485.412 C 182.433 485.957, 180.550 485.279, 178.288 483.730 C 176.205 482.303, 173.150 480.599, 171.500 479.943 C 169.850 479.287, 167.600 478.369, 166.500 477.903 C 165.400 477.437, 162.025 476.107, 159 474.949 C 155.975 473.790, 151.925 471.888, 150 470.722 C 145.036 467.715, 133.336 456.322, 129.746 451 C 128.076 448.525, 125.502 445.150, 124.026 443.500 C 122.550 441.850, 120.741 438.581, 120.006 436.236 C 118.449 431.266, 116.455 429.145, 114.848 430.752 C 113.076 432.524, 116.345 458.478, 119.981 471.500 C 121.032 475.263, 122.427 479.238, 126.119 488.989 C 126.846 490.907, 130.413 496.982, 134.046 502.489 C 142.124 514.732, 159.217 531.500, 169.626 537.391 C 180.318 543.442, 185.390 545.991, 186.747 545.996 C 189.185 546.004, 196.355 553.606, 202.301 562.487 C 216.769 584.096, 224.648 591.874, 248.836 608.425 C 253.421 611.562, 257.921 614.404, 258.836 614.741 C 259.751 615.077, 261.850 616.366, 263.500 617.605 C 265.151 618.843, 271.226 621.957, 277 624.523 C 282.775 627.090, 290.200 630.446, 293.500 631.981 C 296.800 633.516, 301.300 635.325, 303.500 636.001 C 305.700 636.677, 308.850 637.779, 310.500 638.451 C 316.366 640.837, 320.538 642.236, 323.262 642.730 C 324.781 643.005, 326.271 643.629, 326.571 644.115 C 326.872 644.602, 328.432 645, 330.039 645 C 331.645 645, 334.656 645.613, 336.730 646.362 C 346.464 649.877, 370.262 654.066, 384.250 654.727 C 393.714 655.174, 394 655.257, 394 657.560 C 394 662.943, 384.526 681.318, 378.261 688.085 C 375.367 691.210, 373 694.270, 373 694.884 C 373 696.662, 391.025 696.296, 393.441 694.468 C 394.509 693.661, 396.845 693, 398.632 693 C 400.420 693, 402.160 692.550, 402.500 692 C 402.840 691.450, 404.048 691, 405.185 691 C 406.321 691, 411.676 688.686, 417.083 685.858 C 425.159 681.635, 428.411 679.178, 435.286 672.108 C 440.699 666.541, 445.134 660.799, 447.841 655.853 C 451.387 649.373, 452.637 647.962, 456.033 646.603 C 458.237 645.722, 461.355 645, 462.961 645 C 464.568 645, 466.160 644.550, 466.500 644 C 466.840 643.450, 468.246 643, 469.625 643 C 471.003 643, 473.104 642.480, 474.292 641.844 C 475.481 641.208, 477.814 640.347, 479.476 639.931 C 483.078 639.031, 487.698 637.389, 494.500 634.591 C 502.861 631.151, 532.194 616.130, 537.226 612.711 C 539.825 610.945, 545.225 607.347, 549.226 604.715 C 562.842 595.757, 567.493 591.932, 580.843 578.713 C 596.328 563.378, 601.507 557.148, 613.066 539.952 C 622.362 526.122, 632.466 506.085, 635.985 494.500 C 636.653 492.300, 637.830 489.226, 638.600 487.669 C 639.370 486.112, 640 483.776, 640 482.478 C 640 481.180, 640.450 479.840, 641 479.500 C 641.550 479.160, 642.003 477.446, 642.006 475.691 C 642.010 473.936, 642.685 471.211, 643.506 469.636 C 645.608 465.605, 645.514 453.219, 643.357 449.973 C 642.453 448.613, 638.741 444.426, 635.107 440.670 C 628.545 433.886, 617.451 427, 613.084 427 C 612.003 427, 610.840 426.550, 610.500 426 C 610.160 425.450, 608.805 425, 607.490 425 C 606.174 425, 602.506 424.325, 599.339 423.500 C 592.856 421.812, 575.366 421.575, 567.500 423.069 C 564.750 423.592, 560.025 424.444, 557 424.963 C 545.885 426.869, 542.396 427.637, 541.040 428.475 C 540.278 428.946, 538.044 429.663, 536.077 430.068 C 534.110 430.473, 531.150 431.270, 529.500 431.840 C 527.850 432.410, 524.475 433.405, 522 434.051 C 519.525 434.697, 514.125 436.575, 510 438.223 C 505.875 439.871, 501.375 441.666, 500 442.211 C 493.964 444.604, 476.842 453.992, 474 456.467 C 473.175 457.185, 463.050 464.136, 451.500 471.914 C 439.950 479.691, 428.250 487.841, 425.500 490.025 C 420.865 493.706, 416.281 496.230, 406.716 500.364 C 404.635 501.264, 400.724 502, 398.025 502 C 395.326 502, 392.840 502.450, 392.500 503 C 392.160 503.550, 387.746 504.016, 382.691 504.035 C 376.615 504.059, 372.653 504.555, 371 505.500 C 369.625 506.286, 367.233 506.945, 365.684 506.965 C 364.136 506.984, 361.886 507.529, 360.684 508.175 C 359.483 508.821, 356.700 509.742, 354.500 510.221 C 352.300 510.700, 348.925 511.446, 347 511.880 C 342.692 512.851, 335 516.724, 335 517.922 C 335 518.825, 340.541 522.514, 345 524.579 C 351.881 527.767, 355.469 534.292, 352.879 538.906 C 349.389 545.124, 339.715 546.515, 300.500 546.442 C 273.662 546.391, 268.980 546.156, 265.628 544.692 C 263.498 543.761, 260.497 543, 258.959 543 C 257.421 543, 254.888 542.370, 253.331 541.600 C 251.774 540.830, 248.700 539.660, 246.500 539.001 C 238.229 536.521, 225.995 529.718, 221.990 525.373 C 218.606 521.702, 218.007 520.395, 218.044 516.772 C 218.068 514.423, 218.784 510.700, 219.634 508.500 C 220.484 506.300, 221.559 502.078, 222.022 499.118 C 222.485 496.159, 223.344 493.256, 223.932 492.668 C 225.707 490.893, 225.339 455.055, 223.500 450.654 C 222.675 448.680, 221.999 446.037, 221.998 444.782 C 221.995 441.756, 214.881 428.010, 209.431 420.500 C 204.092 413.142, 192.674 401, 191.095 401 C 190.458 401, 189.694 401.635, 189.396 402.411" stroke="none" fill="#051541" fill-rule="evenodd"/><path d="M 354 14.650 C 316.766 18.164, 293.046 22.944, 263 32.988 C 210.987 50.375, 164.867 78.705, 124.629 117.984 C 94.999 146.908, 73.240 176.082, 54.856 211.533 C 35.365 249.120, 23.944 284.570, 17.336 328 C 14.208 348.557, 13.037 389.708, 14.939 412.245 C 20.840 482.169, 47.575 550.382, 90.854 605.943 C 137.085 665.293, 200.681 709.076, 273 731.344 C 296.919 738.709, 321.816 743.538, 348.500 745.988 C 362.756 747.297, 397.320 747.280, 412 745.956 C 519.830 736.235, 616.617 680.397, 679.729 591.500 C 707.868 551.864, 729.526 501.463, 739.014 453.536 C 743.827 429.222, 745.097 417.114, 745.701 389.780 C 746.337 360.958, 745.270 343.903, 741.380 320.748 C 730.790 257.708, 705.294 200.593, 665.380 150.500 C 654.107 136.352, 623.648 105.893, 609.500 94.620 C 551.788 48.635, 483.520 21.340, 410.500 15.054 C 399.579 14.114, 362.494 13.849, 354 14.650 M 380.500 82.712 C 378.300 82.918, 375.082 83.742, 373.349 84.543 C 371.616 85.345, 369.591 86.007, 368.849 86.015 C 362.790 86.080, 344.015 96.581, 336.182 104.286 C 329.100 111.250, 321.636 121.332, 320.649 125.263 C 319.786 128.702, 317.375 131, 314.629 131 C 313.403 131, 311.935 131.465, 311.366 132.034 C 310.797 132.603, 308.120 133.480, 305.416 133.983 C 288.752 137.086, 273.791 143.097, 247.500 157.251 C 221.575 171.209, 207.688 181.214, 189.696 198.896 C 176.099 212.258, 159 232.326, 159 234.922 C 159 235.372, 156.737 238.836, 153.972 242.620 C 149.262 249.064, 144.418 258.087, 138.735 271 C 137.404 274.025, 135.569 278.203, 134.658 280.284 C 133.746 282.365, 133 284.734, 133 285.547 C 133 286.361, 132.610 287.809, 132.134 288.764 C 130.789 291.461, 128.882 297.145, 128.030 301 C 127.604 302.925, 126.748 305.767, 126.128 307.315 C 125.508 308.863, 125 313.633, 125 317.915 C 125 324.927, 125.286 326.087, 127.884 329.600 C 133.290 336.911, 140.488 342.819, 150.500 348.163 L 160.500 353.500 188.500 353.470 C 215.064 353.441, 216.782 353.325, 222 351.220 C 225.025 350, 228.426 349.001, 229.559 349.001 C 230.691 349, 232.491 348.339, 233.559 347.532 C 234.626 346.724, 236.872 346.049, 238.550 346.032 C 240.227 346.014, 242.027 345.608, 242.550 345.129 C 243.072 344.649, 246.200 343.472, 249.500 342.512 C 262.031 338.868, 282.880 329.514, 291.505 323.667 C 293.263 322.475, 306.131 313.808, 320.101 304.406 C 334.070 295.004, 346.149 286.529, 346.942 285.572 C 349.015 283.072, 361.480 277, 364.541 277 C 365.966 277, 368.114 276.452, 369.316 275.783 C 370.517 275.114, 376.225 274.251, 382 273.866 C 394.648 273.022, 403.880 271.520, 405.332 270.068 C 405.919 269.481, 407.609 269, 409.086 269 C 410.563 269, 413.060 268.328, 414.636 267.506 C 416.211 266.685, 418.266 266.010, 419.203 266.006 C 420.140 266.003, 421.940 265.595, 423.203 265.100 C 424.466 264.606, 427.413 263.688, 429.750 263.060 C 432.087 262.433, 434 261.333, 434 260.615 C 434 258.906, 430.752 256, 428.843 256 C 426.121 256, 418.250 250.017, 416.999 246.998 C 416.291 245.289, 416.046 242.569, 416.420 240.577 C 417.336 235.690, 421.568 233.409, 431.123 232.651 C 435.316 232.319, 439.958 231.586, 441.438 231.023 C 445.001 229.669, 489.434 229.680, 494.007 231.036 C 495.928 231.606, 500.200 232.455, 503.500 232.922 C 506.800 233.389, 510.850 234.245, 512.500 234.824 C 514.150 235.403, 517.525 236.394, 520 237.026 C 524.731 238.234, 529.492 240.115, 534.500 242.755 C 536.150 243.624, 539.054 245.159, 540.954 246.164 C 542.854 247.170, 546.116 249.660, 548.204 251.699 C 551.663 255.077, 552 255.880, 552 260.753 C 552 263.819, 551.284 267.464, 550.322 269.300 C 547.277 275.107, 546.653 281.239, 546.635 305.500 C 546.616 331.720, 547.142 335.491, 551.872 343.101 C 553.592 345.869, 555 348.359, 555 348.636 C 555 351.586, 572.233 371, 574.851 371 C 575.957 371, 576.119 369.979, 575.605 366.250 C 574.160 355.770, 573.786 339.424, 574.897 335.341 C 575.519 333.053, 578.047 328.440, 580.514 325.088 L 585 318.994 585 305.997 C 585 291.095, 585.047 291.038, 593.890 295.136 C 599.537 297.752, 601.076 298.399, 607.799 300.977 C 610.714 302.095, 614.989 303.970, 617.299 305.144 C 622.567 307.820, 636.973 321.711, 642.040 329 C 644.142 332.025, 647.356 336.061, 649.181 337.969 L 652.500 341.437 652.789 333.338 C 653.083 325.059, 651.228 311.272, 648.974 305 C 648.282 303.075, 647.074 299.700, 646.288 297.500 C 640.913 282.448, 632.712 269.738, 620.492 257.517 C 609.898 246.924, 602.729 241.868, 587.448 234.215 C 576.231 228.597, 572.687 225.275, 566.500 214.582 C 560.175 203.649, 536.591 180.522, 521.720 170.670 C 510.103 162.974, 473.816 144, 470.713 144 C 469.836 144, 468.840 143.550, 468.500 143 C 468.160 142.450, 467.065 142, 466.065 142 C 465.066 142, 461.605 140.811, 458.374 139.358 C 452.886 136.890, 451.011 136.322, 441.250 134.175 C 439.188 133.721, 436.517 132.821, 435.316 132.175 C 434.114 131.529, 431.947 131, 430.500 131 C 429.053 131, 426.886 130.454, 425.684 129.787 C 424.483 129.119, 420.800 128.236, 417.500 127.825 C 411.235 127.044, 403.005 125.834, 392 124.078 C 388.425 123.507, 383.087 123.031, 380.139 123.020 L 374.777 123 375.455 119.250 C 377.045 110.455, 386.598 93.545, 393.920 86.563 C 395.614 84.948, 397 83.260, 397 82.813 C 397 82.017, 388.455 81.965, 380.500 82.712 M 189.396 402.411 C 189.098 403.187, 190.024 405.590, 191.454 407.750 C 194.736 412.710, 195.106 414.313, 195.726 426.258 C 196.366 438.581, 195.205 443.212, 189.222 452.205 L 184.500 459.301 184.175 471.901 C 183.997 478.830, 183.451 484.910, 182.963 485.412 C 182.433 485.957, 180.550 485.279, 178.288 483.730 C 176.205 482.303, 173.150 480.599, 171.500 479.943 C 169.850 479.287, 167.600 478.369, 166.500 477.903 C 165.400 477.437, 162.025 476.107, 159 474.949 C 155.975 473.790, 151.925 471.888, 150 470.722 C 145.036 467.715, 133.336 456.322, 129.746 451 C 128.076 448.525, 125.502 445.150, 124.026 443.500 C 122.550 441.850, 120.741 438.581, 120.006 436.236 C 118.449 431.266, 116.455 429.145, 114.848 430.752 C 113.076 432.524, 116.345 458.478, 119.981 471.500 C 121.032 475.263, 122.427 479.238, 126.119 488.989 C 126.846 490.907, 130.413 496.982, 134.046 502.489 C 142.124 514.732, 159.217 531.500, 169.626 537.391 C 180.318 543.442, 185.390 545.991, 186.747 545.996 C 189.185 546.004, 196.355 553.606, 202.301 562.487 C 216.769 584.096, 224.648 591.874, 248.836 608.425 C 253.421 611.562, 257.921 614.404, 258.836 614.741 C 259.751 615.077, 261.850 616.366, 263.500 617.605 C 265.151 618.843, 271.226 621.957, 277 624.523 C 282.775 627.090, 290.200 630.446, 293.500 631.981 C 296.800 633.516, 301.300 635.325, 303.500 636.001 C 305.700 636.677, 308.850 637.779, 310.500 638.451 C 316.366 640.837, 320.538 642.236, 323.262 642.730 C 324.781 643.005, 326.271 643.629, 326.571 644.115 C 326.872 644.602, 328.432 645, 330.039 645 C 331.645 645, 334.656 645.613, 336.730 646.362 C 346.464 649.877, 370.262 654.066, 384.250 654.727 C 393.714 655.174, 394 655.257, 394 657.560 C 394 662.943, 384.526 681.318, 378.261 688.085 C 375.367 691.210, 373 694.270, 373 694.884 C 373 696.662, 391.025 696.296, 393.441 694.468 C 394.509 693.661, 396.845 693, 398.632 693 C 400.420 693, 402.160 692.550, 402.500 692 C 402.840 691.450, 404.048 691, 405.185 691 C 406.321 691, 411.676 688.686, 417.083 685.858 C 425.159 681.635, 428.411 679.178, 435.286 672.108 C 440.699 666.541, 445.134 660.799, 447.841 655.853 C 451.387 649.373, 452.637 647.962, 456.033 646.603 C 458.237 645.722, 461.355 645, 462.961 645 C 464.568 645, 466.160 644.550, 466.500 644 C 466.840 643.450, 468.246 643, 469.625 643 C 471.003 643, 473.104 642.480, 474.292 641.844 C 475.481 641.208, 477.814 640.347, 479.476 639.931 C 483.078 639.031, 487.698 637.389, 494.500 634.591 C 502.861 631.151, 532.194 616.130, 537.226 612.711 C 539.825 610.945, 545.225 607.347, 549.226 604.715 C 562.842 595.757, 567.493 591.932, 580.843 578.713 C 596.328 563.378, 601.507 557.148, 613.066 539.952 C 622.362 526.122, 632.466 506.085, 635.985 494.500 C 636.653 492.300, 637.830 489.226, 638.600 487.669 C 639.370 486.112, 640 483.776, 640 482.478 C 640 481.180, 640.450 479.840, 641 479.500 C 641.550 479.160, 642.003 477.446, 642.006 475.691 C 642.010 473.936, 642.685 471.211, 643.506 469.636 C 645.608 465.605, 645.514 453.219, 643.357 449.973 C 642.453 448.613, 638.741 444.426, 635.107 440.670 C 628.545 433.886, 617.451 427, 613.084 427 C 612.003 427, 610.840 426.550, 610.500 426 C 610.160 425.450, 608.805 425, 607.490 425 C 606.174 425, 602.506 424.325, 599.339 423.500 C 592.856 421.812, 575.366 421.575, 567.500 423.069 C 564.750 423.592, 560.025 424.444, 557 424.963 C 545.885 426.869, 542.396 427.637, 541.040 428.475 C 540.278 428.946, 538.044 429.663, 536.077 430.068 C 534.110 430.473, 531.150 431.270, 529.500 431.840 C 527.850 432.410, 524.475 433.405, 522 434.051 C 519.525 434.697, 514.125 436.575, 510 438.223 C 505.875 439.871, 501.375 441.666, 500 442.211 C 493.964 444.604, 476.842 453.992, 474 456.467 C 473.175 457.185, 463.050 464.136, 451.500 471.914 C 439.950 479.691, 428.250 487.841, 425.500 490.025 C 420.865 493.706, 416.281 496.230, 406.716 500.364 C 404.635 501.264, 400.724 502, 398.025 502 C 395.326 502, 392.840 502.450, 392.500 503 C 392.160 503.550, 387.746 504.016, 382.691 504.035 C 376.615 504.059, 372.653 504.555, 371 505.500 C 369.625 506.286, 367.233 506.945, 365.684 506.965 C 364.136 506.984, 361.886 507.529, 360.684 508.175 C 359.483 508.821, 356.700 509.742, 354.500 510.221 C 352.300 510.700, 348.925 511.446, 347 511.880 C 342.692 512.851, 335 516.724, 335 517.922 C 335 518.825, 340.541 522.514, 345 524.579 C 351.881 527.767, 355.469 534.292, 352.879 538.906 C 349.389 545.124, 339.715 546.515, 300.500 546.442 C 273.662 546.391, 268.980 546.156, 265.628 544.692 C 263.498 543.761, 260.497 543, 258.959 543 C 257.421 543, 254.888 542.370, 253.331 541.600 C 251.774 540.830, 248.700 539.660, 246.500 539.001 C 238.229 536.521, 225.995 529.718, 221.990 525.373 C 218.606 521.702, 218.007 520.395, 218.044 516.772 C 218.068 514.423, 218.784 510.700, 219.634 508.500 C 220.484 506.300, 221.559 502.078, 222.022 499.118 C 222.485 496.159, 223.344 493.256, 223.932 492.668 C 225.707 490.893, 225.339 455.055, 223.500 450.654 C 222.675 448.680, 221.999 446.037, 221.998 444.782 C 221.995 441.756, 214.881 428.010, 209.431 420.500 C 204.092 413.142, 192.674 401, 191.095 401 C 190.458 401, 189.694 401.635, 189.396 402.411" stroke="none" fill="#43e5a3" fill-rule="evenodd"/>
</svg>