<svg xmlns="http://www.w3.org/2000/svg" viewBox="0 0 791 791" version="1.1">
<path d="M 392.500 90.037 C 374.975 92.378, 358.179 102.995, 348.083 118.114 C 337.402 134.108, 334.891 155.383, 341.455 174.257 C 344.917 184.212, 349.524 191.452, 357.500 199.469 C 365.565 207.576, 375.846 213.224, 386.742 215.533 C 395.644 217.420, 410.103 217.383, 417.540 215.455 C 438.753 209.955, 455.635 193.655, 462.653 171.899 C 464.967 164.723, 465.163 162.831, 464.789 151.250 C 464.286 135.702, 462.293 129.212, 454.342 117.237 C 445.935 104.575, 432.088 94.658, 418 91.210 C 411.633 89.651, 399.550 89.095, 392.500 90.037 M 308.105 177.549 C 259.465 193.952, 222.749 222.778, 195.718 265.787 C 185.303 282.358, 175.473 305.771, 172.118 322 C 171.492 325.025, 170.310 330.565, 169.490 334.312 C 168.671 338.059, 168 342.697, 168 344.619 C 168 346.542, 167.528 350.001, 166.950 352.307 C 166.373 354.613, 166.035 360.325, 166.200 365 L 166.500 373.500 168.657 369 C 169.843 366.525, 172.011 361.510, 173.475 357.855 C 180.927 339.245, 195.093 318.352, 212.753 299.921 C 243.199 268.149, 279.251 248.595, 322 240.667 C 342.199 236.921, 360.387 236.230, 380 238.461 C 429.702 244.117, 470.920 264.263, 504.838 299.477 C 529.904 325.502, 546.109 353.897, 554.945 387.276 C 559.418 404.176, 560.121 408.162, 560.849 420.764 C 561.913 439.175, 564.564 435.790, 568.498 411 C 569.938 401.925, 571.589 391.575, 572.166 388 C 573.314 380.901, 572.789 359.434, 571.142 346.092 C 568.588 325.409, 561.866 303.665, 551.482 282.500 C 547.435 274.250, 542.183 264.547, 539.811 260.938 C 529.634 245.447, 513.673 227.245, 500.737 216.377 C 490.343 207.645, 471.501 195, 468.884 195 C 467.938 195, 466.245 196.486, 465.122 198.303 C 459.664 207.134, 442.775 220.113, 430 225.295 C 419.016 229.749, 415.201 230.404, 400.500 230.356 C 387.457 230.314, 385.893 230.098, 377.626 227.195 C 365.170 222.823, 356.110 217.103, 346.649 207.638 C 337.643 198.627, 333.171 191.778, 329.128 180.800 C 326.850 174.617, 326.061 173.464, 323.969 173.266 C 322.611 173.137, 315.472 175.065, 308.105 177.549 M 543.095 239.750 C 543.832 240.713, 546.495 243.750, 549.013 246.500 C 559.892 258.381, 571.984 277.629, 579.795 295.500 C 592.508 324.585, 597.550 350.641, 596.729 383 C 596.193 404.092, 595.174 411.429, 590.339 429 C 579.756 467.459, 561.455 498.272, 532.907 525.694 C 509.455 548.222, 471.299 569.022, 442.500 574.978 C 440.300 575.433, 433.550 576.831, 427.500 578.084 C 418.059 580.039, 413.382 580.369, 394.500 580.412 C 380.130 580.445, 370.246 580.008, 366 579.151 C 362.425 578.430, 355.900 577.141, 351.500 576.286 C 340.980 574.242, 323.724 568.991, 314.608 565.059 C 309.755 562.966, 308.213 562.917, 309.436 564.896 C 309.786 565.462, 314.048 569.299, 318.909 573.423 C 344.338 594.997, 378.296 611.576, 410 617.895 C 439.885 623.851, 473.823 623.074, 501.500 615.799 C 524.309 609.804, 560.507 593.054, 562.635 587.510 C 562.909 586.794, 561.766 583.498, 560.094 580.186 C 554.454 569.013, 552.787 560.336, 553.238 544.500 C 553.732 527.133, 556.241 518.540, 564.341 506.480 C 577.700 486.588, 592.426 476.030, 613.780 471.035 C 617.093 470.260, 624.155 469.930, 632.741 470.150 L 646.423 470.500 647.641 468 C 648.894 465.427, 649.666 461.741, 652.563 444.499 C 653.898 436.554, 654.141 430.387, 653.746 414.499 C 653.473 403.500, 652.722 391.800, 652.079 388.500 C 651.436 385.200, 650.426 380.025, 649.835 377 C 644.207 348.179, 628.211 314.701, 608.229 289.926 C 595.334 273.936, 574.179 255.741, 555.306 244.406 C 544.377 237.842, 540.504 236.365, 543.095 239.750 M 312 265.164 C 279.947 274.912, 254.687 288.520, 231 308.799 C 211.182 325.765, 193.220 349.647, 181.047 375.216 C 174.119 389.768, 172.509 394.261, 167.870 412 C 163.603 428.313, 160.371 460.771, 162.774 463.174 C 163.361 463.761, 166.690 464.575, 170.171 464.983 C 182.768 466.458, 196.169 472.122, 207.474 480.749 C 214.119 485.819, 224.199 497.976, 228.443 506.037 C 242.500 532.735, 239.116 566.082, 219.934 589.887 C 217.220 593.255, 215 596.842, 215 597.858 C 215 602.170, 243.869 626.747, 259.500 635.742 C 293.181 655.124, 321.336 663.415, 357.826 664.698 C 384.039 665.620, 404.541 662.817, 427.628 655.155 C 446.084 649.030, 466.443 639.893, 467.444 637.286 C 468.073 635.645, 466.901 635.670, 457.338 637.500 C 447.314 639.418, 416.107 639.457, 403 637.567 C 359.189 631.251, 318.624 611.231, 288.111 580.867 C 268.164 561.017, 256.032 543.483, 244.205 517.407 C 240.507 509.255, 236.079 497.104, 234.945 492 C 234.518 490.075, 233.277 484.900, 232.188 480.500 C 228.455 465.414, 227.687 457.834, 227.684 436 C 227.681 413.630, 228.820 403.363, 233.124 387 C 240.731 358.077, 255.075 329.499, 273.026 307.500 C 281.773 296.781, 300.450 279.275, 311.284 271.639 C 316.638 267.866, 321.266 264.378, 321.568 263.889 C 322.399 262.546, 319.213 262.970, 312 265.164 M 149 478.435 C 134.578 480.789, 125.300 485.716, 113.879 497.087 C 101.772 509.140, 95.104 525.198, 95.021 542.500 C 94.994 548.010, 97.671 560.334, 100.219 566.436 C 111.519 593.495, 141.382 610.534, 169 605.679 C 183.330 603.160, 192.696 598.552, 203.698 588.607 C 220.149 573.737, 227.859 547.387, 221.975 526.151 C 214.984 500.925, 195.577 482.778, 171 478.487 C 161.194 476.775, 159.198 476.770, 149 478.435 M 615.236 484.506 C 607.697 486.347, 595.900 492.190, 588.988 497.509 C 575.045 508.238, 566 527.309, 566 545.980 C 566 575.354, 581.644 597.827, 609.500 608.469 C 613.098 609.844, 625.408 611.998, 629.674 611.999 C 638.768 612.001, 652.877 608.088, 661.233 603.246 C 675.904 594.745, 685.769 582.473, 691.577 565.500 C 694.075 558.198, 694.077 536.522, 691.580 529 C 684.208 506.796, 667.171 490.542, 645.444 484.986 C 636.528 482.705, 623.462 482.498, 615.236 484.506" stroke="none" fill="#05113e" fill-rule="evenodd"/><path d="M 360 29.096 C 205.828 44.347, 78.741 152.134, 39.094 301.269 C 30.688 332.889, 27.559 358.178, 27.559 394.500 C 27.559 424.512, 28.740 437.951, 33.623 463.500 C 62.425 614.188, 183.069 731.611, 334.559 756.402 C 374.822 762.991, 422.323 762.440, 461.795 754.925 C 563.013 735.654, 650.274 675.713, 705.470 587.541 C 732.475 544.402, 750.014 495.035, 757.532 441 C 759.741 425.128, 760.597 381.951, 759.063 363.780 C 751.600 275.353, 713.251 194.311, 649.377 131.984 C 591.310 75.324, 520.742 41.283, 438.795 30.405 C 424.256 28.475, 374.615 27.650, 360 29.096 M 392.500 90.037 C 374.975 92.378, 358.179 102.995, 348.083 118.114 C 337.402 134.108, 334.891 155.383, 341.455 174.257 C 344.917 184.212, 349.524 191.452, 357.500 199.469 C 365.565 207.576, 375.846 213.224, 386.742 215.533 C 395.644 217.420, 410.103 217.383, 417.540 215.455 C 438.753 209.955, 455.635 193.655, 462.653 171.899 C 464.967 164.723, 465.163 162.831, 464.789 151.250 C 464.286 135.702, 462.293 129.212, 454.342 117.237 C 445.935 104.575, 432.088 94.658, 418 91.210 C 411.633 89.651, 399.550 89.095, 392.500 90.037 M 308.105 177.549 C 259.465 193.952, 222.749 222.778, 195.718 265.787 C 185.303 282.358, 175.473 305.771, 172.118 322 C 171.492 325.025, 170.310 330.565, 169.490 334.312 C 168.671 338.059, 168 342.697, 168 344.619 C 168 346.542, 167.528 350.001, 166.950 352.307 C 166.373 354.613, 166.035 360.325, 166.200 365 L 166.500 373.500 168.657 369 C 169.843 366.525, 172.011 361.510, 173.475 357.855 C 180.927 339.245, 195.093 318.352, 212.753 299.921 C 243.199 268.149, 279.251 248.595, 322 240.667 C 342.199 236.921, 360.387 236.230, 380 238.461 C 429.702 244.117, 470.920 264.263, 504.838 299.477 C 529.904 325.502, 546.109 353.897, 554.945 387.276 C 559.418 404.176, 560.121 408.162, 560.849 420.764 C 561.913 439.175, 564.564 435.790, 568.498 411 C 569.938 401.925, 571.589 391.575, 572.166 388 C 573.314 380.901, 572.789 359.434, 571.142 346.092 C 568.588 325.409, 561.866 303.665, 551.482 282.500 C 547.435 274.250, 542.183 264.547, 539.811 260.938 C 529.634 245.447, 513.673 227.245, 500.737 216.377 C 490.343 207.645, 471.501 195, 468.884 195 C 467.938 195, 466.245 196.486, 465.122 198.303 C 459.664 207.134, 442.775 220.113, 430 225.295 C 419.016 229.749, 415.201 230.404, 400.500 230.356 C 387.457 230.314, 385.893 230.098, 377.626 227.195 C 365.170 222.823, 356.110 217.103, 346.649 207.638 C 337.643 198.627, 333.171 191.778, 329.128 180.800 C 326.850 174.617, 326.061 173.464, 323.969 173.266 C 322.611 173.137, 315.472 175.065, 308.105 177.549 M 543.095 239.750 C 543.832 240.713, 546.495 243.750, 549.013 246.500 C 559.892 258.381, 571.984 277.629, 579.795 295.500 C 592.508 324.585, 597.550 350.641, 596.729 383 C 596.193 404.092, 595.174 411.429, 590.339 429 C 579.756 467.459, 561.455 498.272, 532.907 525.694 C 509.455 548.222, 471.299 569.022, 442.500 574.978 C 440.300 575.433, 433.550 576.831, 427.500 578.084 C 418.059 580.039, 413.382 580.369, 394.500 580.412 C 380.130 580.445, 370.246 580.008, 366 579.151 C 362.425 578.430, 355.900 577.141, 351.500 576.286 C 340.980 574.242, 323.724 568.991, 314.608 565.059 C 309.755 562.966, 308.213 562.917, 309.436 564.896 C 309.786 565.462, 314.048 569.299, 318.909 573.423 C 344.338 594.997, 378.296 611.576, 410 617.895 C 439.885 623.851, 473.823 623.074, 501.500 615.799 C 524.309 609.804, 560.507 593.054, 562.635 587.510 C 562.909 586.794, 561.766 583.498, 560.094 580.186 C 554.454 569.013, 552.787 560.336, 553.238 544.500 C 553.732 527.133, 556.241 518.540, 564.341 506.480 C 577.700 486.588, 592.426 476.030, 613.780 471.035 C 617.093 470.260, 624.155 469.930, 632.741 470.150 L 646.423 470.500 647.641 468 C 648.894 465.427, 649.666 461.741, 652.563 444.499 C 653.898 436.554, 654.141 430.387, 653.746 414.499 C 653.473 403.500, 652.722 391.800, 652.079 388.500 C 651.436 385.200, 650.426 380.025, 649.835 377 C 644.207 348.179, 628.211 314.701, 608.229 289.926 C 595.334 273.936, 574.179 255.741, 555.306 244.406 C 544.377 237.842, 540.504 236.365, 543.095 239.750 M 312 265.164 C 279.947 274.912, 254.687 288.520, 231 308.799 C 211.182 325.765, 193.220 349.647, 181.047 375.216 C 174.119 389.768, 172.509 394.261, 167.870 412 C 163.603 428.313, 160.371 460.771, 162.774 463.174 C 163.361 463.761, 166.690 464.575, 170.171 464.983 C 182.768 466.458, 196.169 472.122, 207.474 480.749 C 214.119 485.819, 224.199 497.976, 228.443 506.037 C 242.500 532.735, 239.116 566.082, 219.934 589.887 C 217.220 593.255, 215 596.842, 215 597.858 C 215 602.170, 243.869 626.747, 259.500 635.742 C 293.181 655.124, 321.336 663.415, 357.826 664.698 C 384.039 665.620, 404.541 662.817, 427.628 655.155 C 446.084 649.030, 466.443 639.893, 467.444 637.286 C 468.073 635.645, 466.901 635.670, 457.338 637.500 C 447.314 639.418, 416.107 639.457, 403 637.567 C 359.189 631.251, 318.624 611.231, 288.111 580.867 C 268.164 561.017, 256.032 543.483, 244.205 517.407 C 240.507 509.255, 236.079 497.104, 234.945 492 C 234.518 490.075, 233.277 484.900, 232.188 480.500 C 228.455 465.414, 227.687 457.834, 227.684 436 C 227.681 413.630, 228.820 403.363, 233.124 387 C 240.731 358.077, 255.075 329.499, 273.026 307.500 C 281.773 296.781, 300.450 279.275, 311.284 271.639 C 316.638 267.866, 321.266 264.378, 321.568 263.889 C 322.399 262.546, 319.213 262.970, 312 265.164 M 149 478.435 C 134.578 480.789, 125.300 485.716, 113.879 497.087 C 101.772 509.140, 95.104 525.198, 95.021 542.500 C 94.994 548.010, 97.671 560.334, 100.219 566.436 C 111.519 593.495, 141.382 610.534, 169 605.679 C 183.330 603.160, 192.696 598.552, 203.698 588.607 C 220.149 573.737, 227.859 547.387, 221.975 526.151 C 214.984 500.925, 195.577 482.778, 171 478.487 C 161.194 476.775, 159.198 476.770, 149 478.435 M 615.236 484.506 C 607.697 486.347, 595.900 492.190, 588.988 497.509 C 575.045 508.238, 566 527.309, 566 545.980 C 566 575.354, 581.644 597.827, 609.500 608.469 C 613.098 609.844, 625.408 611.998, 629.674 611.999 C 638.768 612.001, 652.877 608.088, 661.233 603.246 C 675.904 594.745, 685.769 582.473, 691.577 565.500 C 694.075 558.198, 694.077 536.522, 691.580 529 C 684.208 506.796, 667.171 490.542, 645.444 484.986 C 636.528 482.705, 623.462 482.498, 615.236 484.506" stroke="none" fill="#43e4a3" fill-rule="evenodd"/>
</svg>