<svg xmlns="http://www.w3.org/2000/svg" viewBox="0 0 766 766" version="1.1">
<path d="M 362.500 105.573 C 360.850 105.805, 356.125 106.475, 352 107.062 C 339.758 108.803, 323.240 113.861, 311.500 119.464 C 280.372 134.321, 259.917 157.883, 247.661 193 C 240.501 213.515, 237.503 237.181, 238.413 266 C 239.149 289.294, 238.843 290.711, 232.645 292.749 C 217.273 297.805, 199.537 309.564, 184.199 324.871 C 165.542 343.491, 152.726 364.759, 147.964 385 C 147.511 386.925, 146.693 390.300, 146.147 392.500 C 143.148 404.570, 142.870 411.467, 143.282 463.500 C 143.683 514.017, 144.322 525.995, 146.870 530.757 C 147.492 531.918, 148 533.711, 148 534.741 C 148 537.243, 155.059 555.232, 158.500 561.500 C 180.323 601.249, 211.348 624.231, 258 635.206 C 266.168 637.128, 493.823 637.094, 502.500 635.170 C 526.055 629.947, 540.525 624.034, 557.315 612.774 C 568.138 605.514, 586.756 587.184, 593.650 577 C 602.686 563.652, 610.757 547.036, 613.080 537 C 613.526 535.075, 614.634 530.575, 615.543 527 C 616.452 523.425, 617.703 514.425, 618.323 507 C 619.631 491.340, 619.883 425.724, 618.685 412.500 C 616.557 389.006, 608.155 365.489, 594.749 345.500 C 580.480 324.225, 561.493 307.921, 537.451 296.297 C 532.253 293.784, 527.991 291.452, 527.980 291.114 C 527.969 290.776, 527.808 275.650, 527.624 257.500 C 527.274 223.192, 526.649 216.566, 522.151 199.500 C 518.162 184.362, 510.780 168.294, 501.939 155.506 C 489.444 137.432, 465.979 120.273, 444 113.139 C 425.765 107.221, 416.926 105.967, 390.500 105.548 C 376.750 105.330, 364.150 105.342, 362.500 105.573 M 361.438 167.478 C 346.039 170.830, 335.155 176.785, 323.982 187.972 C 315.049 196.916, 310.686 203.814, 307.206 214.500 C 302.008 230.462, 301.543 234.222, 301.520 260.500 L 301.500 282.500 383.500 282.500 L 465.500 282.500 465.768 259.320 C 466.059 234.168, 465.192 227.543, 459.690 212.890 C 453.703 196.945, 439.767 181.420, 424.878 174.110 C 411.676 167.629, 403.469 166.019, 384 166.095 C 374.320 166.132, 364.994 166.704, 361.438 167.478 M 273.500 382.152 C 269.650 383.217, 262.381 386.126, 257.347 388.617 C 249.157 392.668, 246.938 394.426, 236.263 405.322 C 228.574 413.171, 224.074 418.567, 223.605 420.500 C 223.205 422.150, 221.827 425.108, 220.542 427.072 C 216.274 433.601, 215 441.490, 215 461.406 C 215 478.114, 215.203 480.233, 217.414 486.575 C 218.742 490.384, 220.767 495.283, 221.914 497.461 C 223.061 499.640, 224 502.043, 224 502.802 C 224 503.560, 229.444 509.732, 236.097 516.518 C 246.978 527.616, 249.113 529.307, 257.347 533.353 C 271.593 540.352, 281.472 542.447, 296.571 541.673 C 309.931 540.988, 317.994 539.692, 322.832 537.452 C 340.017 529.496, 341.837 528.233, 355.750 514.588 C 363.409 507.077, 366 503.895, 366 502.002 C 366 498.481, 344.575 477, 341.063 477 C 339.343 477, 335.219 480.353, 326.579 488.776 C 316.053 499.038, 313.781 500.774, 308.912 502.276 C 301.873 504.448, 284.764 504.647, 280.847 502.603 C 279.387 501.842, 276.637 500.705, 274.735 500.077 C 270.179 498.574, 257.904 485.875, 255.139 479.805 C 253.274 475.712, 253 473.287, 253 460.905 C 253 447.684, 253.178 446.336, 255.566 441.455 C 258.766 434.914, 270.804 423.050, 277.195 420.139 C 283.782 417.138, 304.397 417.052, 310.500 420 C 312.700 421.063, 315.161 421.947, 315.970 421.966 C 316.778 421.985, 341.753 446.242, 371.470 475.872 C 425.284 529.530, 425.534 529.761, 434 533.813 C 438.675 536.051, 444.750 538.402, 447.500 539.038 C 450.250 539.674, 454.127 540.600, 456.116 541.097 C 458.105 541.594, 464.548 542, 470.435 542 C 482.268 542, 499.101 538.488, 504.004 534.997 C 505.451 533.967, 508.630 532.533, 511.067 531.812 C 514.518 530.791, 517.965 528.109, 526.625 519.710 C 536.183 510.441, 538.317 507.763, 541.768 500.710 C 543.978 496.195, 546.359 490.925, 547.060 489 C 547.762 487.075, 548.822 484.869, 549.418 484.099 C 550.081 483.240, 550.627 475.161, 550.828 463.235 C 551.095 447.391, 550.854 442.818, 549.534 438.636 C 543.092 418.229, 525.230 396.554, 508 388.233 C 494.850 381.882, 486.390 380, 471 380 C 455.631 380, 447.186 381.875, 434 388.215 C 426.724 391.714, 423.808 393.964, 413.750 403.848 C 404.792 412.650, 402 416.004, 402 417.964 C 402 421.530, 422.404 442, 425.959 442 C 427.689 442, 431.305 439.128, 438.548 432 C 444.137 426.500, 449.338 421.985, 450.105 421.966 C 450.872 421.947, 453.300 421.063, 455.500 420 C 458.718 418.446, 461.729 418.061, 470.900 418.034 C 485.566 417.990, 489.442 419.714, 500.746 431.309 C 511.729 442.573, 513 445.663, 513 461.095 C 513 476.890, 511.427 480.425, 499.160 492.202 C 488.551 502.387, 484.429 504.017, 469.412 503.966 C 461.714 503.940, 458.607 503.501, 455.500 502 C 453.300 500.937, 450.839 500.053, 450.030 500.034 C 449.222 500.015, 424.247 475.758, 394.530 446.128 C 340.695 392.450, 340.469 392.241, 332 388.192 C 318.414 381.696, 310.409 379.981, 294.268 380.108 C 283.994 380.189, 278.724 380.707, 273.500 382.152" stroke="none" fill="#040e3d" fill-rule="evenodd"/><path d="M 354.500 18.637 C 352.850 18.823, 346.775 19.473, 341 20.081 C 335.225 20.690, 324.425 22.292, 317 23.643 C 176.234 49.242, 62.506 155.688, 27.612 294.500 C 20.280 323.667, 17 351.328, 17 384 C 17 430.450, 24.190 471.020, 39.773 512.500 C 79.184 617.406, 164.075 698.292, 271 732.815 C 306.449 744.261, 334.464 748.842, 374.200 749.692 C 410.177 750.461, 431.270 748.496, 463.394 741.382 C 579.093 715.761, 676.570 633.421, 721.979 522.953 C 740.324 478.325, 748.979 433.782, 748.979 384 C 748.979 342.927, 743.564 308.019, 731.438 270.916 C 686.177 132.431, 564.764 34.494, 419.778 19.520 C 406.617 18.161, 363.867 17.583, 354.500 18.637 M 362.500 105.573 C 360.850 105.805, 356.125 106.475, 352 107.062 C 339.758 108.803, 323.240 113.861, 311.500 119.464 C 280.372 134.321, 259.917 157.883, 247.661 193 C 240.501 213.515, 237.503 237.181, 238.413 266 C 239.149 289.294, 238.843 290.711, 232.645 292.749 C 217.273 297.805, 199.537 309.564, 184.199 324.871 C 165.542 343.491, 152.726 364.759, 147.964 385 C 147.511 386.925, 146.693 390.300, 146.147 392.500 C 143.148 404.570, 142.870 411.467, 143.282 463.500 C 143.683 514.017, 144.322 525.995, 146.870 530.757 C 147.492 531.918, 148 533.711, 148 534.741 C 148 537.243, 155.059 555.232, 158.500 561.500 C 180.323 601.249, 211.348 624.231, 258 635.206 C 266.168 637.128, 493.823 637.094, 502.500 635.170 C 526.055 629.947, 540.525 624.034, 557.315 612.774 C 568.138 605.514, 586.756 587.184, 593.650 577 C 602.686 563.652, 610.757 547.036, 613.080 537 C 613.526 535.075, 614.634 530.575, 615.543 527 C 616.452 523.425, 617.703 514.425, 618.323 507 C 619.631 491.340, 619.883 425.724, 618.685 412.500 C 616.557 389.006, 608.155 365.489, 594.749 345.500 C 580.480 324.225, 561.493 307.921, 537.451 296.297 C 532.253 293.784, 527.991 291.452, 527.980 291.114 C 527.969 290.776, 527.808 275.650, 527.624 257.500 C 527.274 223.192, 526.649 216.566, 522.151 199.500 C 518.162 184.362, 510.780 168.294, 501.939 155.506 C 489.444 137.432, 465.979 120.273, 444 113.139 C 425.765 107.221, 416.926 105.967, 390.500 105.548 C 376.750 105.330, 364.150 105.342, 362.500 105.573 M 361.438 167.478 C 346.039 170.830, 335.155 176.785, 323.982 187.972 C 315.049 196.916, 310.686 203.814, 307.206 214.500 C 302.008 230.462, 301.543 234.222, 301.520 260.500 L 301.500 282.500 383.500 282.500 L 465.500 282.500 465.768 259.320 C 466.059 234.168, 465.192 227.543, 459.690 212.890 C 453.703 196.945, 439.767 181.420, 424.878 174.110 C 411.676 167.629, 403.469 166.019, 384 166.095 C 374.320 166.132, 364.994 166.704, 361.438 167.478 M 273.500 382.152 C 269.650 383.217, 262.381 386.126, 257.347 388.617 C 249.157 392.668, 246.938 394.426, 236.263 405.322 C 228.574 413.171, 224.074 418.567, 223.605 420.500 C 223.205 422.150, 221.827 425.108, 220.542 427.072 C 216.274 433.601, 215 441.490, 215 461.406 C 215 478.114, 215.203 480.233, 217.414 486.575 C 218.742 490.384, 220.767 495.283, 221.914 497.461 C 223.061 499.640, 224 502.043, 224 502.802 C 224 503.560, 229.444 509.732, 236.097 516.518 C 246.978 527.616, 249.113 529.307, 257.347 533.353 C 271.593 540.352, 281.472 542.447, 296.571 541.673 C 309.931 540.988, 317.994 539.692, 322.832 537.452 C 340.017 529.496, 341.837 528.233, 355.750 514.588 C 363.409 507.077, 366 503.895, 366 502.002 C 366 498.481, 344.575 477, 341.063 477 C 339.343 477, 335.219 480.353, 326.579 488.776 C 316.053 499.038, 313.781 500.774, 308.912 502.276 C 301.873 504.448, 284.764 504.647, 280.847 502.603 C 279.387 501.842, 276.637 500.705, 274.735 500.077 C 270.179 498.574, 257.904 485.875, 255.139 479.805 C 253.274 475.712, 253 473.287, 253 460.905 C 253 447.684, 253.178 446.336, 255.566 441.455 C 258.766 434.914, 270.804 423.050, 277.195 420.139 C 283.782 417.138, 304.397 417.052, 310.500 420 C 312.700 421.063, 315.161 421.947, 315.970 421.966 C 316.778 421.985, 341.753 446.242, 371.470 475.872 C 425.284 529.530, 425.534 529.761, 434 533.813 C 438.675 536.051, 444.750 538.402, 447.500 539.038 C 450.250 539.674, 454.127 540.600, 456.116 541.097 C 458.105 541.594, 464.548 542, 470.435 542 C 482.268 542, 499.101 538.488, 504.004 534.997 C 505.451 533.967, 508.630 532.533, 511.067 531.812 C 514.518 530.791, 517.965 528.109, 526.625 519.710 C 536.183 510.441, 538.317 507.763, 541.768 500.710 C 543.978 496.195, 546.359 490.925, 547.060 489 C 547.762 487.075, 548.822 484.869, 549.418 484.099 C 550.081 483.240, 550.627 475.161, 550.828 463.235 C 551.095 447.391, 550.854 442.818, 549.534 438.636 C 543.092 418.229, 525.230 396.554, 508 388.233 C 494.850 381.882, 486.390 380, 471 380 C 455.631 380, 447.186 381.875, 434 388.215 C 426.724 391.714, 423.808 393.964, 413.750 403.848 C 404.792 412.650, 402 416.004, 402 417.964 C 402 421.530, 422.404 442, 425.959 442 C 427.689 442, 431.305 439.128, 438.548 432 C 444.137 426.500, 449.338 421.985, 450.105 421.966 C 450.872 421.947, 453.300 421.063, 455.500 420 C 458.718 418.446, 461.729 418.061, 470.900 418.034 C 485.566 417.990, 489.442 419.714, 500.746 431.309 C 511.729 442.573, 513 445.663, 513 461.095 C 513 476.890, 511.427 480.425, 499.160 492.202 C 488.551 502.387, 484.429 504.017, 469.412 503.966 C 461.714 503.940, 458.607 503.501, 455.500 502 C 453.300 500.937, 450.839 500.053, 450.030 500.034 C 449.222 500.015, 424.247 475.758, 394.530 446.128 C 340.695 392.450, 340.469 392.241, 332 388.192 C 318.414 381.696, 310.409 379.981, 294.268 380.108 C 283.994 380.189, 278.724 380.707, 273.500 382.152" stroke="none" fill="#43e6a3" fill-rule="evenodd"/>
</svg>